G04 EAGLE Gerber X2 export*
G04 #@! %TF.Part,Single*
G04 #@! %TF.FileFunction,Soldermask,Top*
G04 #@! %TF.FilePolarity,Negative*
G04 #@! %TF.GenerationSoftware,Autodesk,EAGLE,9.0.1*
G04 #@! %TF.CreationDate,2018-05-29T11:13:03Z*
G75*
%MOMM*%
%FSLAX44Y44*%
%LPD*%
%AMOC8*
5,1,8,0,0,1.08239X$1,22.5*%
G01*
%ADD10C,3.703200*%
%ADD11C,5.403200*%
%ADD12C,2.082800*%
%ADD13C,1.409600*%


D10*
X50800Y431800D03*
X508000Y431800D03*
X50800Y127000D03*
X508000Y127000D03*
D11*
X279400Y571500D03*
X571500Y279400D03*
X-12700Y279400D03*
X279400Y-12700D03*
D12*
X73406Y540512D03*
X73406Y475488D03*
X28194Y540512D03*
X28194Y475488D03*
X180594Y18288D03*
X180594Y83312D03*
X225806Y18288D03*
X225806Y83312D03*
X180594Y170688D03*
X180594Y235712D03*
X225806Y170688D03*
X225806Y235712D03*
X180594Y323088D03*
X180594Y388112D03*
X225806Y323088D03*
X225806Y388112D03*
X180594Y475488D03*
X180594Y540512D03*
X225806Y475488D03*
X225806Y540512D03*
X485394Y18288D03*
X485394Y83312D03*
X530606Y18288D03*
X530606Y83312D03*
X485394Y170688D03*
X485394Y235712D03*
X530606Y170688D03*
X530606Y235712D03*
X485394Y323088D03*
X485394Y388112D03*
X530606Y323088D03*
X530606Y388112D03*
X485394Y475488D03*
X485394Y540512D03*
X530606Y475488D03*
X530606Y540512D03*
X332994Y18288D03*
X332994Y83312D03*
X378206Y18288D03*
X378206Y83312D03*
X332994Y170688D03*
X332994Y235712D03*
X378206Y170688D03*
X378206Y235712D03*
X332994Y323088D03*
X332994Y388112D03*
X378206Y323088D03*
X378206Y388112D03*
X332994Y475488D03*
X332994Y540512D03*
X378206Y475488D03*
X378206Y540512D03*
X73406Y83312D03*
X73406Y18288D03*
X28194Y83312D03*
X28194Y18288D03*
X73406Y235712D03*
X73406Y170688D03*
X28194Y235712D03*
X28194Y170688D03*
X73406Y388112D03*
X73406Y323088D03*
X28194Y388112D03*
X28194Y323088D03*
X127000Y38100D03*
X127000Y63500D03*
X127000Y88900D03*
X127000Y114300D03*
X127000Y139700D03*
X127000Y165100D03*
X127000Y190500D03*
X127000Y215900D03*
X127000Y241300D03*
X127000Y266700D03*
X127000Y292100D03*
X127000Y317500D03*
X279400Y317500D03*
X279400Y292100D03*
X279400Y266700D03*
X279400Y241300D03*
X279400Y215900D03*
X279400Y190500D03*
X279400Y165100D03*
X279400Y139700D03*
X279400Y114300D03*
X279400Y88900D03*
X279400Y63500D03*
X279400Y38100D03*
D13*
X419100Y317500D03*
X419100Y203200D03*
M02*
