G04 EAGLE Gerber X2 export*
G04 #@! %TF.Part,Single*
G04 #@! %TF.FileFunction,Copper,L1,Top,Mixed*
G04 #@! %TF.FilePolarity,Positive*
G04 #@! %TF.GenerationSoftware,Autodesk,EAGLE,9.0.1*
G04 #@! %TF.CreationDate,2018-05-25T15:16:36Z*
G75*
%MOMM*%
%FSLAX44Y44*%
%LPD*%
%AMOC8*
5,1,8,0,0,1.08239X$1,22.5*%
G01*
%ADD10C,1.879600*%

G36*
X68847Y-2524D02*
X68847Y-2524D01*
X68944Y-2514D01*
X68968Y-2504D01*
X68994Y-2500D01*
X69080Y-2454D01*
X69169Y-2414D01*
X69188Y-2397D01*
X69211Y-2384D01*
X69278Y-2314D01*
X69350Y-2248D01*
X69362Y-2225D01*
X69381Y-2206D01*
X69422Y-2118D01*
X69468Y-2032D01*
X69473Y-2007D01*
X69484Y-1983D01*
X69495Y-1886D01*
X69512Y-1790D01*
X69508Y-1764D01*
X69511Y-1739D01*
X69491Y-1643D01*
X69476Y-1547D01*
X69465Y-1524D01*
X69459Y-1498D01*
X69409Y-1415D01*
X69365Y-1328D01*
X69346Y-1309D01*
X69333Y-1287D01*
X69259Y-1224D01*
X69189Y-1156D01*
X69161Y-1140D01*
X69146Y-1127D01*
X69115Y-1115D01*
X69042Y-1075D01*
X62327Y1707D01*
X56825Y7209D01*
X53847Y14398D01*
X53847Y22178D01*
X56825Y29367D01*
X62327Y34869D01*
X69516Y37847D01*
X77296Y37847D01*
X84485Y34869D01*
X89987Y29367D01*
X92965Y22178D01*
X92965Y14398D01*
X89987Y7209D01*
X84485Y1707D01*
X77770Y-1075D01*
X77687Y-1126D01*
X77601Y-1172D01*
X77583Y-1190D01*
X77561Y-1204D01*
X77498Y-1280D01*
X77431Y-1350D01*
X77420Y-1374D01*
X77404Y-1394D01*
X77369Y-1485D01*
X77328Y-1573D01*
X77325Y-1599D01*
X77316Y-1623D01*
X77311Y-1721D01*
X77301Y-1817D01*
X77306Y-1843D01*
X77305Y-1869D01*
X77332Y-1963D01*
X77353Y-2058D01*
X77366Y-2080D01*
X77374Y-2105D01*
X77429Y-2185D01*
X77479Y-2269D01*
X77499Y-2286D01*
X77514Y-2307D01*
X77592Y-2366D01*
X77666Y-2429D01*
X77690Y-2439D01*
X77711Y-2454D01*
X77804Y-2484D01*
X77894Y-2521D01*
X77927Y-2524D01*
X77945Y-2530D01*
X77978Y-2530D01*
X78061Y-2539D01*
X221151Y-2539D01*
X221247Y-2524D01*
X221344Y-2514D01*
X221368Y-2504D01*
X221394Y-2500D01*
X221480Y-2454D01*
X221569Y-2414D01*
X221588Y-2397D01*
X221611Y-2384D01*
X221678Y-2314D01*
X221750Y-2248D01*
X221762Y-2225D01*
X221781Y-2206D01*
X221822Y-2118D01*
X221868Y-2032D01*
X221873Y-2007D01*
X221884Y-1983D01*
X221895Y-1886D01*
X221912Y-1790D01*
X221908Y-1764D01*
X221911Y-1739D01*
X221891Y-1643D01*
X221876Y-1547D01*
X221865Y-1524D01*
X221859Y-1498D01*
X221809Y-1415D01*
X221765Y-1328D01*
X221746Y-1309D01*
X221733Y-1287D01*
X221659Y-1224D01*
X221589Y-1156D01*
X221561Y-1140D01*
X221546Y-1127D01*
X221515Y-1115D01*
X221442Y-1075D01*
X214727Y1707D01*
X209225Y7209D01*
X206247Y14398D01*
X206247Y22178D01*
X209225Y29367D01*
X214727Y34869D01*
X221916Y37847D01*
X229696Y37847D01*
X236885Y34869D01*
X242387Y29367D01*
X245365Y22178D01*
X245365Y14398D01*
X242387Y7209D01*
X236885Y1707D01*
X230170Y-1075D01*
X230087Y-1126D01*
X230001Y-1172D01*
X229983Y-1190D01*
X229961Y-1204D01*
X229898Y-1280D01*
X229831Y-1350D01*
X229820Y-1374D01*
X229804Y-1394D01*
X229769Y-1485D01*
X229728Y-1573D01*
X229725Y-1599D01*
X229716Y-1623D01*
X229711Y-1721D01*
X229701Y-1817D01*
X229706Y-1843D01*
X229705Y-1869D01*
X229732Y-1963D01*
X229753Y-2058D01*
X229766Y-2080D01*
X229774Y-2105D01*
X229829Y-2185D01*
X229879Y-2269D01*
X229899Y-2286D01*
X229914Y-2307D01*
X229992Y-2366D01*
X230066Y-2429D01*
X230090Y-2439D01*
X230111Y-2454D01*
X230204Y-2484D01*
X230294Y-2521D01*
X230327Y-2524D01*
X230345Y-2530D01*
X230378Y-2530D01*
X230461Y-2539D01*
X244102Y-2539D01*
X244145Y-2532D01*
X244189Y-2534D01*
X244266Y-2512D01*
X244345Y-2500D01*
X244383Y-2479D01*
X244426Y-2467D01*
X244492Y-2422D01*
X244562Y-2384D01*
X244592Y-2353D01*
X244629Y-2328D01*
X244677Y-2264D01*
X244732Y-2206D01*
X244750Y-2166D01*
X244776Y-2131D01*
X244829Y-1995D01*
X244835Y-1983D01*
X244836Y-1980D01*
X244837Y-1975D01*
X245704Y1258D01*
X250464Y9503D01*
X257197Y16236D01*
X265442Y20996D01*
X266851Y21374D01*
X266938Y21413D01*
X267027Y21446D01*
X267050Y21464D01*
X267075Y21475D01*
X267145Y21540D01*
X267219Y21600D01*
X267235Y21623D01*
X267255Y21642D01*
X267301Y21726D01*
X267352Y21806D01*
X267359Y21834D01*
X267373Y21859D01*
X267389Y21953D01*
X267413Y22045D01*
X267410Y22073D01*
X267415Y22101D01*
X267401Y22195D01*
X267393Y22290D01*
X267382Y22316D01*
X267378Y22344D01*
X267334Y22429D01*
X267297Y22516D01*
X267275Y22544D01*
X267265Y22563D01*
X267242Y22586D01*
X267192Y22647D01*
X262819Y27021D01*
X259841Y34210D01*
X259841Y41990D01*
X262819Y49179D01*
X268321Y54681D01*
X269527Y55181D01*
X269620Y55238D01*
X269714Y55292D01*
X269724Y55303D01*
X269736Y55310D01*
X269806Y55394D01*
X269878Y55476D01*
X269883Y55489D01*
X269893Y55500D01*
X269932Y55601D01*
X269975Y55702D01*
X269976Y55716D01*
X269981Y55729D01*
X269985Y55838D01*
X269994Y55947D01*
X269991Y55961D01*
X269991Y55975D01*
X269961Y56080D01*
X269934Y56186D01*
X269926Y56201D01*
X269923Y56211D01*
X269906Y56235D01*
X269851Y56331D01*
X269189Y57243D01*
X268336Y58917D01*
X267755Y60704D01*
X267554Y61977D01*
X278638Y61977D01*
X278658Y61980D01*
X278677Y61978D01*
X278779Y62000D01*
X278881Y62017D01*
X278898Y62026D01*
X278918Y62030D01*
X279007Y62083D01*
X279098Y62132D01*
X279112Y62146D01*
X279129Y62156D01*
X279196Y62235D01*
X279267Y62310D01*
X279276Y62328D01*
X279289Y62343D01*
X279327Y62439D01*
X279371Y62533D01*
X279373Y62553D01*
X279381Y62571D01*
X279399Y62738D01*
X279399Y64262D01*
X279396Y64282D01*
X279398Y64301D01*
X279376Y64403D01*
X279359Y64505D01*
X279350Y64522D01*
X279346Y64542D01*
X279293Y64631D01*
X279244Y64722D01*
X279230Y64736D01*
X279220Y64753D01*
X279141Y64820D01*
X279066Y64891D01*
X279048Y64900D01*
X279033Y64913D01*
X278937Y64952D01*
X278843Y64995D01*
X278823Y64997D01*
X278805Y65005D01*
X278638Y65023D01*
X267554Y65023D01*
X267755Y66296D01*
X268336Y68083D01*
X269189Y69757D01*
X269851Y70669D01*
X269900Y70766D01*
X269953Y70862D01*
X269955Y70876D01*
X269962Y70888D01*
X269977Y70996D01*
X269997Y71104D01*
X269994Y71118D01*
X269996Y71132D01*
X269977Y71239D01*
X269961Y71347D01*
X269954Y71360D01*
X269952Y71374D01*
X269899Y71469D01*
X269849Y71566D01*
X269839Y71576D01*
X269832Y71589D01*
X269752Y71662D01*
X269674Y71739D01*
X269658Y71747D01*
X269650Y71754D01*
X269624Y71766D01*
X269527Y71819D01*
X268321Y72319D01*
X262819Y77821D01*
X259841Y85010D01*
X259841Y92790D01*
X262819Y99979D01*
X263901Y101062D01*
X263913Y101078D01*
X263929Y101090D01*
X263985Y101178D01*
X264045Y101261D01*
X264051Y101280D01*
X264062Y101297D01*
X264087Y101398D01*
X264117Y101497D01*
X264117Y101516D01*
X264122Y101536D01*
X264114Y101639D01*
X264111Y101742D01*
X264104Y101761D01*
X264103Y101781D01*
X264062Y101876D01*
X264027Y101973D01*
X264014Y101989D01*
X264006Y102007D01*
X263901Y102138D01*
X262819Y103221D01*
X259841Y110410D01*
X259841Y118190D01*
X262819Y125379D01*
X263901Y126462D01*
X263913Y126478D01*
X263929Y126490D01*
X263985Y126578D01*
X264045Y126661D01*
X264051Y126680D01*
X264062Y126697D01*
X264087Y126798D01*
X264117Y126897D01*
X264117Y126916D01*
X264122Y126936D01*
X264114Y127039D01*
X264111Y127142D01*
X264104Y127161D01*
X264103Y127181D01*
X264062Y127276D01*
X264027Y127373D01*
X264014Y127389D01*
X264006Y127407D01*
X263901Y127538D01*
X262819Y128621D01*
X259841Y135810D01*
X259841Y143590D01*
X262819Y150779D01*
X263901Y151862D01*
X263913Y151878D01*
X263929Y151890D01*
X263985Y151978D01*
X264045Y152061D01*
X264051Y152080D01*
X264062Y152097D01*
X264087Y152198D01*
X264117Y152297D01*
X264117Y152316D01*
X264122Y152336D01*
X264114Y152439D01*
X264111Y152542D01*
X264104Y152561D01*
X264103Y152581D01*
X264062Y152676D01*
X264027Y152773D01*
X264014Y152789D01*
X264006Y152807D01*
X263901Y152938D01*
X262819Y154021D01*
X259841Y161210D01*
X259841Y168990D01*
X262819Y176179D01*
X263901Y177262D01*
X263913Y177278D01*
X263929Y177290D01*
X263985Y177378D01*
X264045Y177461D01*
X264051Y177480D01*
X264062Y177497D01*
X264087Y177598D01*
X264117Y177697D01*
X264117Y177716D01*
X264122Y177736D01*
X264114Y177839D01*
X264111Y177942D01*
X264104Y177961D01*
X264103Y177981D01*
X264062Y178076D01*
X264027Y178173D01*
X264014Y178189D01*
X264006Y178207D01*
X263901Y178338D01*
X262819Y179421D01*
X259841Y186610D01*
X259841Y194390D01*
X262819Y201579D01*
X263901Y202662D01*
X263913Y202678D01*
X263929Y202690D01*
X263985Y202778D01*
X264045Y202861D01*
X264051Y202880D01*
X264062Y202897D01*
X264087Y202998D01*
X264117Y203097D01*
X264117Y203116D01*
X264122Y203136D01*
X264114Y203239D01*
X264111Y203342D01*
X264104Y203361D01*
X264103Y203381D01*
X264062Y203476D01*
X264027Y203573D01*
X264014Y203589D01*
X264006Y203607D01*
X263901Y203738D01*
X262819Y204821D01*
X259841Y212010D01*
X259841Y219790D01*
X262819Y226979D01*
X263901Y228062D01*
X263913Y228078D01*
X263929Y228090D01*
X263985Y228178D01*
X264045Y228261D01*
X264051Y228280D01*
X264062Y228297D01*
X264087Y228398D01*
X264117Y228497D01*
X264117Y228516D01*
X264122Y228536D01*
X264114Y228639D01*
X264111Y228742D01*
X264104Y228761D01*
X264103Y228781D01*
X264062Y228876D01*
X264027Y228973D01*
X264014Y228989D01*
X264006Y229007D01*
X263901Y229138D01*
X262819Y230221D01*
X259841Y237410D01*
X259841Y245190D01*
X262819Y252379D01*
X263901Y253462D01*
X263913Y253478D01*
X263929Y253490D01*
X263965Y253547D01*
X263991Y253574D01*
X264006Y253608D01*
X264045Y253661D01*
X264051Y253680D01*
X264062Y253697D01*
X264078Y253762D01*
X264094Y253797D01*
X264099Y253835D01*
X264117Y253897D01*
X264117Y253916D01*
X264122Y253936D01*
X264117Y254000D01*
X264121Y254041D01*
X264113Y254082D01*
X264111Y254142D01*
X264104Y254161D01*
X264103Y254181D01*
X264079Y254237D01*
X264069Y254282D01*
X264046Y254321D01*
X264027Y254373D01*
X264014Y254389D01*
X264006Y254407D01*
X263958Y254467D01*
X263943Y254493D01*
X263927Y254507D01*
X263901Y254538D01*
X262819Y255621D01*
X259841Y262810D01*
X259841Y270590D01*
X262819Y277779D01*
X263901Y278862D01*
X263913Y278878D01*
X263929Y278890D01*
X263985Y278978D01*
X264045Y279061D01*
X264051Y279080D01*
X264062Y279097D01*
X264087Y279198D01*
X264117Y279297D01*
X264117Y279316D01*
X264122Y279336D01*
X264114Y279439D01*
X264111Y279542D01*
X264104Y279561D01*
X264103Y279581D01*
X264062Y279676D01*
X264027Y279773D01*
X264014Y279789D01*
X264006Y279807D01*
X263901Y279938D01*
X262819Y281021D01*
X259841Y288210D01*
X259841Y295990D01*
X262819Y303179D01*
X263901Y304262D01*
X263913Y304278D01*
X263929Y304290D01*
X263985Y304378D01*
X264045Y304461D01*
X264051Y304480D01*
X264062Y304497D01*
X264087Y304598D01*
X264117Y304697D01*
X264117Y304716D01*
X264122Y304736D01*
X264114Y304839D01*
X264111Y304942D01*
X264104Y304961D01*
X264103Y304981D01*
X264062Y305076D01*
X264027Y305173D01*
X264014Y305189D01*
X264006Y305207D01*
X263901Y305338D01*
X262819Y306421D01*
X259841Y313610D01*
X259841Y321390D01*
X262819Y328579D01*
X268321Y334081D01*
X275510Y337059D01*
X283290Y337059D01*
X290479Y334081D01*
X295981Y328579D01*
X298959Y321390D01*
X298959Y313610D01*
X295981Y306421D01*
X294899Y305338D01*
X294887Y305322D01*
X294871Y305310D01*
X294815Y305222D01*
X294755Y305139D01*
X294749Y305120D01*
X294738Y305103D01*
X294713Y305002D01*
X294683Y304903D01*
X294683Y304884D01*
X294678Y304864D01*
X294686Y304761D01*
X294689Y304658D01*
X294696Y304639D01*
X294697Y304619D01*
X294738Y304524D01*
X294773Y304427D01*
X294786Y304411D01*
X294794Y304393D01*
X294899Y304262D01*
X295981Y303179D01*
X298959Y295990D01*
X298959Y288210D01*
X295981Y281021D01*
X294899Y279938D01*
X294887Y279922D01*
X294871Y279910D01*
X294815Y279822D01*
X294755Y279739D01*
X294749Y279720D01*
X294738Y279703D01*
X294713Y279602D01*
X294683Y279503D01*
X294683Y279484D01*
X294678Y279464D01*
X294686Y279361D01*
X294689Y279258D01*
X294696Y279239D01*
X294697Y279219D01*
X294738Y279124D01*
X294773Y279027D01*
X294786Y279011D01*
X294794Y278993D01*
X294899Y278862D01*
X295981Y277779D01*
X298959Y270590D01*
X298959Y262810D01*
X295981Y255621D01*
X294899Y254538D01*
X294887Y254522D01*
X294871Y254510D01*
X294843Y254466D01*
X294809Y254430D01*
X294788Y254385D01*
X294755Y254339D01*
X294749Y254320D01*
X294738Y254303D01*
X294724Y254247D01*
X294706Y254207D01*
X294701Y254162D01*
X294683Y254103D01*
X294683Y254084D01*
X294678Y254064D01*
X294683Y254003D01*
X294679Y253963D01*
X294687Y253922D01*
X294689Y253858D01*
X294696Y253839D01*
X294697Y253819D01*
X294723Y253759D01*
X294731Y253722D01*
X294751Y253689D01*
X294773Y253627D01*
X294786Y253611D01*
X294794Y253593D01*
X294851Y253521D01*
X294857Y253511D01*
X294863Y253506D01*
X294899Y253462D01*
X295981Y252379D01*
X298959Y245190D01*
X298959Y237410D01*
X295981Y230221D01*
X294899Y229138D01*
X294887Y229122D01*
X294871Y229110D01*
X294815Y229022D01*
X294755Y228939D01*
X294749Y228920D01*
X294738Y228903D01*
X294713Y228802D01*
X294683Y228703D01*
X294683Y228684D01*
X294678Y228664D01*
X294686Y228561D01*
X294689Y228458D01*
X294696Y228439D01*
X294697Y228419D01*
X294738Y228324D01*
X294773Y228227D01*
X294786Y228211D01*
X294794Y228193D01*
X294899Y228062D01*
X295981Y226979D01*
X298959Y219790D01*
X298959Y212010D01*
X295981Y204821D01*
X294899Y203738D01*
X294887Y203722D01*
X294871Y203710D01*
X294815Y203622D01*
X294755Y203539D01*
X294749Y203520D01*
X294738Y203503D01*
X294713Y203402D01*
X294683Y203303D01*
X294683Y203284D01*
X294678Y203264D01*
X294686Y203161D01*
X294689Y203058D01*
X294696Y203039D01*
X294697Y203019D01*
X294738Y202924D01*
X294773Y202827D01*
X294786Y202811D01*
X294794Y202793D01*
X294899Y202662D01*
X295981Y201579D01*
X298959Y194390D01*
X298959Y186610D01*
X295981Y179421D01*
X294899Y178338D01*
X294887Y178322D01*
X294871Y178310D01*
X294815Y178222D01*
X294755Y178139D01*
X294749Y178120D01*
X294738Y178103D01*
X294713Y178002D01*
X294683Y177903D01*
X294683Y177884D01*
X294678Y177864D01*
X294686Y177761D01*
X294689Y177658D01*
X294696Y177639D01*
X294697Y177619D01*
X294738Y177524D01*
X294773Y177427D01*
X294786Y177411D01*
X294794Y177393D01*
X294899Y177262D01*
X295981Y176179D01*
X298959Y168990D01*
X298959Y161210D01*
X295981Y154021D01*
X294899Y152938D01*
X294887Y152922D01*
X294871Y152910D01*
X294815Y152822D01*
X294755Y152739D01*
X294749Y152720D01*
X294738Y152703D01*
X294713Y152602D01*
X294683Y152503D01*
X294683Y152484D01*
X294678Y152464D01*
X294686Y152361D01*
X294689Y152258D01*
X294696Y152239D01*
X294697Y152219D01*
X294738Y152124D01*
X294773Y152027D01*
X294786Y152011D01*
X294794Y151993D01*
X294899Y151862D01*
X295981Y150779D01*
X298959Y143590D01*
X298959Y135810D01*
X295981Y128621D01*
X294899Y127538D01*
X294887Y127522D01*
X294871Y127510D01*
X294815Y127422D01*
X294755Y127339D01*
X294749Y127320D01*
X294738Y127303D01*
X294713Y127202D01*
X294683Y127103D01*
X294683Y127084D01*
X294678Y127064D01*
X294686Y126961D01*
X294689Y126858D01*
X294696Y126839D01*
X294697Y126819D01*
X294738Y126724D01*
X294773Y126627D01*
X294786Y126611D01*
X294794Y126593D01*
X294899Y126462D01*
X295981Y125379D01*
X298959Y118190D01*
X298959Y110410D01*
X295981Y103221D01*
X294899Y102138D01*
X294887Y102122D01*
X294871Y102110D01*
X294815Y102022D01*
X294755Y101939D01*
X294749Y101920D01*
X294738Y101903D01*
X294713Y101802D01*
X294683Y101703D01*
X294683Y101684D01*
X294678Y101664D01*
X294686Y101561D01*
X294689Y101458D01*
X294696Y101439D01*
X294697Y101419D01*
X294738Y101324D01*
X294773Y101227D01*
X294786Y101211D01*
X294794Y101193D01*
X294899Y101062D01*
X295981Y99979D01*
X298959Y92790D01*
X298959Y85010D01*
X295981Y77821D01*
X290479Y72319D01*
X289273Y71819D01*
X289180Y71762D01*
X289086Y71708D01*
X289076Y71697D01*
X289064Y71690D01*
X288994Y71606D01*
X288922Y71524D01*
X288917Y71511D01*
X288907Y71500D01*
X288868Y71399D01*
X288825Y71298D01*
X288824Y71284D01*
X288819Y71271D01*
X288815Y71162D01*
X288806Y71053D01*
X288809Y71039D01*
X288809Y71025D01*
X288839Y70920D01*
X288866Y70814D01*
X288874Y70799D01*
X288877Y70789D01*
X288894Y70765D01*
X288949Y70669D01*
X289611Y69757D01*
X290464Y68083D01*
X291045Y66296D01*
X291246Y65023D01*
X280162Y65023D01*
X280142Y65020D01*
X280123Y65022D01*
X280021Y65000D01*
X279919Y64983D01*
X279902Y64974D01*
X279882Y64970D01*
X279793Y64917D01*
X279702Y64868D01*
X279688Y64854D01*
X279671Y64844D01*
X279604Y64765D01*
X279533Y64690D01*
X279524Y64672D01*
X279511Y64657D01*
X279473Y64561D01*
X279429Y64467D01*
X279427Y64447D01*
X279419Y64429D01*
X279401Y64262D01*
X279401Y62738D01*
X279404Y62718D01*
X279402Y62699D01*
X279424Y62597D01*
X279441Y62495D01*
X279450Y62478D01*
X279454Y62458D01*
X279507Y62369D01*
X279556Y62278D01*
X279570Y62264D01*
X279580Y62247D01*
X279659Y62180D01*
X279734Y62109D01*
X279752Y62100D01*
X279767Y62087D01*
X279863Y62048D01*
X279957Y62005D01*
X279977Y62003D01*
X279995Y61995D01*
X280162Y61977D01*
X291246Y61977D01*
X291045Y60704D01*
X290464Y58917D01*
X289611Y57243D01*
X288949Y56331D01*
X288900Y56234D01*
X288847Y56138D01*
X288845Y56124D01*
X288838Y56112D01*
X288823Y56004D01*
X288803Y55896D01*
X288806Y55882D01*
X288804Y55868D01*
X288823Y55761D01*
X288839Y55653D01*
X288846Y55640D01*
X288848Y55626D01*
X288901Y55531D01*
X288951Y55434D01*
X288961Y55424D01*
X288968Y55411D01*
X289048Y55338D01*
X289126Y55261D01*
X289142Y55253D01*
X289150Y55246D01*
X289176Y55234D01*
X289273Y55181D01*
X290479Y54681D01*
X295981Y49179D01*
X298959Y41990D01*
X298959Y34210D01*
X295981Y27021D01*
X291608Y22647D01*
X291552Y22570D01*
X291491Y22497D01*
X291481Y22471D01*
X291464Y22448D01*
X291436Y22357D01*
X291401Y22268D01*
X291400Y22240D01*
X291392Y22213D01*
X291394Y22117D01*
X291390Y22022D01*
X291397Y21995D01*
X291398Y21967D01*
X291431Y21877D01*
X291457Y21786D01*
X291473Y21762D01*
X291483Y21736D01*
X291542Y21661D01*
X291596Y21583D01*
X291619Y21566D01*
X291636Y21544D01*
X291717Y21492D01*
X291793Y21435D01*
X291826Y21422D01*
X291843Y21411D01*
X291875Y21403D01*
X291949Y21374D01*
X293358Y20996D01*
X301603Y16236D01*
X308336Y9503D01*
X313096Y1258D01*
X313963Y-1975D01*
X313981Y-2015D01*
X313990Y-2058D01*
X314031Y-2126D01*
X314064Y-2199D01*
X314094Y-2231D01*
X314116Y-2269D01*
X314177Y-2321D01*
X314231Y-2379D01*
X314270Y-2400D01*
X314303Y-2429D01*
X314377Y-2459D01*
X314447Y-2497D01*
X314491Y-2504D01*
X314531Y-2521D01*
X314676Y-2537D01*
X314690Y-2539D01*
X314693Y-2539D01*
X314698Y-2539D01*
X328339Y-2539D01*
X328435Y-2524D01*
X328532Y-2514D01*
X328556Y-2504D01*
X328582Y-2500D01*
X328668Y-2454D01*
X328757Y-2414D01*
X328776Y-2397D01*
X328799Y-2384D01*
X328866Y-2314D01*
X328938Y-2248D01*
X328950Y-2225D01*
X328969Y-2206D01*
X329010Y-2118D01*
X329056Y-2032D01*
X329061Y-2007D01*
X329072Y-1983D01*
X329083Y-1886D01*
X329100Y-1790D01*
X329096Y-1764D01*
X329099Y-1739D01*
X329079Y-1643D01*
X329064Y-1547D01*
X329053Y-1524D01*
X329047Y-1498D01*
X328997Y-1415D01*
X328953Y-1328D01*
X328934Y-1309D01*
X328921Y-1287D01*
X328847Y-1224D01*
X328777Y-1156D01*
X328749Y-1140D01*
X328734Y-1127D01*
X328703Y-1115D01*
X328630Y-1075D01*
X321915Y1707D01*
X316413Y7209D01*
X313435Y14398D01*
X313435Y22178D01*
X316413Y29367D01*
X321915Y34869D01*
X329104Y37847D01*
X336884Y37847D01*
X344073Y34869D01*
X349575Y29367D01*
X352553Y22178D01*
X352553Y14398D01*
X349575Y7209D01*
X344073Y1707D01*
X337358Y-1075D01*
X337275Y-1126D01*
X337189Y-1172D01*
X337171Y-1190D01*
X337149Y-1204D01*
X337086Y-1280D01*
X337019Y-1350D01*
X337008Y-1374D01*
X336992Y-1394D01*
X336957Y-1485D01*
X336916Y-1573D01*
X336913Y-1599D01*
X336904Y-1623D01*
X336899Y-1721D01*
X336889Y-1817D01*
X336894Y-1843D01*
X336893Y-1869D01*
X336920Y-1963D01*
X336941Y-2058D01*
X336954Y-2080D01*
X336962Y-2105D01*
X337017Y-2185D01*
X337067Y-2269D01*
X337087Y-2286D01*
X337102Y-2307D01*
X337180Y-2366D01*
X337254Y-2429D01*
X337278Y-2439D01*
X337299Y-2454D01*
X337392Y-2484D01*
X337482Y-2521D01*
X337515Y-2524D01*
X337533Y-2530D01*
X337566Y-2530D01*
X337649Y-2539D01*
X480739Y-2539D01*
X480835Y-2524D01*
X480932Y-2514D01*
X480956Y-2504D01*
X480982Y-2500D01*
X481068Y-2454D01*
X481157Y-2414D01*
X481176Y-2397D01*
X481199Y-2384D01*
X481266Y-2314D01*
X481338Y-2248D01*
X481350Y-2225D01*
X481369Y-2206D01*
X481410Y-2118D01*
X481456Y-2032D01*
X481461Y-2007D01*
X481472Y-1983D01*
X481483Y-1886D01*
X481500Y-1790D01*
X481496Y-1764D01*
X481499Y-1739D01*
X481479Y-1643D01*
X481464Y-1547D01*
X481453Y-1524D01*
X481447Y-1498D01*
X481397Y-1415D01*
X481353Y-1328D01*
X481334Y-1309D01*
X481321Y-1287D01*
X481247Y-1224D01*
X481177Y-1156D01*
X481149Y-1140D01*
X481134Y-1127D01*
X481103Y-1115D01*
X481030Y-1075D01*
X474315Y1707D01*
X468813Y7209D01*
X465835Y14398D01*
X465835Y22178D01*
X468813Y29367D01*
X474315Y34869D01*
X481504Y37847D01*
X489284Y37847D01*
X496473Y34869D01*
X501975Y29367D01*
X504953Y22178D01*
X504953Y14398D01*
X501975Y7209D01*
X496473Y1707D01*
X489758Y-1075D01*
X489675Y-1126D01*
X489589Y-1172D01*
X489571Y-1190D01*
X489549Y-1204D01*
X489486Y-1280D01*
X489419Y-1350D01*
X489408Y-1374D01*
X489392Y-1394D01*
X489357Y-1485D01*
X489316Y-1573D01*
X489313Y-1599D01*
X489304Y-1623D01*
X489299Y-1721D01*
X489289Y-1817D01*
X489294Y-1843D01*
X489293Y-1869D01*
X489320Y-1963D01*
X489341Y-2058D01*
X489354Y-2080D01*
X489362Y-2105D01*
X489417Y-2185D01*
X489467Y-2269D01*
X489487Y-2286D01*
X489502Y-2307D01*
X489580Y-2366D01*
X489654Y-2429D01*
X489678Y-2439D01*
X489699Y-2454D01*
X489792Y-2484D01*
X489882Y-2521D01*
X489915Y-2524D01*
X489933Y-2530D01*
X489966Y-2530D01*
X490049Y-2539D01*
X536976Y-2539D01*
X537066Y-2525D01*
X537157Y-2517D01*
X537187Y-2505D01*
X537219Y-2500D01*
X537299Y-2457D01*
X537383Y-2421D01*
X537415Y-2395D01*
X537436Y-2384D01*
X537458Y-2361D01*
X537514Y-2316D01*
X561116Y21286D01*
X561159Y21345D01*
X561204Y21393D01*
X561212Y21410D01*
X561229Y21429D01*
X561241Y21459D01*
X561260Y21486D01*
X561284Y21565D01*
X561308Y21616D01*
X561309Y21629D01*
X561321Y21657D01*
X561325Y21698D01*
X561332Y21721D01*
X561331Y21753D01*
X561339Y21824D01*
X561339Y244102D01*
X561332Y244145D01*
X561334Y244189D01*
X561312Y244266D01*
X561300Y244345D01*
X561279Y244383D01*
X561267Y244426D01*
X561222Y244492D01*
X561184Y244562D01*
X561153Y244592D01*
X561128Y244629D01*
X561064Y244677D01*
X561006Y244732D01*
X560967Y244750D01*
X560959Y244757D01*
X560956Y244758D01*
X560931Y244776D01*
X560795Y244829D01*
X560783Y244835D01*
X560780Y244836D01*
X560775Y244837D01*
X557542Y245704D01*
X549297Y250464D01*
X542564Y257197D01*
X537804Y265442D01*
X535339Y274639D01*
X535339Y284161D01*
X537804Y293358D01*
X542564Y301603D01*
X549297Y308336D01*
X557542Y313096D01*
X560775Y313963D01*
X560815Y313981D01*
X560858Y313990D01*
X560926Y314031D01*
X560999Y314064D01*
X561031Y314094D01*
X561069Y314116D01*
X561121Y314177D01*
X561179Y314231D01*
X561200Y314270D01*
X561229Y314303D01*
X561259Y314377D01*
X561297Y314447D01*
X561304Y314491D01*
X561321Y314531D01*
X561337Y314676D01*
X561339Y314690D01*
X561339Y314693D01*
X561339Y314698D01*
X561339Y536976D01*
X561325Y537066D01*
X561317Y537157D01*
X561305Y537187D01*
X561300Y537219D01*
X561257Y537299D01*
X561221Y537383D01*
X561195Y537415D01*
X561184Y537436D01*
X561161Y537458D01*
X561116Y537514D01*
X537514Y561116D01*
X537440Y561169D01*
X537371Y561229D01*
X537341Y561241D01*
X537314Y561260D01*
X537228Y561287D01*
X537143Y561321D01*
X537102Y561325D01*
X537079Y561332D01*
X537047Y561331D01*
X536976Y561339D01*
X490049Y561339D01*
X489953Y561324D01*
X489856Y561314D01*
X489832Y561304D01*
X489806Y561300D01*
X489720Y561254D01*
X489631Y561214D01*
X489612Y561197D01*
X489589Y561184D01*
X489522Y561114D01*
X489450Y561048D01*
X489437Y561025D01*
X489419Y561006D01*
X489379Y560918D01*
X489332Y560832D01*
X489327Y560807D01*
X489316Y560783D01*
X489305Y560686D01*
X489288Y560590D01*
X489292Y560564D01*
X489289Y560539D01*
X489309Y560443D01*
X489324Y560347D01*
X489335Y560324D01*
X489341Y560298D01*
X489391Y560215D01*
X489435Y560128D01*
X489454Y560109D01*
X489467Y560087D01*
X489541Y560024D01*
X489611Y559956D01*
X489639Y559940D01*
X489654Y559927D01*
X489685Y559915D01*
X489758Y559875D01*
X496473Y557093D01*
X501975Y551591D01*
X504953Y544402D01*
X504953Y536622D01*
X501975Y529433D01*
X496473Y523931D01*
X489284Y520953D01*
X481504Y520953D01*
X474315Y523931D01*
X468813Y529433D01*
X465835Y536622D01*
X465835Y544402D01*
X468813Y551591D01*
X474315Y557093D01*
X481030Y559875D01*
X481113Y559926D01*
X481199Y559972D01*
X481217Y559991D01*
X481239Y560004D01*
X481302Y560079D01*
X481369Y560150D01*
X481380Y560174D01*
X481396Y560194D01*
X481431Y560285D01*
X481472Y560373D01*
X481475Y560399D01*
X481484Y560423D01*
X481489Y560521D01*
X481499Y560617D01*
X481494Y560643D01*
X481495Y560669D01*
X481468Y560763D01*
X481447Y560858D01*
X481434Y560880D01*
X481426Y560905D01*
X481371Y560985D01*
X481321Y561069D01*
X481301Y561086D01*
X481286Y561107D01*
X481208Y561166D01*
X481134Y561229D01*
X481110Y561239D01*
X481089Y561254D01*
X480996Y561284D01*
X480906Y561321D01*
X480873Y561324D01*
X480855Y561330D01*
X480822Y561330D01*
X480739Y561339D01*
X337649Y561339D01*
X337553Y561324D01*
X337456Y561314D01*
X337432Y561304D01*
X337406Y561300D01*
X337320Y561254D01*
X337231Y561214D01*
X337212Y561197D01*
X337189Y561184D01*
X337122Y561114D01*
X337050Y561048D01*
X337037Y561025D01*
X337019Y561006D01*
X336979Y560918D01*
X336932Y560832D01*
X336927Y560807D01*
X336916Y560783D01*
X336905Y560686D01*
X336888Y560590D01*
X336892Y560564D01*
X336889Y560539D01*
X336909Y560443D01*
X336924Y560347D01*
X336935Y560324D01*
X336941Y560298D01*
X336991Y560215D01*
X337035Y560128D01*
X337054Y560109D01*
X337067Y560087D01*
X337141Y560024D01*
X337211Y559956D01*
X337239Y559940D01*
X337254Y559927D01*
X337285Y559915D01*
X337358Y559875D01*
X344073Y557093D01*
X349575Y551591D01*
X352553Y544402D01*
X352553Y536622D01*
X349575Y529433D01*
X344073Y523931D01*
X336884Y520953D01*
X329104Y520953D01*
X321915Y523931D01*
X316413Y529433D01*
X313435Y536622D01*
X313435Y544402D01*
X316413Y551591D01*
X321915Y557093D01*
X328630Y559875D01*
X328713Y559926D01*
X328799Y559972D01*
X328817Y559991D01*
X328839Y560004D01*
X328902Y560079D01*
X328969Y560150D01*
X328980Y560174D01*
X328996Y560194D01*
X329031Y560285D01*
X329072Y560373D01*
X329075Y560399D01*
X329084Y560423D01*
X329089Y560521D01*
X329099Y560617D01*
X329094Y560643D01*
X329095Y560669D01*
X329068Y560763D01*
X329047Y560858D01*
X329034Y560880D01*
X329026Y560905D01*
X328971Y560985D01*
X328921Y561069D01*
X328901Y561086D01*
X328886Y561107D01*
X328808Y561166D01*
X328734Y561229D01*
X328710Y561239D01*
X328689Y561254D01*
X328596Y561284D01*
X328506Y561321D01*
X328473Y561324D01*
X328455Y561330D01*
X328422Y561330D01*
X328339Y561339D01*
X314698Y561339D01*
X314655Y561332D01*
X314611Y561334D01*
X314534Y561312D01*
X314455Y561300D01*
X314417Y561279D01*
X314374Y561267D01*
X314308Y561222D01*
X314238Y561184D01*
X314208Y561153D01*
X314171Y561128D01*
X314123Y561064D01*
X314068Y561006D01*
X314050Y560966D01*
X314024Y560931D01*
X313971Y560795D01*
X313965Y560783D01*
X313964Y560780D01*
X313963Y560775D01*
X313096Y557542D01*
X308336Y549297D01*
X301603Y542564D01*
X293358Y537804D01*
X284161Y535339D01*
X274639Y535339D01*
X265442Y537804D01*
X257197Y542564D01*
X250464Y549297D01*
X245704Y557542D01*
X244837Y560775D01*
X244819Y560815D01*
X244810Y560858D01*
X244769Y560926D01*
X244736Y560999D01*
X244706Y561031D01*
X244684Y561069D01*
X244623Y561121D01*
X244569Y561179D01*
X244530Y561200D01*
X244497Y561229D01*
X244423Y561259D01*
X244353Y561297D01*
X244309Y561304D01*
X244269Y561321D01*
X244124Y561337D01*
X244110Y561339D01*
X244107Y561339D01*
X244102Y561339D01*
X230461Y561339D01*
X230365Y561324D01*
X230268Y561314D01*
X230244Y561304D01*
X230218Y561300D01*
X230132Y561254D01*
X230043Y561214D01*
X230024Y561197D01*
X230001Y561184D01*
X229934Y561114D01*
X229862Y561048D01*
X229849Y561025D01*
X229831Y561006D01*
X229791Y560918D01*
X229744Y560832D01*
X229739Y560807D01*
X229728Y560783D01*
X229717Y560686D01*
X229700Y560590D01*
X229704Y560564D01*
X229701Y560539D01*
X229721Y560443D01*
X229736Y560347D01*
X229747Y560324D01*
X229753Y560298D01*
X229803Y560215D01*
X229847Y560128D01*
X229866Y560109D01*
X229879Y560087D01*
X229953Y560024D01*
X230023Y559956D01*
X230051Y559940D01*
X230066Y559927D01*
X230097Y559915D01*
X230170Y559875D01*
X236885Y557093D01*
X242387Y551591D01*
X245365Y544402D01*
X245365Y536622D01*
X242387Y529433D01*
X236885Y523931D01*
X229696Y520953D01*
X221916Y520953D01*
X214727Y523931D01*
X209225Y529433D01*
X206247Y536622D01*
X206247Y544402D01*
X209225Y551591D01*
X214727Y557093D01*
X221442Y559875D01*
X221525Y559926D01*
X221611Y559972D01*
X221629Y559991D01*
X221651Y560004D01*
X221714Y560079D01*
X221781Y560150D01*
X221792Y560174D01*
X221808Y560194D01*
X221843Y560285D01*
X221884Y560373D01*
X221887Y560399D01*
X221896Y560423D01*
X221901Y560521D01*
X221911Y560617D01*
X221906Y560643D01*
X221907Y560669D01*
X221880Y560763D01*
X221859Y560858D01*
X221846Y560880D01*
X221838Y560905D01*
X221783Y560985D01*
X221733Y561069D01*
X221713Y561086D01*
X221698Y561107D01*
X221620Y561166D01*
X221546Y561229D01*
X221522Y561239D01*
X221501Y561254D01*
X221408Y561284D01*
X221318Y561321D01*
X221285Y561324D01*
X221267Y561330D01*
X221234Y561330D01*
X221151Y561339D01*
X78061Y561339D01*
X77965Y561324D01*
X77868Y561314D01*
X77844Y561304D01*
X77818Y561300D01*
X77732Y561254D01*
X77643Y561214D01*
X77624Y561197D01*
X77601Y561184D01*
X77534Y561114D01*
X77462Y561048D01*
X77449Y561025D01*
X77431Y561006D01*
X77391Y560918D01*
X77344Y560832D01*
X77339Y560807D01*
X77328Y560783D01*
X77317Y560686D01*
X77300Y560590D01*
X77304Y560564D01*
X77301Y560539D01*
X77321Y560443D01*
X77336Y560347D01*
X77347Y560324D01*
X77353Y560298D01*
X77403Y560215D01*
X77447Y560128D01*
X77466Y560109D01*
X77479Y560087D01*
X77553Y560024D01*
X77623Y559956D01*
X77651Y559940D01*
X77666Y559927D01*
X77697Y559915D01*
X77770Y559875D01*
X84485Y557093D01*
X89987Y551591D01*
X92965Y544402D01*
X92965Y536622D01*
X89987Y529433D01*
X84485Y523931D01*
X77296Y520953D01*
X69516Y520953D01*
X62327Y523931D01*
X56825Y529433D01*
X53847Y536622D01*
X53847Y544402D01*
X56825Y551591D01*
X62327Y557093D01*
X69042Y559875D01*
X69125Y559926D01*
X69211Y559972D01*
X69229Y559991D01*
X69251Y560004D01*
X69314Y560079D01*
X69381Y560150D01*
X69392Y560174D01*
X69408Y560194D01*
X69443Y560285D01*
X69484Y560373D01*
X69487Y560399D01*
X69496Y560423D01*
X69501Y560521D01*
X69511Y560617D01*
X69506Y560643D01*
X69507Y560669D01*
X69480Y560763D01*
X69459Y560858D01*
X69446Y560880D01*
X69438Y560905D01*
X69383Y560985D01*
X69333Y561069D01*
X69313Y561086D01*
X69298Y561107D01*
X69220Y561166D01*
X69146Y561229D01*
X69122Y561239D01*
X69101Y561254D01*
X69008Y561284D01*
X68918Y561321D01*
X68885Y561324D01*
X68867Y561330D01*
X68834Y561330D01*
X68751Y561339D01*
X21824Y561339D01*
X21734Y561325D01*
X21643Y561317D01*
X21613Y561305D01*
X21581Y561300D01*
X21501Y561257D01*
X21417Y561221D01*
X21385Y561195D01*
X21364Y561184D01*
X21342Y561161D01*
X21286Y561116D01*
X-2316Y537514D01*
X-2369Y537440D01*
X-2429Y537371D01*
X-2441Y537341D01*
X-2460Y537314D01*
X-2487Y537228D01*
X-2521Y537143D01*
X-2525Y537102D01*
X-2532Y537079D01*
X-2531Y537047D01*
X-2539Y536976D01*
X-2539Y314698D01*
X-2532Y314655D01*
X-2534Y314611D01*
X-2512Y314534D01*
X-2500Y314455D01*
X-2479Y314417D01*
X-2467Y314374D01*
X-2422Y314308D01*
X-2384Y314238D01*
X-2353Y314208D01*
X-2328Y314171D01*
X-2264Y314123D01*
X-2206Y314068D01*
X-2166Y314050D01*
X-2131Y314024D01*
X-1995Y313971D01*
X-1983Y313965D01*
X-1980Y313964D01*
X-1975Y313963D01*
X1258Y313096D01*
X9503Y308336D01*
X16236Y301603D01*
X20996Y293358D01*
X23461Y284161D01*
X23461Y274639D01*
X20996Y265442D01*
X16236Y257197D01*
X9503Y250464D01*
X1258Y245704D01*
X-1975Y244837D01*
X-1992Y244830D01*
X-2007Y244827D01*
X-2027Y244817D01*
X-2058Y244810D01*
X-2126Y244769D01*
X-2199Y244736D01*
X-2231Y244706D01*
X-2269Y244684D01*
X-2321Y244623D01*
X-2379Y244569D01*
X-2400Y244530D01*
X-2429Y244497D01*
X-2459Y244423D01*
X-2497Y244353D01*
X-2504Y244309D01*
X-2521Y244269D01*
X-2537Y244124D01*
X-2539Y244110D01*
X-2539Y244107D01*
X-2539Y244102D01*
X-2539Y21824D01*
X-2534Y21791D01*
X-2535Y21781D01*
X-2524Y21733D01*
X-2517Y21643D01*
X-2505Y21613D01*
X-2500Y21581D01*
X-2486Y21556D01*
X-2483Y21541D01*
X-2452Y21490D01*
X-2421Y21417D01*
X-2395Y21385D01*
X-2384Y21364D01*
X-2367Y21347D01*
X-2357Y21330D01*
X-2341Y21316D01*
X-2316Y21286D01*
X21286Y-2316D01*
X21360Y-2369D01*
X21429Y-2429D01*
X21459Y-2441D01*
X21485Y-2460D01*
X21572Y-2487D01*
X21657Y-2521D01*
X21698Y-2525D01*
X21721Y-2532D01*
X21753Y-2531D01*
X21824Y-2539D01*
X68751Y-2539D01*
X68847Y-2524D01*
G37*
%LPC*%
G36*
X126999Y114299D02*
X126999Y114299D01*
X126999Y115062D01*
X126996Y115082D01*
X126998Y115101D01*
X126976Y115203D01*
X126959Y115305D01*
X126950Y115322D01*
X126946Y115342D01*
X126893Y115431D01*
X126844Y115522D01*
X126830Y115536D01*
X126820Y115553D01*
X126741Y115620D01*
X126666Y115691D01*
X126648Y115700D01*
X126633Y115713D01*
X126537Y115752D01*
X126443Y115795D01*
X126423Y115797D01*
X126405Y115805D01*
X126238Y115823D01*
X115154Y115823D01*
X115355Y117096D01*
X115936Y118883D01*
X116789Y120557D01*
X117451Y121469D01*
X117500Y121566D01*
X117553Y121662D01*
X117555Y121676D01*
X117562Y121688D01*
X117577Y121796D01*
X117597Y121904D01*
X117594Y121918D01*
X117596Y121932D01*
X117577Y122039D01*
X117561Y122147D01*
X117554Y122160D01*
X117552Y122174D01*
X117499Y122269D01*
X117449Y122366D01*
X117439Y122376D01*
X117432Y122389D01*
X117352Y122462D01*
X117274Y122539D01*
X117258Y122547D01*
X117250Y122554D01*
X117224Y122566D01*
X117127Y122619D01*
X115921Y123119D01*
X110419Y128621D01*
X107441Y135810D01*
X107441Y143590D01*
X110419Y150779D01*
X111501Y151862D01*
X111513Y151878D01*
X111529Y151890D01*
X111585Y151978D01*
X111645Y152061D01*
X111651Y152080D01*
X111662Y152097D01*
X111687Y152198D01*
X111717Y152297D01*
X111717Y152316D01*
X111722Y152336D01*
X111714Y152439D01*
X111711Y152542D01*
X111704Y152561D01*
X111703Y152581D01*
X111662Y152676D01*
X111627Y152773D01*
X111614Y152789D01*
X111606Y152807D01*
X111501Y152938D01*
X110419Y154021D01*
X107441Y161210D01*
X107441Y168990D01*
X110419Y176179D01*
X111501Y177262D01*
X111513Y177278D01*
X111529Y177290D01*
X111585Y177378D01*
X111645Y177461D01*
X111651Y177480D01*
X111662Y177497D01*
X111687Y177598D01*
X111717Y177697D01*
X111717Y177716D01*
X111722Y177736D01*
X111714Y177839D01*
X111711Y177942D01*
X111704Y177961D01*
X111703Y177981D01*
X111662Y178076D01*
X111627Y178173D01*
X111614Y178189D01*
X111606Y178207D01*
X111501Y178338D01*
X110419Y179421D01*
X107441Y186610D01*
X107441Y194390D01*
X110419Y201579D01*
X111501Y202662D01*
X111513Y202678D01*
X111529Y202690D01*
X111585Y202778D01*
X111645Y202861D01*
X111651Y202880D01*
X111662Y202897D01*
X111687Y202998D01*
X111717Y203097D01*
X111717Y203116D01*
X111722Y203136D01*
X111714Y203239D01*
X111711Y203342D01*
X111704Y203361D01*
X111703Y203381D01*
X111662Y203476D01*
X111627Y203573D01*
X111614Y203589D01*
X111606Y203607D01*
X111501Y203738D01*
X110419Y204821D01*
X107441Y212010D01*
X107441Y219790D01*
X110419Y226979D01*
X111501Y228062D01*
X111513Y228078D01*
X111529Y228090D01*
X111585Y228178D01*
X111645Y228261D01*
X111651Y228280D01*
X111662Y228297D01*
X111687Y228398D01*
X111717Y228497D01*
X111717Y228516D01*
X111722Y228536D01*
X111714Y228639D01*
X111711Y228742D01*
X111704Y228761D01*
X111703Y228781D01*
X111662Y228876D01*
X111627Y228973D01*
X111614Y228989D01*
X111606Y229007D01*
X111501Y229138D01*
X110419Y230221D01*
X107441Y237410D01*
X107441Y245190D01*
X110419Y252379D01*
X111501Y253462D01*
X111513Y253478D01*
X111529Y253490D01*
X111565Y253547D01*
X111591Y253574D01*
X111606Y253607D01*
X111645Y253661D01*
X111651Y253680D01*
X111662Y253697D01*
X111678Y253762D01*
X111694Y253797D01*
X111699Y253835D01*
X111717Y253897D01*
X111717Y253916D01*
X111722Y253936D01*
X111717Y254000D01*
X111721Y254041D01*
X111713Y254082D01*
X111711Y254142D01*
X111704Y254161D01*
X111703Y254181D01*
X111679Y254236D01*
X111669Y254282D01*
X111646Y254321D01*
X111627Y254373D01*
X111614Y254389D01*
X111606Y254407D01*
X111558Y254467D01*
X111543Y254493D01*
X111526Y254507D01*
X111501Y254538D01*
X110419Y255621D01*
X107441Y262810D01*
X107441Y270590D01*
X110419Y277779D01*
X111501Y278862D01*
X111513Y278878D01*
X111529Y278890D01*
X111585Y278978D01*
X111645Y279061D01*
X111651Y279080D01*
X111662Y279097D01*
X111687Y279198D01*
X111717Y279297D01*
X111717Y279316D01*
X111722Y279336D01*
X111714Y279439D01*
X111711Y279542D01*
X111704Y279561D01*
X111703Y279581D01*
X111662Y279676D01*
X111627Y279773D01*
X111614Y279789D01*
X111606Y279807D01*
X111501Y279938D01*
X110419Y281021D01*
X107441Y288210D01*
X107441Y295990D01*
X110419Y303179D01*
X111501Y304262D01*
X111513Y304278D01*
X111529Y304290D01*
X111585Y304378D01*
X111645Y304461D01*
X111651Y304480D01*
X111662Y304497D01*
X111687Y304598D01*
X111717Y304697D01*
X111717Y304716D01*
X111722Y304736D01*
X111714Y304839D01*
X111711Y304942D01*
X111704Y304961D01*
X111703Y304981D01*
X111662Y305076D01*
X111627Y305173D01*
X111614Y305189D01*
X111606Y305207D01*
X111501Y305338D01*
X110419Y306421D01*
X107441Y313610D01*
X107441Y321390D01*
X110419Y328579D01*
X115921Y334081D01*
X123110Y337059D01*
X130890Y337059D01*
X138079Y334081D01*
X143581Y328579D01*
X146559Y321390D01*
X146559Y313610D01*
X143581Y306421D01*
X142499Y305338D01*
X142487Y305322D01*
X142471Y305310D01*
X142415Y305222D01*
X142355Y305139D01*
X142349Y305120D01*
X142338Y305103D01*
X142313Y305002D01*
X142283Y304903D01*
X142283Y304884D01*
X142278Y304864D01*
X142286Y304761D01*
X142289Y304658D01*
X142296Y304639D01*
X142297Y304619D01*
X142338Y304524D01*
X142373Y304427D01*
X142386Y304411D01*
X142394Y304393D01*
X142499Y304262D01*
X143581Y303179D01*
X146559Y295990D01*
X146559Y288210D01*
X143581Y281021D01*
X142499Y279938D01*
X142487Y279922D01*
X142471Y279910D01*
X142415Y279822D01*
X142355Y279739D01*
X142349Y279720D01*
X142338Y279703D01*
X142313Y279602D01*
X142283Y279503D01*
X142283Y279484D01*
X142278Y279464D01*
X142286Y279361D01*
X142289Y279258D01*
X142296Y279239D01*
X142297Y279219D01*
X142338Y279124D01*
X142373Y279027D01*
X142386Y279011D01*
X142394Y278993D01*
X142499Y278862D01*
X143581Y277779D01*
X146559Y270590D01*
X146559Y262810D01*
X143581Y255621D01*
X142499Y254538D01*
X142487Y254522D01*
X142471Y254510D01*
X142443Y254465D01*
X142409Y254430D01*
X142388Y254385D01*
X142355Y254339D01*
X142349Y254320D01*
X142338Y254303D01*
X142324Y254247D01*
X142306Y254207D01*
X142301Y254162D01*
X142283Y254103D01*
X142283Y254084D01*
X142278Y254064D01*
X142283Y254003D01*
X142279Y253963D01*
X142287Y253923D01*
X142289Y253858D01*
X142296Y253839D01*
X142297Y253819D01*
X142323Y253759D01*
X142331Y253722D01*
X142350Y253689D01*
X142373Y253627D01*
X142386Y253611D01*
X142394Y253593D01*
X142451Y253521D01*
X142457Y253511D01*
X142463Y253506D01*
X142499Y253462D01*
X143581Y252379D01*
X146559Y245190D01*
X146559Y237410D01*
X143581Y230221D01*
X142499Y229138D01*
X142487Y229122D01*
X142471Y229110D01*
X142415Y229022D01*
X142355Y228939D01*
X142349Y228920D01*
X142338Y228903D01*
X142313Y228802D01*
X142283Y228703D01*
X142283Y228684D01*
X142278Y228664D01*
X142286Y228561D01*
X142289Y228458D01*
X142296Y228439D01*
X142297Y228419D01*
X142338Y228324D01*
X142373Y228227D01*
X142386Y228211D01*
X142394Y228193D01*
X142499Y228062D01*
X143581Y226979D01*
X146559Y219790D01*
X146559Y212010D01*
X143581Y204821D01*
X142499Y203738D01*
X142487Y203722D01*
X142471Y203710D01*
X142415Y203622D01*
X142355Y203539D01*
X142349Y203520D01*
X142338Y203503D01*
X142313Y203402D01*
X142283Y203303D01*
X142283Y203284D01*
X142278Y203264D01*
X142286Y203161D01*
X142289Y203058D01*
X142296Y203039D01*
X142297Y203019D01*
X142338Y202924D01*
X142373Y202827D01*
X142386Y202811D01*
X142394Y202793D01*
X142499Y202662D01*
X143581Y201579D01*
X146559Y194390D01*
X146559Y186610D01*
X143581Y179421D01*
X142499Y178338D01*
X142487Y178322D01*
X142471Y178310D01*
X142415Y178222D01*
X142355Y178139D01*
X142349Y178120D01*
X142338Y178103D01*
X142313Y178002D01*
X142283Y177903D01*
X142283Y177884D01*
X142278Y177864D01*
X142286Y177761D01*
X142289Y177658D01*
X142296Y177639D01*
X142297Y177619D01*
X142338Y177524D01*
X142373Y177427D01*
X142386Y177411D01*
X142394Y177393D01*
X142499Y177262D01*
X143581Y176179D01*
X146559Y168990D01*
X146559Y161210D01*
X143581Y154021D01*
X142499Y152938D01*
X142487Y152922D01*
X142471Y152910D01*
X142415Y152822D01*
X142355Y152739D01*
X142349Y152720D01*
X142338Y152703D01*
X142313Y152602D01*
X142283Y152503D01*
X142283Y152484D01*
X142278Y152464D01*
X142286Y152361D01*
X142289Y152258D01*
X142296Y152239D01*
X142297Y152219D01*
X142338Y152124D01*
X142373Y152027D01*
X142386Y152011D01*
X142394Y151993D01*
X142499Y151862D01*
X143581Y150779D01*
X146559Y143590D01*
X146559Y135810D01*
X143581Y128621D01*
X138079Y123119D01*
X136873Y122619D01*
X136780Y122562D01*
X136686Y122508D01*
X136676Y122497D01*
X136664Y122490D01*
X136594Y122405D01*
X136522Y122324D01*
X136517Y122311D01*
X136507Y122300D01*
X136468Y122198D01*
X136425Y122098D01*
X136424Y122084D01*
X136419Y122071D01*
X136415Y121962D01*
X136406Y121853D01*
X136409Y121839D01*
X136409Y121825D01*
X136439Y121720D01*
X136466Y121614D01*
X136474Y121599D01*
X136477Y121589D01*
X136494Y121565D01*
X136549Y121469D01*
X137211Y120557D01*
X138064Y118883D01*
X138645Y117096D01*
X138846Y115823D01*
X127762Y115823D01*
X127742Y115820D01*
X127723Y115822D01*
X127621Y115800D01*
X127519Y115783D01*
X127502Y115774D01*
X127482Y115770D01*
X127393Y115717D01*
X127302Y115668D01*
X127288Y115654D01*
X127271Y115644D01*
X127204Y115565D01*
X127133Y115490D01*
X127124Y115472D01*
X127111Y115457D01*
X127073Y115361D01*
X127029Y115267D01*
X127027Y115247D01*
X127019Y115229D01*
X127001Y115062D01*
X127001Y114299D01*
X126999Y114299D01*
G37*
%LPD*%
%LPC*%
G36*
X504358Y99339D02*
X504358Y99339D01*
X497323Y101224D01*
X491016Y104866D01*
X485866Y110016D01*
X482224Y116323D01*
X480339Y123358D01*
X480339Y130642D01*
X482224Y137677D01*
X485866Y143984D01*
X491016Y149134D01*
X497323Y152776D01*
X504358Y154661D01*
X511642Y154661D01*
X518677Y152776D01*
X524984Y149134D01*
X530134Y143984D01*
X533776Y137677D01*
X535661Y130642D01*
X535661Y123358D01*
X533776Y116323D01*
X530134Y110016D01*
X524984Y104866D01*
X518677Y101224D01*
X511642Y99339D01*
X504358Y99339D01*
G37*
%LPD*%
%LPC*%
G36*
X504358Y404139D02*
X504358Y404139D01*
X497323Y406024D01*
X491016Y409666D01*
X485866Y414816D01*
X482224Y421123D01*
X480339Y428158D01*
X480339Y435442D01*
X482224Y442477D01*
X485866Y448784D01*
X491016Y453934D01*
X497323Y457576D01*
X504358Y459461D01*
X511642Y459461D01*
X518677Y457576D01*
X524984Y453934D01*
X530134Y448784D01*
X533776Y442477D01*
X535661Y435442D01*
X535661Y428158D01*
X533776Y421123D01*
X530134Y414816D01*
X524984Y409666D01*
X518677Y406024D01*
X511642Y404139D01*
X504358Y404139D01*
G37*
%LPD*%
%LPC*%
G36*
X47158Y404139D02*
X47158Y404139D01*
X40123Y406024D01*
X33816Y409666D01*
X28666Y414816D01*
X25024Y421123D01*
X23139Y428158D01*
X23139Y435442D01*
X25024Y442477D01*
X28666Y448784D01*
X33816Y453934D01*
X40123Y457576D01*
X47158Y459461D01*
X54442Y459461D01*
X61477Y457576D01*
X67784Y453934D01*
X72934Y448784D01*
X76576Y442477D01*
X78461Y435442D01*
X78461Y428158D01*
X76576Y421123D01*
X72934Y414816D01*
X67784Y409666D01*
X61477Y406024D01*
X54442Y404139D01*
X47158Y404139D01*
G37*
%LPD*%
%LPC*%
G36*
X47158Y99339D02*
X47158Y99339D01*
X40123Y101224D01*
X33816Y104866D01*
X28666Y110016D01*
X25024Y116323D01*
X23139Y123358D01*
X23139Y130642D01*
X25024Y137677D01*
X28666Y143984D01*
X33816Y149134D01*
X40123Y152776D01*
X47158Y154661D01*
X54442Y154661D01*
X61477Y152776D01*
X67784Y149134D01*
X72934Y143984D01*
X76576Y137677D01*
X78461Y130642D01*
X78461Y123358D01*
X76576Y116323D01*
X72934Y110016D01*
X67784Y104866D01*
X61477Y101224D01*
X54442Y99339D01*
X47158Y99339D01*
G37*
%LPD*%
%LPC*%
G36*
X123110Y18541D02*
X123110Y18541D01*
X115921Y21519D01*
X110419Y27021D01*
X107441Y34210D01*
X107441Y41990D01*
X110419Y49179D01*
X111501Y50262D01*
X111513Y50278D01*
X111529Y50290D01*
X111585Y50378D01*
X111645Y50461D01*
X111651Y50480D01*
X111662Y50497D01*
X111687Y50598D01*
X111717Y50697D01*
X111717Y50716D01*
X111722Y50736D01*
X111714Y50839D01*
X111711Y50942D01*
X111704Y50961D01*
X111703Y50981D01*
X111662Y51076D01*
X111627Y51173D01*
X111614Y51189D01*
X111606Y51207D01*
X111501Y51338D01*
X110419Y52421D01*
X107441Y59610D01*
X107441Y67390D01*
X110419Y74579D01*
X115921Y80081D01*
X117127Y80581D01*
X117220Y80638D01*
X117314Y80692D01*
X117324Y80703D01*
X117336Y80710D01*
X117406Y80794D01*
X117478Y80876D01*
X117483Y80889D01*
X117493Y80900D01*
X117532Y81001D01*
X117575Y81102D01*
X117576Y81116D01*
X117581Y81129D01*
X117585Y81238D01*
X117594Y81347D01*
X117591Y81361D01*
X117591Y81375D01*
X117561Y81480D01*
X117534Y81586D01*
X117526Y81601D01*
X117523Y81611D01*
X117506Y81635D01*
X117451Y81731D01*
X116789Y82643D01*
X115936Y84317D01*
X115355Y86104D01*
X115154Y87377D01*
X126238Y87377D01*
X126258Y87380D01*
X126277Y87378D01*
X126379Y87400D01*
X126481Y87417D01*
X126498Y87426D01*
X126518Y87430D01*
X126607Y87483D01*
X126698Y87532D01*
X126712Y87546D01*
X126729Y87556D01*
X126796Y87635D01*
X126867Y87710D01*
X126876Y87728D01*
X126889Y87743D01*
X126927Y87839D01*
X126971Y87933D01*
X126973Y87953D01*
X126981Y87971D01*
X126999Y88138D01*
X126999Y88901D01*
X127001Y88901D01*
X127001Y88138D01*
X127004Y88118D01*
X127002Y88099D01*
X127024Y87997D01*
X127041Y87895D01*
X127050Y87878D01*
X127054Y87858D01*
X127107Y87769D01*
X127156Y87678D01*
X127170Y87664D01*
X127180Y87647D01*
X127259Y87580D01*
X127334Y87509D01*
X127352Y87500D01*
X127367Y87487D01*
X127463Y87448D01*
X127557Y87405D01*
X127577Y87403D01*
X127595Y87395D01*
X127762Y87377D01*
X138846Y87377D01*
X138645Y86104D01*
X138064Y84317D01*
X137211Y82643D01*
X136549Y81731D01*
X136500Y81634D01*
X136447Y81538D01*
X136445Y81524D01*
X136438Y81512D01*
X136423Y81404D01*
X136403Y81296D01*
X136406Y81282D01*
X136404Y81268D01*
X136423Y81161D01*
X136439Y81053D01*
X136446Y81040D01*
X136448Y81026D01*
X136501Y80931D01*
X136551Y80834D01*
X136561Y80824D01*
X136568Y80811D01*
X136648Y80738D01*
X136726Y80661D01*
X136742Y80653D01*
X136750Y80646D01*
X136776Y80634D01*
X136873Y80581D01*
X138079Y80081D01*
X143581Y74579D01*
X146559Y67390D01*
X146559Y59610D01*
X143581Y52421D01*
X142499Y51338D01*
X142487Y51322D01*
X142471Y51310D01*
X142415Y51222D01*
X142355Y51139D01*
X142349Y51120D01*
X142338Y51103D01*
X142313Y51002D01*
X142283Y50903D01*
X142283Y50884D01*
X142278Y50864D01*
X142286Y50761D01*
X142289Y50658D01*
X142296Y50639D01*
X142297Y50619D01*
X142338Y50524D01*
X142373Y50427D01*
X142386Y50411D01*
X142394Y50393D01*
X142499Y50262D01*
X143581Y49179D01*
X146559Y41990D01*
X146559Y34210D01*
X143581Y27021D01*
X138079Y21519D01*
X130890Y18541D01*
X123110Y18541D01*
G37*
%LPD*%
%LPC*%
G36*
X481504Y368553D02*
X481504Y368553D01*
X474315Y371531D01*
X468813Y377033D01*
X465835Y384222D01*
X465835Y392002D01*
X468813Y399191D01*
X474315Y404693D01*
X481504Y407671D01*
X489284Y407671D01*
X496473Y404693D01*
X501975Y399191D01*
X504953Y392002D01*
X504953Y384222D01*
X501975Y377033D01*
X496473Y371531D01*
X489284Y368553D01*
X481504Y368553D01*
G37*
%LPD*%
%LPC*%
G36*
X329104Y368553D02*
X329104Y368553D01*
X321915Y371531D01*
X316413Y377033D01*
X313435Y384222D01*
X313435Y392002D01*
X316413Y399191D01*
X321915Y404693D01*
X329104Y407671D01*
X336884Y407671D01*
X344073Y404693D01*
X349575Y399191D01*
X352553Y392002D01*
X352553Y384222D01*
X349575Y377033D01*
X344073Y371531D01*
X336884Y368553D01*
X329104Y368553D01*
G37*
%LPD*%
%LPC*%
G36*
X221916Y368553D02*
X221916Y368553D01*
X214727Y371531D01*
X209225Y377033D01*
X206247Y384222D01*
X206247Y392002D01*
X209225Y399191D01*
X214727Y404693D01*
X221916Y407671D01*
X229696Y407671D01*
X236885Y404693D01*
X242387Y399191D01*
X245365Y392002D01*
X245365Y384222D01*
X242387Y377033D01*
X236885Y371531D01*
X229696Y368553D01*
X221916Y368553D01*
G37*
%LPD*%
%LPC*%
G36*
X69516Y368553D02*
X69516Y368553D01*
X62327Y371531D01*
X56825Y377033D01*
X53847Y384222D01*
X53847Y392002D01*
X56825Y399191D01*
X62327Y404693D01*
X69516Y407671D01*
X77296Y407671D01*
X84485Y404693D01*
X89987Y399191D01*
X92965Y392002D01*
X92965Y384222D01*
X89987Y377033D01*
X84485Y371531D01*
X77296Y368553D01*
X69516Y368553D01*
G37*
%LPD*%
%LPC*%
G36*
X69516Y216153D02*
X69516Y216153D01*
X62327Y219131D01*
X56825Y224633D01*
X53847Y231822D01*
X53847Y239602D01*
X56825Y246791D01*
X62327Y252293D01*
X69516Y255271D01*
X77296Y255271D01*
X84485Y252293D01*
X89987Y246791D01*
X92965Y239602D01*
X92965Y231822D01*
X89987Y224633D01*
X84485Y219131D01*
X77296Y216153D01*
X69516Y216153D01*
G37*
%LPD*%
%LPC*%
G36*
X481504Y151129D02*
X481504Y151129D01*
X474315Y154107D01*
X468813Y159609D01*
X465835Y166798D01*
X465835Y174578D01*
X468813Y181767D01*
X474315Y187269D01*
X481504Y190247D01*
X489284Y190247D01*
X496473Y187269D01*
X501975Y181767D01*
X504953Y174578D01*
X504953Y166798D01*
X501975Y159609D01*
X496473Y154107D01*
X489284Y151129D01*
X481504Y151129D01*
G37*
%LPD*%
%LPC*%
G36*
X329104Y151129D02*
X329104Y151129D01*
X321915Y154107D01*
X316413Y159609D01*
X313435Y166798D01*
X313435Y174578D01*
X316413Y181767D01*
X321915Y187269D01*
X329104Y190247D01*
X336884Y190247D01*
X344073Y187269D01*
X349575Y181767D01*
X352553Y174578D01*
X352553Y166798D01*
X349575Y159609D01*
X344073Y154107D01*
X336884Y151129D01*
X329104Y151129D01*
G37*
%LPD*%
%LPC*%
G36*
X221916Y151129D02*
X221916Y151129D01*
X214727Y154107D01*
X209225Y159609D01*
X206247Y166798D01*
X206247Y174578D01*
X209225Y181767D01*
X214727Y187269D01*
X221916Y190247D01*
X229696Y190247D01*
X236885Y187269D01*
X242387Y181767D01*
X245365Y174578D01*
X245365Y166798D01*
X242387Y159609D01*
X236885Y154107D01*
X229696Y151129D01*
X221916Y151129D01*
G37*
%LPD*%
%LPC*%
G36*
X481504Y303529D02*
X481504Y303529D01*
X474315Y306507D01*
X468813Y312009D01*
X465835Y319198D01*
X465835Y326978D01*
X468813Y334167D01*
X474315Y339669D01*
X481504Y342647D01*
X489284Y342647D01*
X496473Y339669D01*
X501975Y334167D01*
X504953Y326978D01*
X504953Y319198D01*
X501975Y312009D01*
X496473Y306507D01*
X489284Y303529D01*
X481504Y303529D01*
G37*
%LPD*%
%LPC*%
G36*
X329104Y303529D02*
X329104Y303529D01*
X321915Y306507D01*
X316413Y312009D01*
X313435Y319198D01*
X313435Y326978D01*
X316413Y334167D01*
X321915Y339669D01*
X329104Y342647D01*
X336884Y342647D01*
X344073Y339669D01*
X349575Y334167D01*
X352553Y326978D01*
X352553Y319198D01*
X349575Y312009D01*
X344073Y306507D01*
X336884Y303529D01*
X329104Y303529D01*
G37*
%LPD*%
%LPC*%
G36*
X221916Y303529D02*
X221916Y303529D01*
X214727Y306507D01*
X209225Y312009D01*
X206247Y319198D01*
X206247Y326978D01*
X209225Y334167D01*
X214727Y339669D01*
X221916Y342647D01*
X229696Y342647D01*
X236885Y339669D01*
X242387Y334167D01*
X245365Y326978D01*
X245365Y319198D01*
X242387Y312009D01*
X236885Y306507D01*
X229696Y303529D01*
X221916Y303529D01*
G37*
%LPD*%
%LPC*%
G36*
X69516Y303529D02*
X69516Y303529D01*
X62327Y306507D01*
X56825Y312009D01*
X53847Y319198D01*
X53847Y326978D01*
X56825Y334167D01*
X62327Y339669D01*
X69516Y342647D01*
X77296Y342647D01*
X84485Y339669D01*
X89987Y334167D01*
X92965Y326978D01*
X92965Y319198D01*
X89987Y312009D01*
X84485Y306507D01*
X77296Y303529D01*
X69516Y303529D01*
G37*
%LPD*%
%LPC*%
G36*
X69516Y151129D02*
X69516Y151129D01*
X62327Y154107D01*
X56825Y159609D01*
X53847Y166798D01*
X53847Y174578D01*
X56825Y181767D01*
X62327Y187269D01*
X69516Y190247D01*
X77296Y190247D01*
X84485Y187269D01*
X89987Y181767D01*
X92965Y174578D01*
X92965Y166798D01*
X89987Y159609D01*
X84485Y154107D01*
X77296Y151129D01*
X69516Y151129D01*
G37*
%LPD*%
%LPC*%
G36*
X481504Y63753D02*
X481504Y63753D01*
X474315Y66731D01*
X468813Y72233D01*
X465835Y79422D01*
X465835Y87202D01*
X468813Y94391D01*
X474315Y99893D01*
X481504Y102871D01*
X489284Y102871D01*
X496473Y99893D01*
X501975Y94391D01*
X504953Y87202D01*
X504953Y79422D01*
X501975Y72233D01*
X496473Y66731D01*
X489284Y63753D01*
X481504Y63753D01*
G37*
%LPD*%
%LPC*%
G36*
X329104Y63753D02*
X329104Y63753D01*
X321915Y66731D01*
X316413Y72233D01*
X313435Y79422D01*
X313435Y87202D01*
X316413Y94391D01*
X321915Y99893D01*
X329104Y102871D01*
X336884Y102871D01*
X344073Y99893D01*
X349575Y94391D01*
X352553Y87202D01*
X352553Y79422D01*
X349575Y72233D01*
X344073Y66731D01*
X336884Y63753D01*
X329104Y63753D01*
G37*
%LPD*%
%LPC*%
G36*
X221916Y63753D02*
X221916Y63753D01*
X214727Y66731D01*
X209225Y72233D01*
X206247Y79422D01*
X206247Y87202D01*
X209225Y94391D01*
X214727Y99893D01*
X221916Y102871D01*
X229696Y102871D01*
X236885Y99893D01*
X242387Y94391D01*
X245365Y87202D01*
X245365Y79422D01*
X242387Y72233D01*
X236885Y66731D01*
X229696Y63753D01*
X221916Y63753D01*
G37*
%LPD*%
%LPC*%
G36*
X69516Y63753D02*
X69516Y63753D01*
X62327Y66731D01*
X56825Y72233D01*
X53847Y79422D01*
X53847Y87202D01*
X56825Y94391D01*
X62327Y99893D01*
X69516Y102871D01*
X77296Y102871D01*
X84485Y99893D01*
X89987Y94391D01*
X92965Y87202D01*
X92965Y79422D01*
X89987Y72233D01*
X84485Y66731D01*
X77296Y63753D01*
X69516Y63753D01*
G37*
%LPD*%
%LPC*%
G36*
X481504Y216153D02*
X481504Y216153D01*
X474315Y219131D01*
X468813Y224633D01*
X465835Y231822D01*
X465835Y239602D01*
X468813Y246791D01*
X474315Y252293D01*
X481504Y255271D01*
X489284Y255271D01*
X496473Y252293D01*
X501975Y246791D01*
X504953Y239602D01*
X504953Y231822D01*
X501975Y224633D01*
X496473Y219131D01*
X489284Y216153D01*
X481504Y216153D01*
G37*
%LPD*%
%LPC*%
G36*
X329104Y216153D02*
X329104Y216153D01*
X321915Y219131D01*
X316413Y224633D01*
X313435Y231822D01*
X313435Y239602D01*
X316413Y246791D01*
X321915Y252293D01*
X329104Y255271D01*
X336884Y255271D01*
X344073Y252293D01*
X349575Y246791D01*
X352553Y239602D01*
X352553Y231822D01*
X349575Y224633D01*
X344073Y219131D01*
X336884Y216153D01*
X329104Y216153D01*
G37*
%LPD*%
%LPC*%
G36*
X221916Y216153D02*
X221916Y216153D01*
X214727Y219131D01*
X209225Y224633D01*
X206247Y231822D01*
X206247Y239602D01*
X209225Y246791D01*
X214727Y252293D01*
X221916Y255271D01*
X229696Y255271D01*
X236885Y252293D01*
X242387Y246791D01*
X245365Y239602D01*
X245365Y231822D01*
X242387Y224633D01*
X236885Y219131D01*
X229696Y216153D01*
X221916Y216153D01*
G37*
%LPD*%
%LPC*%
G36*
X481504Y455929D02*
X481504Y455929D01*
X474315Y458907D01*
X468813Y464409D01*
X465835Y471598D01*
X465835Y479378D01*
X468813Y486567D01*
X474315Y492069D01*
X481504Y495047D01*
X489284Y495047D01*
X496473Y492069D01*
X501975Y486567D01*
X504953Y479378D01*
X504953Y471598D01*
X501975Y464409D01*
X496473Y458907D01*
X489284Y455929D01*
X481504Y455929D01*
G37*
%LPD*%
%LPC*%
G36*
X329104Y455929D02*
X329104Y455929D01*
X321915Y458907D01*
X316413Y464409D01*
X313435Y471598D01*
X313435Y479378D01*
X316413Y486567D01*
X321915Y492069D01*
X329104Y495047D01*
X336884Y495047D01*
X344073Y492069D01*
X349575Y486567D01*
X352553Y479378D01*
X352553Y471598D01*
X349575Y464409D01*
X344073Y458907D01*
X336884Y455929D01*
X329104Y455929D01*
G37*
%LPD*%
%LPC*%
G36*
X221916Y455929D02*
X221916Y455929D01*
X214727Y458907D01*
X209225Y464409D01*
X206247Y471598D01*
X206247Y479378D01*
X209225Y486567D01*
X214727Y492069D01*
X221916Y495047D01*
X229696Y495047D01*
X236885Y492069D01*
X242387Y486567D01*
X245365Y479378D01*
X245365Y471598D01*
X242387Y464409D01*
X236885Y458907D01*
X229696Y455929D01*
X221916Y455929D01*
G37*
%LPD*%
%LPC*%
G36*
X69516Y455929D02*
X69516Y455929D01*
X62327Y458907D01*
X56825Y464409D01*
X53847Y471598D01*
X53847Y479378D01*
X56825Y486567D01*
X62327Y492069D01*
X69516Y495047D01*
X77296Y495047D01*
X84485Y492069D01*
X89987Y486567D01*
X92965Y479378D01*
X92965Y471598D01*
X89987Y464409D01*
X84485Y458907D01*
X77296Y455929D01*
X69516Y455929D01*
G37*
%LPD*%
%LPC*%
G36*
X532129Y172211D02*
X532129Y172211D01*
X532129Y182534D01*
X533402Y182333D01*
X535189Y181752D01*
X536863Y180899D01*
X538384Y179794D01*
X539712Y178466D01*
X540817Y176945D01*
X541670Y175271D01*
X542251Y173484D01*
X542452Y172211D01*
X532129Y172211D01*
G37*
%LPD*%
%LPC*%
G36*
X379729Y477011D02*
X379729Y477011D01*
X379729Y487334D01*
X381002Y487133D01*
X382789Y486552D01*
X384463Y485699D01*
X385984Y484594D01*
X387312Y483266D01*
X388417Y481745D01*
X389270Y480071D01*
X389851Y478284D01*
X390052Y477011D01*
X379729Y477011D01*
G37*
%LPD*%
%LPC*%
G36*
X532129Y477011D02*
X532129Y477011D01*
X532129Y487334D01*
X533402Y487133D01*
X535189Y486552D01*
X536863Y485699D01*
X538384Y484594D01*
X539712Y483266D01*
X540817Y481745D01*
X541670Y480071D01*
X542251Y478284D01*
X542452Y477011D01*
X532129Y477011D01*
G37*
%LPD*%
%LPC*%
G36*
X182117Y477011D02*
X182117Y477011D01*
X182117Y487334D01*
X183390Y487133D01*
X185177Y486552D01*
X186851Y485699D01*
X188372Y484594D01*
X189700Y483266D01*
X190805Y481745D01*
X191658Y480071D01*
X192239Y478284D01*
X192440Y477011D01*
X182117Y477011D01*
G37*
%LPD*%
%LPC*%
G36*
X182117Y542035D02*
X182117Y542035D01*
X182117Y552358D01*
X183390Y552157D01*
X185177Y551576D01*
X186851Y550723D01*
X188372Y549618D01*
X189700Y548290D01*
X190805Y546769D01*
X191658Y545095D01*
X192239Y543308D01*
X192440Y542035D01*
X182117Y542035D01*
G37*
%LPD*%
%LPC*%
G36*
X29717Y542035D02*
X29717Y542035D01*
X29717Y552358D01*
X30990Y552157D01*
X32777Y551576D01*
X34451Y550723D01*
X35972Y549618D01*
X37300Y548290D01*
X38405Y546769D01*
X39258Y545095D01*
X39839Y543308D01*
X40040Y542035D01*
X29717Y542035D01*
G37*
%LPD*%
%LPC*%
G36*
X379729Y542035D02*
X379729Y542035D01*
X379729Y552358D01*
X381002Y552157D01*
X382789Y551576D01*
X384463Y550723D01*
X385984Y549618D01*
X387312Y548290D01*
X388417Y546769D01*
X389270Y545095D01*
X389851Y543308D01*
X390052Y542035D01*
X379729Y542035D01*
G37*
%LPD*%
%LPC*%
G36*
X532129Y542035D02*
X532129Y542035D01*
X532129Y552358D01*
X533402Y552157D01*
X535189Y551576D01*
X536863Y550723D01*
X538384Y549618D01*
X539712Y548290D01*
X540817Y546769D01*
X541670Y545095D01*
X542251Y543308D01*
X542452Y542035D01*
X532129Y542035D01*
G37*
%LPD*%
%LPC*%
G36*
X182117Y389635D02*
X182117Y389635D01*
X182117Y399958D01*
X183390Y399757D01*
X185177Y399176D01*
X186851Y398323D01*
X188372Y397218D01*
X189700Y395890D01*
X190805Y394369D01*
X191658Y392695D01*
X192239Y390908D01*
X192440Y389635D01*
X182117Y389635D01*
G37*
%LPD*%
%LPC*%
G36*
X29717Y172211D02*
X29717Y172211D01*
X29717Y182534D01*
X30990Y182333D01*
X32777Y181752D01*
X34451Y180899D01*
X35972Y179794D01*
X37300Y178466D01*
X38405Y176945D01*
X39258Y175271D01*
X39839Y173484D01*
X40040Y172211D01*
X29717Y172211D01*
G37*
%LPD*%
%LPC*%
G36*
X379729Y389635D02*
X379729Y389635D01*
X379729Y399958D01*
X381002Y399757D01*
X382789Y399176D01*
X384463Y398323D01*
X385984Y397218D01*
X387312Y395890D01*
X388417Y394369D01*
X389270Y392695D01*
X389851Y390908D01*
X390052Y389635D01*
X379729Y389635D01*
G37*
%LPD*%
%LPC*%
G36*
X379729Y172211D02*
X379729Y172211D01*
X379729Y182534D01*
X381002Y182333D01*
X382789Y181752D01*
X384463Y180899D01*
X385984Y179794D01*
X387312Y178466D01*
X388417Y176945D01*
X389270Y175271D01*
X389851Y173484D01*
X390052Y172211D01*
X379729Y172211D01*
G37*
%LPD*%
%LPC*%
G36*
X182117Y324611D02*
X182117Y324611D01*
X182117Y334934D01*
X183390Y334733D01*
X185177Y334152D01*
X186851Y333299D01*
X188372Y332194D01*
X189700Y330866D01*
X190805Y329345D01*
X191658Y327671D01*
X192239Y325884D01*
X192440Y324611D01*
X182117Y324611D01*
G37*
%LPD*%
%LPC*%
G36*
X29717Y19811D02*
X29717Y19811D01*
X29717Y30134D01*
X30990Y29933D01*
X32777Y29352D01*
X34451Y28499D01*
X35972Y27394D01*
X37300Y26066D01*
X38405Y24545D01*
X39258Y22871D01*
X39839Y21084D01*
X40040Y19811D01*
X29717Y19811D01*
G37*
%LPD*%
%LPC*%
G36*
X379729Y324611D02*
X379729Y324611D01*
X379729Y334934D01*
X381002Y334733D01*
X382789Y334152D01*
X384463Y333299D01*
X385984Y332194D01*
X387312Y330866D01*
X388417Y329345D01*
X389270Y327671D01*
X389851Y325884D01*
X390052Y324611D01*
X379729Y324611D01*
G37*
%LPD*%
%LPC*%
G36*
X379729Y19811D02*
X379729Y19811D01*
X379729Y30134D01*
X381002Y29933D01*
X382789Y29352D01*
X384463Y28499D01*
X385984Y27394D01*
X387312Y26066D01*
X388417Y24545D01*
X389270Y22871D01*
X389851Y21084D01*
X390052Y19811D01*
X379729Y19811D01*
G37*
%LPD*%
%LPC*%
G36*
X29717Y324611D02*
X29717Y324611D01*
X29717Y334934D01*
X30990Y334733D01*
X32777Y334152D01*
X34451Y333299D01*
X35972Y332194D01*
X37300Y330866D01*
X38405Y329345D01*
X39258Y327671D01*
X39839Y325884D01*
X40040Y324611D01*
X29717Y324611D01*
G37*
%LPD*%
%LPC*%
G36*
X532129Y19811D02*
X532129Y19811D01*
X532129Y30134D01*
X533402Y29933D01*
X535189Y29352D01*
X536863Y28499D01*
X538384Y27394D01*
X539712Y26066D01*
X540817Y24545D01*
X541670Y22871D01*
X542251Y21084D01*
X542452Y19811D01*
X532129Y19811D01*
G37*
%LPD*%
%LPC*%
G36*
X532129Y324611D02*
X532129Y324611D01*
X532129Y334934D01*
X533402Y334733D01*
X535189Y334152D01*
X536863Y333299D01*
X538384Y332194D01*
X539712Y330866D01*
X540817Y329345D01*
X541670Y327671D01*
X542251Y325884D01*
X542452Y324611D01*
X532129Y324611D01*
G37*
%LPD*%
%LPC*%
G36*
X182117Y172211D02*
X182117Y172211D01*
X182117Y182534D01*
X183390Y182333D01*
X185177Y181752D01*
X186851Y180899D01*
X188372Y179794D01*
X189700Y178466D01*
X190805Y176945D01*
X191658Y175271D01*
X192239Y173484D01*
X192440Y172211D01*
X182117Y172211D01*
G37*
%LPD*%
%LPC*%
G36*
X29717Y477011D02*
X29717Y477011D01*
X29717Y487334D01*
X30990Y487133D01*
X32777Y486552D01*
X34451Y485699D01*
X35972Y484594D01*
X37300Y483266D01*
X38405Y481745D01*
X39258Y480071D01*
X39839Y478284D01*
X40040Y477011D01*
X29717Y477011D01*
G37*
%LPD*%
%LPC*%
G36*
X532129Y389635D02*
X532129Y389635D01*
X532129Y399958D01*
X533402Y399757D01*
X535189Y399176D01*
X536863Y398323D01*
X538384Y397218D01*
X539712Y395890D01*
X540817Y394369D01*
X541670Y392695D01*
X542251Y390908D01*
X542452Y389635D01*
X532129Y389635D01*
G37*
%LPD*%
%LPC*%
G36*
X29717Y389635D02*
X29717Y389635D01*
X29717Y399958D01*
X30990Y399757D01*
X32777Y399176D01*
X34451Y398323D01*
X35972Y397218D01*
X37300Y395890D01*
X38405Y394369D01*
X39258Y392695D01*
X39839Y390908D01*
X40040Y389635D01*
X29717Y389635D01*
G37*
%LPD*%
%LPC*%
G36*
X182117Y237235D02*
X182117Y237235D01*
X182117Y247558D01*
X183390Y247357D01*
X185177Y246776D01*
X186851Y245923D01*
X188372Y244818D01*
X189700Y243490D01*
X190805Y241969D01*
X191658Y240295D01*
X192239Y238508D01*
X192440Y237235D01*
X182117Y237235D01*
G37*
%LPD*%
%LPC*%
G36*
X29717Y237235D02*
X29717Y237235D01*
X29717Y247558D01*
X30990Y247357D01*
X32777Y246776D01*
X34451Y245923D01*
X35972Y244818D01*
X37300Y243490D01*
X38405Y241969D01*
X39258Y240295D01*
X39839Y238508D01*
X40040Y237235D01*
X29717Y237235D01*
G37*
%LPD*%
%LPC*%
G36*
X379729Y237235D02*
X379729Y237235D01*
X379729Y247558D01*
X381002Y247357D01*
X382789Y246776D01*
X384463Y245923D01*
X385984Y244818D01*
X387312Y243490D01*
X388417Y241969D01*
X389270Y240295D01*
X389851Y238508D01*
X390052Y237235D01*
X379729Y237235D01*
G37*
%LPD*%
%LPC*%
G36*
X532129Y237235D02*
X532129Y237235D01*
X532129Y247558D01*
X533402Y247357D01*
X535189Y246776D01*
X536863Y245923D01*
X538384Y244818D01*
X539712Y243490D01*
X540817Y241969D01*
X541670Y240295D01*
X542251Y238508D01*
X542452Y237235D01*
X532129Y237235D01*
G37*
%LPD*%
%LPC*%
G36*
X128523Y90423D02*
X128523Y90423D01*
X128523Y100746D01*
X129796Y100545D01*
X131583Y99964D01*
X133257Y99111D01*
X134778Y98006D01*
X136106Y96678D01*
X137211Y95157D01*
X138064Y93483D01*
X138645Y91696D01*
X138846Y90423D01*
X128523Y90423D01*
G37*
%LPD*%
%LPC*%
G36*
X182117Y84835D02*
X182117Y84835D01*
X182117Y95158D01*
X183390Y94957D01*
X185177Y94376D01*
X186851Y93523D01*
X188372Y92418D01*
X189700Y91090D01*
X190805Y89569D01*
X191658Y87895D01*
X192239Y86108D01*
X192440Y84835D01*
X182117Y84835D01*
G37*
%LPD*%
%LPC*%
G36*
X379729Y84835D02*
X379729Y84835D01*
X379729Y95158D01*
X381002Y94957D01*
X382789Y94376D01*
X384463Y93523D01*
X385984Y92418D01*
X387312Y91090D01*
X388417Y89569D01*
X389270Y87895D01*
X389851Y86108D01*
X390052Y84835D01*
X379729Y84835D01*
G37*
%LPD*%
%LPC*%
G36*
X532129Y84835D02*
X532129Y84835D01*
X532129Y95158D01*
X533402Y94957D01*
X535189Y94376D01*
X536863Y93523D01*
X538384Y92418D01*
X539712Y91090D01*
X540817Y89569D01*
X541670Y87895D01*
X542251Y86108D01*
X542452Y84835D01*
X532129Y84835D01*
G37*
%LPD*%
%LPC*%
G36*
X29717Y84835D02*
X29717Y84835D01*
X29717Y95158D01*
X30990Y94957D01*
X32777Y94376D01*
X34451Y93523D01*
X35972Y92418D01*
X37300Y91090D01*
X38405Y89569D01*
X39258Y87895D01*
X39839Y86108D01*
X40040Y84835D01*
X29717Y84835D01*
G37*
%LPD*%
%LPC*%
G36*
X182117Y19811D02*
X182117Y19811D01*
X182117Y30134D01*
X183390Y29933D01*
X185177Y29352D01*
X186851Y28499D01*
X188372Y27394D01*
X189700Y26066D01*
X190805Y24545D01*
X191658Y22871D01*
X192239Y21084D01*
X192440Y19811D01*
X182117Y19811D01*
G37*
%LPD*%
%LPC*%
G36*
X532129Y473965D02*
X532129Y473965D01*
X542452Y473965D01*
X542251Y472692D01*
X541670Y470905D01*
X540817Y469231D01*
X539712Y467710D01*
X538384Y466382D01*
X536863Y465277D01*
X535189Y464424D01*
X533402Y463843D01*
X532129Y463642D01*
X532129Y473965D01*
G37*
%LPD*%
%LPC*%
G36*
X379729Y473965D02*
X379729Y473965D01*
X390052Y473965D01*
X389851Y472692D01*
X389270Y470905D01*
X388417Y469231D01*
X387312Y467710D01*
X385984Y466382D01*
X384463Y465277D01*
X382789Y464424D01*
X381002Y463843D01*
X379729Y463642D01*
X379729Y473965D01*
G37*
%LPD*%
%LPC*%
G36*
X182117Y473965D02*
X182117Y473965D01*
X192440Y473965D01*
X192239Y472692D01*
X191658Y470905D01*
X190805Y469231D01*
X189700Y467710D01*
X188372Y466382D01*
X186851Y465277D01*
X185177Y464424D01*
X183390Y463843D01*
X182117Y463642D01*
X182117Y473965D01*
G37*
%LPD*%
%LPC*%
G36*
X29717Y473965D02*
X29717Y473965D01*
X40040Y473965D01*
X39839Y472692D01*
X39258Y470905D01*
X38405Y469231D01*
X37300Y467710D01*
X35972Y466382D01*
X34451Y465277D01*
X32777Y464424D01*
X30990Y463843D01*
X29717Y463642D01*
X29717Y473965D01*
G37*
%LPD*%
%LPC*%
G36*
X29717Y538989D02*
X29717Y538989D01*
X40040Y538989D01*
X39839Y537716D01*
X39258Y535929D01*
X38405Y534255D01*
X37300Y532734D01*
X35972Y531406D01*
X34451Y530301D01*
X32777Y529448D01*
X30990Y528867D01*
X29717Y528666D01*
X29717Y538989D01*
G37*
%LPD*%
%LPC*%
G36*
X182117Y321565D02*
X182117Y321565D01*
X192440Y321565D01*
X192239Y320292D01*
X191658Y318505D01*
X190805Y316831D01*
X189700Y315310D01*
X188372Y313982D01*
X186851Y312877D01*
X185177Y312024D01*
X183390Y311443D01*
X182117Y311242D01*
X182117Y321565D01*
G37*
%LPD*%
%LPC*%
G36*
X16348Y477011D02*
X16348Y477011D01*
X16549Y478284D01*
X17130Y480071D01*
X17983Y481745D01*
X19088Y483266D01*
X20416Y484594D01*
X21937Y485699D01*
X23611Y486552D01*
X25398Y487133D01*
X26671Y487334D01*
X26671Y477011D01*
X16348Y477011D01*
G37*
%LPD*%
%LPC*%
G36*
X168748Y477011D02*
X168748Y477011D01*
X168949Y478284D01*
X169530Y480071D01*
X170383Y481745D01*
X171488Y483266D01*
X172816Y484594D01*
X174337Y485699D01*
X176011Y486552D01*
X177798Y487133D01*
X179071Y487334D01*
X179071Y477011D01*
X168748Y477011D01*
G37*
%LPD*%
%LPC*%
G36*
X518760Y477011D02*
X518760Y477011D01*
X518961Y478284D01*
X519542Y480071D01*
X520395Y481745D01*
X521500Y483266D01*
X522828Y484594D01*
X524349Y485699D01*
X526023Y486552D01*
X527810Y487133D01*
X529083Y487334D01*
X529083Y477011D01*
X518760Y477011D01*
G37*
%LPD*%
%LPC*%
G36*
X366360Y477011D02*
X366360Y477011D01*
X366561Y478284D01*
X367142Y480071D01*
X367995Y481745D01*
X369100Y483266D01*
X370428Y484594D01*
X371949Y485699D01*
X373623Y486552D01*
X375410Y487133D01*
X376683Y487334D01*
X376683Y477011D01*
X366360Y477011D01*
G37*
%LPD*%
%LPC*%
G36*
X518760Y172211D02*
X518760Y172211D01*
X518961Y173484D01*
X519542Y175271D01*
X520395Y176945D01*
X521500Y178466D01*
X522828Y179794D01*
X524349Y180899D01*
X526023Y181752D01*
X527810Y182333D01*
X529083Y182534D01*
X529083Y172211D01*
X518760Y172211D01*
G37*
%LPD*%
%LPC*%
G36*
X366360Y172211D02*
X366360Y172211D01*
X366561Y173484D01*
X367142Y175271D01*
X367995Y176945D01*
X369100Y178466D01*
X370428Y179794D01*
X371949Y180899D01*
X373623Y181752D01*
X375410Y182333D01*
X376683Y182534D01*
X376683Y172211D01*
X366360Y172211D01*
G37*
%LPD*%
%LPC*%
G36*
X168748Y172211D02*
X168748Y172211D01*
X168949Y173484D01*
X169530Y175271D01*
X170383Y176945D01*
X171488Y178466D01*
X172816Y179794D01*
X174337Y180899D01*
X176011Y181752D01*
X177798Y182333D01*
X179071Y182534D01*
X179071Y172211D01*
X168748Y172211D01*
G37*
%LPD*%
%LPC*%
G36*
X16348Y172211D02*
X16348Y172211D01*
X16549Y173484D01*
X17130Y175271D01*
X17983Y176945D01*
X19088Y178466D01*
X20416Y179794D01*
X21937Y180899D01*
X23611Y181752D01*
X25398Y182333D01*
X26671Y182534D01*
X26671Y172211D01*
X16348Y172211D01*
G37*
%LPD*%
%LPC*%
G36*
X16348Y389635D02*
X16348Y389635D01*
X16549Y390908D01*
X17130Y392695D01*
X17983Y394369D01*
X19088Y395890D01*
X20416Y397218D01*
X21937Y398323D01*
X23611Y399176D01*
X25398Y399757D01*
X26671Y399958D01*
X26671Y389635D01*
X16348Y389635D01*
G37*
%LPD*%
%LPC*%
G36*
X168748Y389635D02*
X168748Y389635D01*
X168949Y390908D01*
X169530Y392695D01*
X170383Y394369D01*
X171488Y395890D01*
X172816Y397218D01*
X174337Y398323D01*
X176011Y399176D01*
X177798Y399757D01*
X179071Y399958D01*
X179071Y389635D01*
X168748Y389635D01*
G37*
%LPD*%
%LPC*%
G36*
X366360Y389635D02*
X366360Y389635D01*
X366561Y390908D01*
X367142Y392695D01*
X367995Y394369D01*
X369100Y395890D01*
X370428Y397218D01*
X371949Y398323D01*
X373623Y399176D01*
X375410Y399757D01*
X376683Y399958D01*
X376683Y389635D01*
X366360Y389635D01*
G37*
%LPD*%
%LPC*%
G36*
X518760Y389635D02*
X518760Y389635D01*
X518961Y390908D01*
X519542Y392695D01*
X520395Y394369D01*
X521500Y395890D01*
X522828Y397218D01*
X524349Y398323D01*
X526023Y399176D01*
X527810Y399757D01*
X529083Y399958D01*
X529083Y389635D01*
X518760Y389635D01*
G37*
%LPD*%
%LPC*%
G36*
X16348Y237235D02*
X16348Y237235D01*
X16549Y238508D01*
X17130Y240295D01*
X17983Y241969D01*
X19088Y243490D01*
X20416Y244818D01*
X21937Y245923D01*
X23611Y246776D01*
X25398Y247357D01*
X26671Y247558D01*
X26671Y237235D01*
X16348Y237235D01*
G37*
%LPD*%
%LPC*%
G36*
X532129Y386589D02*
X532129Y386589D01*
X542452Y386589D01*
X542251Y385316D01*
X541670Y383529D01*
X540817Y381855D01*
X539712Y380334D01*
X538384Y379006D01*
X536863Y377901D01*
X535189Y377048D01*
X533402Y376467D01*
X532129Y376266D01*
X532129Y386589D01*
G37*
%LPD*%
%LPC*%
G36*
X29717Y234189D02*
X29717Y234189D01*
X40040Y234189D01*
X39839Y232916D01*
X39258Y231129D01*
X38405Y229455D01*
X37300Y227934D01*
X35972Y226606D01*
X34451Y225501D01*
X32777Y224648D01*
X30990Y224067D01*
X29717Y223866D01*
X29717Y234189D01*
G37*
%LPD*%
%LPC*%
G36*
X379729Y386589D02*
X379729Y386589D01*
X390052Y386589D01*
X389851Y385316D01*
X389270Y383529D01*
X388417Y381855D01*
X387312Y380334D01*
X385984Y379006D01*
X384463Y377901D01*
X382789Y377048D01*
X381002Y376467D01*
X379729Y376266D01*
X379729Y386589D01*
G37*
%LPD*%
%LPC*%
G36*
X532129Y234189D02*
X532129Y234189D01*
X542452Y234189D01*
X542251Y232916D01*
X541670Y231129D01*
X540817Y229455D01*
X539712Y227934D01*
X538384Y226606D01*
X536863Y225501D01*
X535189Y224648D01*
X533402Y224067D01*
X532129Y223866D01*
X532129Y234189D01*
G37*
%LPD*%
%LPC*%
G36*
X182117Y386589D02*
X182117Y386589D01*
X192440Y386589D01*
X192239Y385316D01*
X191658Y383529D01*
X190805Y381855D01*
X189700Y380334D01*
X188372Y379006D01*
X186851Y377901D01*
X185177Y377048D01*
X183390Y376467D01*
X182117Y376266D01*
X182117Y386589D01*
G37*
%LPD*%
%LPC*%
G36*
X182117Y234189D02*
X182117Y234189D01*
X192440Y234189D01*
X192239Y232916D01*
X191658Y231129D01*
X190805Y229455D01*
X189700Y227934D01*
X188372Y226606D01*
X186851Y225501D01*
X185177Y224648D01*
X183390Y224067D01*
X182117Y223866D01*
X182117Y234189D01*
G37*
%LPD*%
%LPC*%
G36*
X29717Y386589D02*
X29717Y386589D01*
X40040Y386589D01*
X39839Y385316D01*
X39258Y383529D01*
X38405Y381855D01*
X37300Y380334D01*
X35972Y379006D01*
X34451Y377901D01*
X32777Y377048D01*
X30990Y376467D01*
X29717Y376266D01*
X29717Y386589D01*
G37*
%LPD*%
%LPC*%
G36*
X379729Y234189D02*
X379729Y234189D01*
X390052Y234189D01*
X389851Y232916D01*
X389270Y231129D01*
X388417Y229455D01*
X387312Y227934D01*
X385984Y226606D01*
X384463Y225501D01*
X382789Y224648D01*
X381002Y224067D01*
X379729Y223866D01*
X379729Y234189D01*
G37*
%LPD*%
%LPC*%
G36*
X168748Y324611D02*
X168748Y324611D01*
X168949Y325884D01*
X169530Y327671D01*
X170383Y329345D01*
X171488Y330866D01*
X172816Y332194D01*
X174337Y333299D01*
X176011Y334152D01*
X177798Y334733D01*
X179071Y334934D01*
X179071Y324611D01*
X168748Y324611D01*
G37*
%LPD*%
%LPC*%
G36*
X366360Y324611D02*
X366360Y324611D01*
X366561Y325884D01*
X367142Y327671D01*
X367995Y329345D01*
X369100Y330866D01*
X370428Y332194D01*
X371949Y333299D01*
X373623Y334152D01*
X375410Y334733D01*
X376683Y334934D01*
X376683Y324611D01*
X366360Y324611D01*
G37*
%LPD*%
%LPC*%
G36*
X16348Y324611D02*
X16348Y324611D01*
X16549Y325884D01*
X17130Y327671D01*
X17983Y329345D01*
X19088Y330866D01*
X20416Y332194D01*
X21937Y333299D01*
X23611Y334152D01*
X25398Y334733D01*
X26671Y334934D01*
X26671Y324611D01*
X16348Y324611D01*
G37*
%LPD*%
%LPC*%
G36*
X518760Y324611D02*
X518760Y324611D01*
X518961Y325884D01*
X519542Y327671D01*
X520395Y329345D01*
X521500Y330866D01*
X522828Y332194D01*
X524349Y333299D01*
X526023Y334152D01*
X527810Y334733D01*
X529083Y334934D01*
X529083Y324611D01*
X518760Y324611D01*
G37*
%LPD*%
%LPC*%
G36*
X16348Y542035D02*
X16348Y542035D01*
X16549Y543308D01*
X17130Y545095D01*
X17983Y546769D01*
X19088Y548290D01*
X20416Y549618D01*
X21937Y550723D01*
X23611Y551576D01*
X25398Y552157D01*
X26671Y552358D01*
X26671Y542035D01*
X16348Y542035D01*
G37*
%LPD*%
%LPC*%
G36*
X168748Y542035D02*
X168748Y542035D01*
X168949Y543308D01*
X169530Y545095D01*
X170383Y546769D01*
X171488Y548290D01*
X172816Y549618D01*
X174337Y550723D01*
X176011Y551576D01*
X177798Y552157D01*
X179071Y552358D01*
X179071Y542035D01*
X168748Y542035D01*
G37*
%LPD*%
%LPC*%
G36*
X379729Y321565D02*
X379729Y321565D01*
X390052Y321565D01*
X389851Y320292D01*
X389270Y318505D01*
X388417Y316831D01*
X387312Y315310D01*
X385984Y313982D01*
X384463Y312877D01*
X382789Y312024D01*
X381002Y311443D01*
X379729Y311242D01*
X379729Y321565D01*
G37*
%LPD*%
%LPC*%
G36*
X128523Y112777D02*
X128523Y112777D01*
X138846Y112777D01*
X138645Y111504D01*
X138064Y109717D01*
X137211Y108043D01*
X136106Y106522D01*
X134778Y105194D01*
X133257Y104089D01*
X131583Y103236D01*
X129796Y102655D01*
X128523Y102454D01*
X128523Y112777D01*
G37*
%LPD*%
%LPC*%
G36*
X366360Y542035D02*
X366360Y542035D01*
X366561Y543308D01*
X367142Y545095D01*
X367995Y546769D01*
X369100Y548290D01*
X370428Y549618D01*
X371949Y550723D01*
X373623Y551576D01*
X375410Y552157D01*
X376683Y552358D01*
X376683Y542035D01*
X366360Y542035D01*
G37*
%LPD*%
%LPC*%
G36*
X518760Y237235D02*
X518760Y237235D01*
X518961Y238508D01*
X519542Y240295D01*
X520395Y241969D01*
X521500Y243490D01*
X522828Y244818D01*
X524349Y245923D01*
X526023Y246776D01*
X527810Y247357D01*
X529083Y247558D01*
X529083Y237235D01*
X518760Y237235D01*
G37*
%LPD*%
%LPC*%
G36*
X518760Y542035D02*
X518760Y542035D01*
X518961Y543308D01*
X519542Y545095D01*
X520395Y546769D01*
X521500Y548290D01*
X522828Y549618D01*
X524349Y550723D01*
X526023Y551576D01*
X527810Y552157D01*
X529083Y552358D01*
X529083Y542035D01*
X518760Y542035D01*
G37*
%LPD*%
%LPC*%
G36*
X168748Y237235D02*
X168748Y237235D01*
X168949Y238508D01*
X169530Y240295D01*
X170383Y241969D01*
X171488Y243490D01*
X172816Y244818D01*
X174337Y245923D01*
X176011Y246776D01*
X177798Y247357D01*
X179071Y247558D01*
X179071Y237235D01*
X168748Y237235D01*
G37*
%LPD*%
%LPC*%
G36*
X115154Y90423D02*
X115154Y90423D01*
X115355Y91696D01*
X115936Y93483D01*
X116789Y95157D01*
X117894Y96678D01*
X119222Y98006D01*
X120743Y99111D01*
X122417Y99964D01*
X124204Y100545D01*
X125477Y100746D01*
X125477Y90423D01*
X115154Y90423D01*
G37*
%LPD*%
%LPC*%
G36*
X532129Y169165D02*
X532129Y169165D01*
X542452Y169165D01*
X542251Y167892D01*
X541670Y166105D01*
X540817Y164431D01*
X539712Y162910D01*
X538384Y161582D01*
X536863Y160477D01*
X535189Y159624D01*
X533402Y159043D01*
X532129Y158842D01*
X532129Y169165D01*
G37*
%LPD*%
%LPC*%
G36*
X182117Y169165D02*
X182117Y169165D01*
X192440Y169165D01*
X192239Y167892D01*
X191658Y166105D01*
X190805Y164431D01*
X189700Y162910D01*
X188372Y161582D01*
X186851Y160477D01*
X185177Y159624D01*
X183390Y159043D01*
X182117Y158842D01*
X182117Y169165D01*
G37*
%LPD*%
%LPC*%
G36*
X168748Y84835D02*
X168748Y84835D01*
X168949Y86108D01*
X169530Y87895D01*
X170383Y89569D01*
X171488Y91090D01*
X172816Y92418D01*
X174337Y93523D01*
X176011Y94376D01*
X177798Y94957D01*
X179071Y95158D01*
X179071Y84835D01*
X168748Y84835D01*
G37*
%LPD*%
%LPC*%
G36*
X366360Y84835D02*
X366360Y84835D01*
X366561Y86108D01*
X367142Y87895D01*
X367995Y89569D01*
X369100Y91090D01*
X370428Y92418D01*
X371949Y93523D01*
X373623Y94376D01*
X375410Y94957D01*
X376683Y95158D01*
X376683Y84835D01*
X366360Y84835D01*
G37*
%LPD*%
%LPC*%
G36*
X29717Y169165D02*
X29717Y169165D01*
X40040Y169165D01*
X39839Y167892D01*
X39258Y166105D01*
X38405Y164431D01*
X37300Y162910D01*
X35972Y161582D01*
X34451Y160477D01*
X32777Y159624D01*
X30990Y159043D01*
X29717Y158842D01*
X29717Y169165D01*
G37*
%LPD*%
%LPC*%
G36*
X379729Y169165D02*
X379729Y169165D01*
X390052Y169165D01*
X389851Y167892D01*
X389270Y166105D01*
X388417Y164431D01*
X387312Y162910D01*
X385984Y161582D01*
X384463Y160477D01*
X382789Y159624D01*
X381002Y159043D01*
X379729Y158842D01*
X379729Y169165D01*
G37*
%LPD*%
%LPC*%
G36*
X518760Y84835D02*
X518760Y84835D01*
X518961Y86108D01*
X519542Y87895D01*
X520395Y89569D01*
X521500Y91090D01*
X522828Y92418D01*
X524349Y93523D01*
X526023Y94376D01*
X527810Y94957D01*
X529083Y95158D01*
X529083Y84835D01*
X518760Y84835D01*
G37*
%LPD*%
%LPC*%
G36*
X16348Y84835D02*
X16348Y84835D01*
X16549Y86108D01*
X17130Y87895D01*
X17983Y89569D01*
X19088Y91090D01*
X20416Y92418D01*
X21937Y93523D01*
X23611Y94376D01*
X25398Y94957D01*
X26671Y95158D01*
X26671Y84835D01*
X16348Y84835D01*
G37*
%LPD*%
%LPC*%
G36*
X366360Y237235D02*
X366360Y237235D01*
X366561Y238508D01*
X367142Y240295D01*
X367995Y241969D01*
X369100Y243490D01*
X370428Y244818D01*
X371949Y245923D01*
X373623Y246776D01*
X375410Y247357D01*
X376683Y247558D01*
X376683Y237235D01*
X366360Y237235D01*
G37*
%LPD*%
%LPC*%
G36*
X532129Y321565D02*
X532129Y321565D01*
X542452Y321565D01*
X542251Y320292D01*
X541670Y318505D01*
X540817Y316831D01*
X539712Y315310D01*
X538384Y313982D01*
X536863Y312877D01*
X535189Y312024D01*
X533402Y311443D01*
X532129Y311242D01*
X532129Y321565D01*
G37*
%LPD*%
%LPC*%
G36*
X532129Y81789D02*
X532129Y81789D01*
X542452Y81789D01*
X542251Y80516D01*
X541670Y78729D01*
X540817Y77055D01*
X539712Y75534D01*
X538384Y74206D01*
X536863Y73101D01*
X535189Y72248D01*
X533402Y71667D01*
X532129Y71466D01*
X532129Y81789D01*
G37*
%LPD*%
%LPC*%
G36*
X379729Y81789D02*
X379729Y81789D01*
X390052Y81789D01*
X389851Y80516D01*
X389270Y78729D01*
X388417Y77055D01*
X387312Y75534D01*
X385984Y74206D01*
X384463Y73101D01*
X382789Y72248D01*
X381002Y71667D01*
X379729Y71466D01*
X379729Y81789D01*
G37*
%LPD*%
%LPC*%
G36*
X182117Y81789D02*
X182117Y81789D01*
X192440Y81789D01*
X192239Y80516D01*
X191658Y78729D01*
X190805Y77055D01*
X189700Y75534D01*
X188372Y74206D01*
X186851Y73101D01*
X185177Y72248D01*
X183390Y71667D01*
X182117Y71466D01*
X182117Y81789D01*
G37*
%LPD*%
%LPC*%
G36*
X29717Y81789D02*
X29717Y81789D01*
X40040Y81789D01*
X39839Y80516D01*
X39258Y78729D01*
X38405Y77055D01*
X37300Y75534D01*
X35972Y74206D01*
X34451Y73101D01*
X32777Y72248D01*
X30990Y71667D01*
X29717Y71466D01*
X29717Y81789D01*
G37*
%LPD*%
%LPC*%
G36*
X379729Y538989D02*
X379729Y538989D01*
X390052Y538989D01*
X389851Y537716D01*
X389270Y535929D01*
X388417Y534255D01*
X387312Y532734D01*
X385984Y531406D01*
X384463Y530301D01*
X382789Y529448D01*
X381002Y528867D01*
X379729Y528666D01*
X379729Y538989D01*
G37*
%LPD*%
%LPC*%
G36*
X29717Y321565D02*
X29717Y321565D01*
X40040Y321565D01*
X39839Y320292D01*
X39258Y318505D01*
X38405Y316831D01*
X37300Y315310D01*
X35972Y313982D01*
X34451Y312877D01*
X32777Y312024D01*
X30990Y311443D01*
X29717Y311242D01*
X29717Y321565D01*
G37*
%LPD*%
%LPC*%
G36*
X532129Y538989D02*
X532129Y538989D01*
X542452Y538989D01*
X542251Y537716D01*
X541670Y535929D01*
X540817Y534255D01*
X539712Y532734D01*
X538384Y531406D01*
X536863Y530301D01*
X535189Y529448D01*
X533402Y528867D01*
X532129Y528666D01*
X532129Y538989D01*
G37*
%LPD*%
%LPC*%
G36*
X182117Y538989D02*
X182117Y538989D01*
X192440Y538989D01*
X192239Y537716D01*
X191658Y535929D01*
X190805Y534255D01*
X189700Y532734D01*
X188372Y531406D01*
X186851Y530301D01*
X185177Y529448D01*
X183390Y528867D01*
X182117Y528666D01*
X182117Y538989D01*
G37*
%LPD*%
%LPC*%
G36*
X16348Y19811D02*
X16348Y19811D01*
X16549Y21084D01*
X17130Y22871D01*
X17983Y24545D01*
X19088Y26066D01*
X20416Y27394D01*
X21937Y28499D01*
X23611Y29352D01*
X25398Y29933D01*
X26671Y30134D01*
X26671Y19811D01*
X16348Y19811D01*
G37*
%LPD*%
%LPC*%
G36*
X168748Y19811D02*
X168748Y19811D01*
X168949Y21084D01*
X169530Y22871D01*
X170383Y24545D01*
X171488Y26066D01*
X172816Y27394D01*
X174337Y28499D01*
X176011Y29352D01*
X177798Y29933D01*
X179071Y30134D01*
X179071Y19811D01*
X168748Y19811D01*
G37*
%LPD*%
%LPC*%
G36*
X366360Y19811D02*
X366360Y19811D01*
X366561Y21084D01*
X367142Y22871D01*
X367995Y24545D01*
X369100Y26066D01*
X370428Y27394D01*
X371949Y28499D01*
X373623Y29352D01*
X375410Y29933D01*
X376683Y30134D01*
X376683Y19811D01*
X366360Y19811D01*
G37*
%LPD*%
%LPC*%
G36*
X518760Y19811D02*
X518760Y19811D01*
X518961Y21084D01*
X519542Y22871D01*
X520395Y24545D01*
X521500Y26066D01*
X522828Y27394D01*
X524349Y28499D01*
X526023Y29352D01*
X527810Y29933D01*
X529083Y30134D01*
X529083Y19811D01*
X518760Y19811D01*
G37*
%LPD*%
%LPC*%
G36*
X532129Y16765D02*
X532129Y16765D01*
X542452Y16765D01*
X542251Y15492D01*
X541670Y13705D01*
X540817Y12031D01*
X539712Y10510D01*
X538384Y9182D01*
X536863Y8077D01*
X535189Y7224D01*
X533402Y6643D01*
X532129Y6442D01*
X532129Y16765D01*
G37*
%LPD*%
%LPC*%
G36*
X379729Y16765D02*
X379729Y16765D01*
X390052Y16765D01*
X389851Y15492D01*
X389270Y13705D01*
X388417Y12031D01*
X387312Y10510D01*
X385984Y9182D01*
X384463Y8077D01*
X382789Y7224D01*
X381002Y6643D01*
X379729Y6442D01*
X379729Y16765D01*
G37*
%LPD*%
%LPC*%
G36*
X182117Y16765D02*
X182117Y16765D01*
X192440Y16765D01*
X192239Y15492D01*
X191658Y13705D01*
X190805Y12031D01*
X189700Y10510D01*
X188372Y9182D01*
X186851Y8077D01*
X185177Y7224D01*
X183390Y6643D01*
X182117Y6442D01*
X182117Y16765D01*
G37*
%LPD*%
%LPC*%
G36*
X29717Y16765D02*
X29717Y16765D01*
X40040Y16765D01*
X39839Y15492D01*
X39258Y13705D01*
X38405Y12031D01*
X37300Y10510D01*
X35972Y9182D01*
X34451Y8077D01*
X32777Y7224D01*
X30990Y6643D01*
X29717Y6442D01*
X29717Y16765D01*
G37*
%LPD*%
%LPC*%
G36*
X375410Y463843D02*
X375410Y463843D01*
X373623Y464424D01*
X371949Y465277D01*
X370428Y466382D01*
X369100Y467710D01*
X367995Y469231D01*
X367142Y470905D01*
X366561Y472692D01*
X366360Y473965D01*
X376683Y473965D01*
X376683Y463642D01*
X375410Y463843D01*
G37*
%LPD*%
%LPC*%
G36*
X527810Y463843D02*
X527810Y463843D01*
X526023Y464424D01*
X524349Y465277D01*
X522828Y466382D01*
X521500Y467710D01*
X520395Y469231D01*
X519542Y470905D01*
X518961Y472692D01*
X518760Y473965D01*
X529083Y473965D01*
X529083Y463642D01*
X527810Y463843D01*
G37*
%LPD*%
%LPC*%
G36*
X25398Y463843D02*
X25398Y463843D01*
X23611Y464424D01*
X21937Y465277D01*
X20416Y466382D01*
X19088Y467710D01*
X17983Y469231D01*
X17130Y470905D01*
X16549Y472692D01*
X16348Y473965D01*
X26671Y473965D01*
X26671Y463642D01*
X25398Y463843D01*
G37*
%LPD*%
%LPC*%
G36*
X177798Y463843D02*
X177798Y463843D01*
X176011Y464424D01*
X174337Y465277D01*
X172816Y466382D01*
X171488Y467710D01*
X170383Y469231D01*
X169530Y470905D01*
X168949Y472692D01*
X168748Y473965D01*
X179071Y473965D01*
X179071Y463642D01*
X177798Y463843D01*
G37*
%LPD*%
%LPC*%
G36*
X25398Y224067D02*
X25398Y224067D01*
X23611Y224648D01*
X21937Y225501D01*
X20416Y226606D01*
X19088Y227934D01*
X17983Y229455D01*
X17130Y231129D01*
X16549Y232916D01*
X16348Y234189D01*
X26671Y234189D01*
X26671Y223866D01*
X25398Y224067D01*
G37*
%LPD*%
%LPC*%
G36*
X527810Y224067D02*
X527810Y224067D01*
X526023Y224648D01*
X524349Y225501D01*
X522828Y226606D01*
X521500Y227934D01*
X520395Y229455D01*
X519542Y231129D01*
X518961Y232916D01*
X518760Y234189D01*
X529083Y234189D01*
X529083Y223866D01*
X527810Y224067D01*
G37*
%LPD*%
%LPC*%
G36*
X375410Y224067D02*
X375410Y224067D01*
X373623Y224648D01*
X371949Y225501D01*
X370428Y226606D01*
X369100Y227934D01*
X367995Y229455D01*
X367142Y231129D01*
X366561Y232916D01*
X366360Y234189D01*
X376683Y234189D01*
X376683Y223866D01*
X375410Y224067D01*
G37*
%LPD*%
%LPC*%
G36*
X25398Y159043D02*
X25398Y159043D01*
X23611Y159624D01*
X21937Y160477D01*
X20416Y161582D01*
X19088Y162910D01*
X17983Y164431D01*
X17130Y166105D01*
X16549Y167892D01*
X16348Y169165D01*
X26671Y169165D01*
X26671Y158842D01*
X25398Y159043D01*
G37*
%LPD*%
%LPC*%
G36*
X527810Y159043D02*
X527810Y159043D01*
X526023Y159624D01*
X524349Y160477D01*
X522828Y161582D01*
X521500Y162910D01*
X520395Y164431D01*
X519542Y166105D01*
X518961Y167892D01*
X518760Y169165D01*
X529083Y169165D01*
X529083Y158842D01*
X527810Y159043D01*
G37*
%LPD*%
%LPC*%
G36*
X375410Y159043D02*
X375410Y159043D01*
X373623Y159624D01*
X371949Y160477D01*
X370428Y161582D01*
X369100Y162910D01*
X367995Y164431D01*
X367142Y166105D01*
X366561Y167892D01*
X366360Y169165D01*
X376683Y169165D01*
X376683Y158842D01*
X375410Y159043D01*
G37*
%LPD*%
%LPC*%
G36*
X527810Y71667D02*
X527810Y71667D01*
X526023Y72248D01*
X524349Y73101D01*
X522828Y74206D01*
X521500Y75534D01*
X520395Y77055D01*
X519542Y78729D01*
X518961Y80516D01*
X518760Y81789D01*
X529083Y81789D01*
X529083Y71466D01*
X527810Y71667D01*
G37*
%LPD*%
%LPC*%
G36*
X177798Y159043D02*
X177798Y159043D01*
X176011Y159624D01*
X174337Y160477D01*
X172816Y161582D01*
X171488Y162910D01*
X170383Y164431D01*
X169530Y166105D01*
X168949Y167892D01*
X168748Y169165D01*
X179071Y169165D01*
X179071Y158842D01*
X177798Y159043D01*
G37*
%LPD*%
%LPC*%
G36*
X375410Y71667D02*
X375410Y71667D01*
X373623Y72248D01*
X371949Y73101D01*
X370428Y74206D01*
X369100Y75534D01*
X367995Y77055D01*
X367142Y78729D01*
X366561Y80516D01*
X366360Y81789D01*
X376683Y81789D01*
X376683Y71466D01*
X375410Y71667D01*
G37*
%LPD*%
%LPC*%
G36*
X375410Y311443D02*
X375410Y311443D01*
X373623Y312024D01*
X371949Y312877D01*
X370428Y313982D01*
X369100Y315310D01*
X367995Y316831D01*
X367142Y318505D01*
X366561Y320292D01*
X366360Y321565D01*
X376683Y321565D01*
X376683Y311242D01*
X375410Y311443D01*
G37*
%LPD*%
%LPC*%
G36*
X177798Y71667D02*
X177798Y71667D01*
X176011Y72248D01*
X174337Y73101D01*
X172816Y74206D01*
X171488Y75534D01*
X170383Y77055D01*
X169530Y78729D01*
X168949Y80516D01*
X168748Y81789D01*
X179071Y81789D01*
X179071Y71466D01*
X177798Y71667D01*
G37*
%LPD*%
%LPC*%
G36*
X177798Y528867D02*
X177798Y528867D01*
X176011Y529448D01*
X174337Y530301D01*
X172816Y531406D01*
X171488Y532734D01*
X170383Y534255D01*
X169530Y535929D01*
X168949Y537716D01*
X168748Y538989D01*
X179071Y538989D01*
X179071Y528666D01*
X177798Y528867D01*
G37*
%LPD*%
%LPC*%
G36*
X25398Y71667D02*
X25398Y71667D01*
X23611Y72248D01*
X21937Y73101D01*
X20416Y74206D01*
X19088Y75534D01*
X17983Y77055D01*
X17130Y78729D01*
X16549Y80516D01*
X16348Y81789D01*
X26671Y81789D01*
X26671Y71466D01*
X25398Y71667D01*
G37*
%LPD*%
%LPC*%
G36*
X527810Y528867D02*
X527810Y528867D01*
X526023Y529448D01*
X524349Y530301D01*
X522828Y531406D01*
X521500Y532734D01*
X520395Y534255D01*
X519542Y535929D01*
X518961Y537716D01*
X518760Y538989D01*
X529083Y538989D01*
X529083Y528666D01*
X527810Y528867D01*
G37*
%LPD*%
%LPC*%
G36*
X124204Y102655D02*
X124204Y102655D01*
X122417Y103236D01*
X120743Y104089D01*
X119222Y105194D01*
X117894Y106522D01*
X116789Y108043D01*
X115936Y109717D01*
X115355Y111504D01*
X115154Y112777D01*
X125477Y112777D01*
X125477Y102454D01*
X124204Y102655D01*
G37*
%LPD*%
%LPC*%
G36*
X375410Y528867D02*
X375410Y528867D01*
X373623Y529448D01*
X371949Y530301D01*
X370428Y531406D01*
X369100Y532734D01*
X367995Y534255D01*
X367142Y535929D01*
X366561Y537716D01*
X366360Y538989D01*
X376683Y538989D01*
X376683Y528666D01*
X375410Y528867D01*
G37*
%LPD*%
%LPC*%
G36*
X25398Y528867D02*
X25398Y528867D01*
X23611Y529448D01*
X21937Y530301D01*
X20416Y531406D01*
X19088Y532734D01*
X17983Y534255D01*
X17130Y535929D01*
X16549Y537716D01*
X16348Y538989D01*
X26671Y538989D01*
X26671Y528666D01*
X25398Y528867D01*
G37*
%LPD*%
%LPC*%
G36*
X527810Y376467D02*
X527810Y376467D01*
X526023Y377048D01*
X524349Y377901D01*
X522828Y379006D01*
X521500Y380334D01*
X520395Y381855D01*
X519542Y383529D01*
X518961Y385316D01*
X518760Y386589D01*
X529083Y386589D01*
X529083Y376266D01*
X527810Y376467D01*
G37*
%LPD*%
%LPC*%
G36*
X375410Y376467D02*
X375410Y376467D01*
X373623Y377048D01*
X371949Y377901D01*
X370428Y379006D01*
X369100Y380334D01*
X367995Y381855D01*
X367142Y383529D01*
X366561Y385316D01*
X366360Y386589D01*
X376683Y386589D01*
X376683Y376266D01*
X375410Y376467D01*
G37*
%LPD*%
%LPC*%
G36*
X177798Y376467D02*
X177798Y376467D01*
X176011Y377048D01*
X174337Y377901D01*
X172816Y379006D01*
X171488Y380334D01*
X170383Y381855D01*
X169530Y383529D01*
X168949Y385316D01*
X168748Y386589D01*
X179071Y386589D01*
X179071Y376266D01*
X177798Y376467D01*
G37*
%LPD*%
%LPC*%
G36*
X25398Y376467D02*
X25398Y376467D01*
X23611Y377048D01*
X21937Y377901D01*
X20416Y379006D01*
X19088Y380334D01*
X17983Y381855D01*
X17130Y383529D01*
X16549Y385316D01*
X16348Y386589D01*
X26671Y386589D01*
X26671Y376266D01*
X25398Y376467D01*
G37*
%LPD*%
%LPC*%
G36*
X177798Y311443D02*
X177798Y311443D01*
X176011Y312024D01*
X174337Y312877D01*
X172816Y313982D01*
X171488Y315310D01*
X170383Y316831D01*
X169530Y318505D01*
X168949Y320292D01*
X168748Y321565D01*
X179071Y321565D01*
X179071Y311242D01*
X177798Y311443D01*
G37*
%LPD*%
%LPC*%
G36*
X527810Y6643D02*
X527810Y6643D01*
X526023Y7224D01*
X524349Y8077D01*
X522828Y9182D01*
X521500Y10510D01*
X520395Y12031D01*
X519542Y13705D01*
X518961Y15492D01*
X518760Y16765D01*
X529083Y16765D01*
X529083Y6442D01*
X527810Y6643D01*
G37*
%LPD*%
%LPC*%
G36*
X527810Y311443D02*
X527810Y311443D01*
X526023Y312024D01*
X524349Y312877D01*
X522828Y313982D01*
X521500Y315310D01*
X520395Y316831D01*
X519542Y318505D01*
X518961Y320292D01*
X518760Y321565D01*
X529083Y321565D01*
X529083Y311242D01*
X527810Y311443D01*
G37*
%LPD*%
%LPC*%
G36*
X375410Y6643D02*
X375410Y6643D01*
X373623Y7224D01*
X371949Y8077D01*
X370428Y9182D01*
X369100Y10510D01*
X367995Y12031D01*
X367142Y13705D01*
X366561Y15492D01*
X366360Y16765D01*
X376683Y16765D01*
X376683Y6442D01*
X375410Y6643D01*
G37*
%LPD*%
%LPC*%
G36*
X25398Y311443D02*
X25398Y311443D01*
X23611Y312024D01*
X21937Y312877D01*
X20416Y313982D01*
X19088Y315310D01*
X17983Y316831D01*
X17130Y318505D01*
X16549Y320292D01*
X16348Y321565D01*
X26671Y321565D01*
X26671Y311242D01*
X25398Y311443D01*
G37*
%LPD*%
%LPC*%
G36*
X177798Y6643D02*
X177798Y6643D01*
X176011Y7224D01*
X174337Y8077D01*
X172816Y9182D01*
X171488Y10510D01*
X170383Y12031D01*
X169530Y13705D01*
X168949Y15492D01*
X168748Y16765D01*
X179071Y16765D01*
X179071Y6442D01*
X177798Y6643D01*
G37*
%LPD*%
%LPC*%
G36*
X177798Y224067D02*
X177798Y224067D01*
X176011Y224648D01*
X174337Y225501D01*
X172816Y226606D01*
X171488Y227934D01*
X170383Y229455D01*
X169530Y231129D01*
X168949Y232916D01*
X168748Y234189D01*
X179071Y234189D01*
X179071Y223866D01*
X177798Y224067D01*
G37*
%LPD*%
%LPC*%
G36*
X25398Y6643D02*
X25398Y6643D01*
X23611Y7224D01*
X21937Y8077D01*
X20416Y9182D01*
X19088Y10510D01*
X17983Y12031D01*
X17130Y13705D01*
X16549Y15492D01*
X16348Y16765D01*
X26671Y16765D01*
X26671Y6442D01*
X25398Y6643D01*
G37*
%LPD*%
%LPC*%
G36*
X180593Y83311D02*
X180593Y83311D01*
X180593Y83313D01*
X180595Y83313D01*
X180595Y83311D01*
X180593Y83311D01*
G37*
%LPD*%
%LPC*%
G36*
X530605Y83311D02*
X530605Y83311D01*
X530605Y83313D01*
X530607Y83313D01*
X530607Y83311D01*
X530605Y83311D01*
G37*
%LPD*%
%LPC*%
G36*
X378205Y83311D02*
X378205Y83311D01*
X378205Y83313D01*
X378207Y83313D01*
X378207Y83311D01*
X378205Y83311D01*
G37*
%LPD*%
%LPC*%
G36*
X28193Y83311D02*
X28193Y83311D01*
X28193Y83313D01*
X28195Y83313D01*
X28195Y83311D01*
X28193Y83311D01*
G37*
%LPD*%
%LPC*%
G36*
X378205Y235711D02*
X378205Y235711D01*
X378205Y235713D01*
X378207Y235713D01*
X378207Y235711D01*
X378205Y235711D01*
G37*
%LPD*%
%LPC*%
G36*
X530605Y540511D02*
X530605Y540511D01*
X530605Y540513D01*
X530607Y540513D01*
X530607Y540511D01*
X530605Y540511D01*
G37*
%LPD*%
%LPC*%
G36*
X28193Y235711D02*
X28193Y235711D01*
X28193Y235713D01*
X28195Y235713D01*
X28195Y235711D01*
X28193Y235711D01*
G37*
%LPD*%
%LPC*%
G36*
X530605Y235711D02*
X530605Y235711D01*
X530605Y235713D01*
X530607Y235713D01*
X530607Y235711D01*
X530605Y235711D01*
G37*
%LPD*%
%LPC*%
G36*
X180593Y235711D02*
X180593Y235711D01*
X180593Y235713D01*
X180595Y235713D01*
X180595Y235711D01*
X180593Y235711D01*
G37*
%LPD*%
%LPC*%
G36*
X28193Y323087D02*
X28193Y323087D01*
X28193Y323089D01*
X28195Y323089D01*
X28195Y323087D01*
X28193Y323087D01*
G37*
%LPD*%
%LPC*%
G36*
X180593Y323087D02*
X180593Y323087D01*
X180593Y323089D01*
X180595Y323089D01*
X180595Y323087D01*
X180593Y323087D01*
G37*
%LPD*%
%LPC*%
G36*
X378205Y323087D02*
X378205Y323087D01*
X378205Y323089D01*
X378207Y323089D01*
X378207Y323087D01*
X378205Y323087D01*
G37*
%LPD*%
%LPC*%
G36*
X530605Y323087D02*
X530605Y323087D01*
X530605Y323089D01*
X530607Y323089D01*
X530607Y323087D01*
X530605Y323087D01*
G37*
%LPD*%
%LPC*%
G36*
X28193Y388111D02*
X28193Y388111D01*
X28193Y388113D01*
X28195Y388113D01*
X28195Y388111D01*
X28193Y388111D01*
G37*
%LPD*%
%LPC*%
G36*
X180593Y388111D02*
X180593Y388111D01*
X180593Y388113D01*
X180595Y388113D01*
X180595Y388111D01*
X180593Y388111D01*
G37*
%LPD*%
%LPC*%
G36*
X378205Y388111D02*
X378205Y388111D01*
X378205Y388113D01*
X378207Y388113D01*
X378207Y388111D01*
X378205Y388111D01*
G37*
%LPD*%
%LPC*%
G36*
X530605Y388111D02*
X530605Y388111D01*
X530605Y388113D01*
X530607Y388113D01*
X530607Y388111D01*
X530605Y388111D01*
G37*
%LPD*%
%LPC*%
G36*
X28193Y475487D02*
X28193Y475487D01*
X28193Y475489D01*
X28195Y475489D01*
X28195Y475487D01*
X28193Y475487D01*
G37*
%LPD*%
%LPC*%
G36*
X180593Y475487D02*
X180593Y475487D01*
X180593Y475489D01*
X180595Y475489D01*
X180595Y475487D01*
X180593Y475487D01*
G37*
%LPD*%
%LPC*%
G36*
X378205Y475487D02*
X378205Y475487D01*
X378205Y475489D01*
X378207Y475489D01*
X378207Y475487D01*
X378205Y475487D01*
G37*
%LPD*%
%LPC*%
G36*
X530605Y18287D02*
X530605Y18287D01*
X530605Y18289D01*
X530607Y18289D01*
X530607Y18287D01*
X530605Y18287D01*
G37*
%LPD*%
%LPC*%
G36*
X378205Y18287D02*
X378205Y18287D01*
X378205Y18289D01*
X378207Y18289D01*
X378207Y18287D01*
X378205Y18287D01*
G37*
%LPD*%
%LPC*%
G36*
X180593Y18287D02*
X180593Y18287D01*
X180593Y18289D01*
X180595Y18289D01*
X180595Y18287D01*
X180593Y18287D01*
G37*
%LPD*%
%LPC*%
G36*
X28193Y18287D02*
X28193Y18287D01*
X28193Y18289D01*
X28195Y18289D01*
X28195Y18287D01*
X28193Y18287D01*
G37*
%LPD*%
%LPC*%
G36*
X530605Y475487D02*
X530605Y475487D01*
X530605Y475489D01*
X530607Y475489D01*
X530607Y475487D01*
X530605Y475487D01*
G37*
%LPD*%
%LPC*%
G36*
X530605Y170687D02*
X530605Y170687D01*
X530605Y170689D01*
X530607Y170689D01*
X530607Y170687D01*
X530605Y170687D01*
G37*
%LPD*%
%LPC*%
G36*
X378205Y170687D02*
X378205Y170687D01*
X378205Y170689D01*
X378207Y170689D01*
X378207Y170687D01*
X378205Y170687D01*
G37*
%LPD*%
%LPC*%
G36*
X180593Y170687D02*
X180593Y170687D01*
X180593Y170689D01*
X180595Y170689D01*
X180595Y170687D01*
X180593Y170687D01*
G37*
%LPD*%
%LPC*%
G36*
X28193Y170687D02*
X28193Y170687D01*
X28193Y170689D01*
X28195Y170689D01*
X28195Y170687D01*
X28193Y170687D01*
G37*
%LPD*%
%LPC*%
G36*
X28193Y540511D02*
X28193Y540511D01*
X28193Y540513D01*
X28195Y540513D01*
X28195Y540511D01*
X28193Y540511D01*
G37*
%LPD*%
%LPC*%
G36*
X180593Y540511D02*
X180593Y540511D01*
X180593Y540513D01*
X180595Y540513D01*
X180595Y540511D01*
X180593Y540511D01*
G37*
%LPD*%
%LPC*%
G36*
X378205Y540511D02*
X378205Y540511D01*
X378205Y540513D01*
X378207Y540513D01*
X378207Y540511D01*
X378205Y540511D01*
G37*
%LPD*%
D10*
X485394Y475488D03*
X485394Y540512D03*
X530606Y475488D03*
X530606Y540512D03*
X225806Y540512D03*
X225806Y475488D03*
X180594Y540512D03*
X180594Y475488D03*
X225806Y388112D03*
X225806Y323088D03*
X180594Y388112D03*
X180594Y323088D03*
X225806Y235712D03*
X225806Y170688D03*
X180594Y235712D03*
X180594Y170688D03*
X225806Y83312D03*
X225806Y18288D03*
X180594Y83312D03*
X180594Y18288D03*
X73406Y540512D03*
X73406Y475488D03*
X28194Y540512D03*
X28194Y475488D03*
X73406Y388112D03*
X73406Y323088D03*
X28194Y388112D03*
X28194Y323088D03*
X73406Y235712D03*
X73406Y170688D03*
X28194Y235712D03*
X28194Y170688D03*
X73406Y83312D03*
X73406Y18288D03*
X28194Y83312D03*
X28194Y18288D03*
X332994Y18288D03*
X332994Y83312D03*
X378206Y18288D03*
X378206Y83312D03*
X332994Y170688D03*
X332994Y235712D03*
X378206Y170688D03*
X378206Y235712D03*
X332994Y323088D03*
X332994Y388112D03*
X378206Y323088D03*
X378206Y388112D03*
X332994Y475488D03*
X332994Y540512D03*
X378206Y475488D03*
X378206Y540512D03*
X485394Y18288D03*
X485394Y83312D03*
X530606Y18288D03*
X530606Y83312D03*
X485394Y170688D03*
X485394Y235712D03*
X530606Y170688D03*
X530606Y235712D03*
X485394Y323088D03*
X485394Y388112D03*
X530606Y323088D03*
X530606Y388112D03*
X127000Y38100D03*
X127000Y63500D03*
X127000Y88900D03*
X127000Y114300D03*
X127000Y139700D03*
X127000Y165100D03*
X127000Y190500D03*
X127000Y215900D03*
X127000Y241300D03*
X127000Y266700D03*
X127000Y292100D03*
X127000Y317500D03*
X279400Y317500D03*
X279400Y292100D03*
X279400Y266700D03*
X279400Y241300D03*
X279400Y215900D03*
X279400Y190500D03*
X279400Y165100D03*
X279400Y139700D03*
X279400Y114300D03*
X279400Y88900D03*
X279400Y63500D03*
X279400Y38100D03*
M02*
