G04 EAGLE Gerber X2 export*
G04 #@! %TF.Part,Single*
G04 #@! %TF.FileFunction,Copper,L16,Bot,Mixed*
G04 #@! %TF.FilePolarity,Positive*
G04 #@! %TF.GenerationSoftware,Autodesk,EAGLE,9.0.1*
G04 #@! %TF.CreationDate,2018-05-25T15:16:36Z*
G75*
%MOMM*%
%FSLAX44Y44*%
%LPD*%
%AMOC8*
5,1,8,0,0,1.08239X$1,22.5*%
G01*
%ADD10C,1.879600*%
%ADD11R,1.000000X1.100000*%
%ADD12C,0.304800*%

G36*
X489953Y561324D02*
X489953Y561324D01*
X489856Y561314D01*
X489832Y561304D01*
X489806Y561300D01*
X489720Y561254D01*
X489631Y561214D01*
X489612Y561197D01*
X489589Y561184D01*
X489522Y561114D01*
X489450Y561048D01*
X489437Y561025D01*
X489419Y561006D01*
X489379Y560918D01*
X489332Y560832D01*
X489327Y560807D01*
X489316Y560783D01*
X489305Y560686D01*
X489288Y560590D01*
X489292Y560564D01*
X489289Y560539D01*
X489309Y560443D01*
X489324Y560347D01*
X489335Y560324D01*
X489341Y560298D01*
X489391Y560215D01*
X489435Y560128D01*
X489454Y560109D01*
X489467Y560087D01*
X489541Y560024D01*
X489611Y559956D01*
X489639Y559940D01*
X489654Y559927D01*
X489685Y559915D01*
X489758Y559875D01*
X493297Y558409D01*
X496473Y557093D01*
X501975Y551591D01*
X504953Y544402D01*
X504953Y536622D01*
X501975Y529433D01*
X501208Y528666D01*
X498822Y526280D01*
X498810Y526263D01*
X498795Y526251D01*
X498764Y526203D01*
X498758Y526196D01*
X498753Y526186D01*
X498738Y526164D01*
X498678Y526080D01*
X498672Y526061D01*
X498662Y526044D01*
X498636Y525944D01*
X498606Y525845D01*
X498606Y525825D01*
X498601Y525805D01*
X498610Y525702D01*
X498612Y525599D01*
X498619Y525580D01*
X498621Y525560D01*
X498661Y525465D01*
X498697Y525368D01*
X498709Y525352D01*
X498717Y525334D01*
X498822Y525203D01*
X500141Y523884D01*
X500215Y523831D01*
X500284Y523771D01*
X500315Y523759D01*
X500341Y523740D01*
X500428Y523713D01*
X500513Y523679D01*
X500553Y523675D01*
X500576Y523668D01*
X500608Y523669D01*
X500679Y523661D01*
X506521Y523661D01*
X507709Y523169D01*
X507798Y523148D01*
X507884Y523120D01*
X507917Y523120D01*
X507948Y523113D01*
X508039Y523121D01*
X508130Y523122D01*
X508170Y523134D01*
X508193Y523136D01*
X508222Y523149D01*
X508291Y523169D01*
X509479Y523661D01*
X523521Y523661D01*
X527256Y522114D01*
X530114Y519256D01*
X531661Y515521D01*
X531661Y500479D01*
X530114Y496744D01*
X528408Y495038D01*
X528355Y494964D01*
X528295Y494895D01*
X528283Y494865D01*
X528264Y494838D01*
X528237Y494752D01*
X528203Y494667D01*
X528199Y494626D01*
X528192Y494603D01*
X528193Y494571D01*
X528185Y494500D01*
X528185Y481156D01*
X528183Y481151D01*
X528182Y481149D01*
X528181Y481147D01*
X528134Y480980D01*
X528087Y480816D01*
X528087Y480814D01*
X528086Y480812D01*
X528067Y480568D01*
X528067Y476504D01*
X528070Y476478D01*
X528068Y476452D01*
X528090Y476305D01*
X528107Y476158D01*
X528115Y476133D01*
X528119Y476107D01*
X528174Y475970D01*
X528224Y475830D01*
X528238Y475808D01*
X528248Y475783D01*
X528333Y475662D01*
X528413Y475537D01*
X528432Y475519D01*
X528447Y475497D01*
X528463Y475483D01*
X528381Y475398D01*
X528367Y475375D01*
X528350Y475356D01*
X528278Y475226D01*
X528202Y475099D01*
X528194Y475074D01*
X528181Y475051D01*
X528141Y474908D01*
X528096Y474767D01*
X528093Y474741D01*
X528086Y474716D01*
X528067Y474472D01*
X528067Y463803D01*
X527956Y463820D01*
X527810Y463843D01*
X526023Y464424D01*
X524487Y465207D01*
X524349Y465277D01*
X522828Y466382D01*
X521500Y467710D01*
X520762Y468726D01*
X520395Y469231D01*
X520324Y469370D01*
X520315Y469383D01*
X520309Y469398D01*
X520242Y469482D01*
X520178Y469568D01*
X520165Y469577D01*
X520155Y469590D01*
X520065Y469648D01*
X519977Y469710D01*
X519962Y469714D01*
X519949Y469723D01*
X519844Y469749D01*
X519741Y469780D01*
X519725Y469779D01*
X519710Y469783D01*
X519603Y469775D01*
X519496Y469771D01*
X519481Y469765D01*
X519465Y469764D01*
X519366Y469722D01*
X519265Y469684D01*
X519253Y469674D01*
X519238Y469668D01*
X519107Y469563D01*
X510305Y460760D01*
X510263Y460702D01*
X510214Y460650D01*
X510192Y460603D01*
X510161Y460561D01*
X510140Y460492D01*
X510110Y460427D01*
X510104Y460375D01*
X510089Y460325D01*
X510091Y460254D01*
X510083Y460183D01*
X510094Y460132D01*
X510095Y460080D01*
X510120Y460012D01*
X510135Y459942D01*
X510162Y459898D01*
X510180Y459849D01*
X510225Y459793D01*
X510261Y459731D01*
X510301Y459697D01*
X510334Y459657D01*
X510394Y459618D01*
X510448Y459571D01*
X510497Y459552D01*
X510540Y459524D01*
X510610Y459506D01*
X510677Y459479D01*
X510748Y459471D01*
X510779Y459463D01*
X510802Y459465D01*
X510843Y459461D01*
X511642Y459461D01*
X512111Y459335D01*
X518677Y457576D01*
X524984Y453934D01*
X530134Y448784D01*
X533776Y442477D01*
X535661Y435442D01*
X535661Y428158D01*
X535510Y427594D01*
X535189Y426400D01*
X533776Y421123D01*
X530134Y414816D01*
X524984Y409666D01*
X518677Y406024D01*
X513098Y404530D01*
X511642Y404139D01*
X504358Y404139D01*
X502902Y404530D01*
X499835Y405351D01*
X499834Y405351D01*
X497323Y406024D01*
X491016Y409666D01*
X490411Y410271D01*
X485866Y414816D01*
X482224Y421123D01*
X480457Y427721D01*
X480339Y428158D01*
X480339Y428957D01*
X480328Y429028D01*
X480326Y429099D01*
X480308Y429148D01*
X480300Y429200D01*
X480266Y429263D01*
X480241Y429330D01*
X480209Y429371D01*
X480184Y429417D01*
X480132Y429466D01*
X480088Y429522D01*
X480044Y429550D01*
X480006Y429586D01*
X479941Y429617D01*
X479881Y429655D01*
X479830Y429668D01*
X479783Y429690D01*
X479712Y429698D01*
X479642Y429715D01*
X479590Y429711D01*
X479539Y429717D01*
X479468Y429702D01*
X479397Y429696D01*
X479349Y429676D01*
X479298Y429665D01*
X479237Y429628D01*
X479171Y429600D01*
X479115Y429555D01*
X479087Y429539D01*
X479072Y429521D01*
X479069Y429518D01*
X478280Y429192D01*
X478280Y429191D01*
X474764Y427735D01*
X355675Y427735D01*
X355585Y427721D01*
X355494Y427713D01*
X355465Y427701D01*
X355433Y427696D01*
X355352Y427653D01*
X355268Y427617D01*
X355236Y427591D01*
X355215Y427580D01*
X355193Y427557D01*
X355137Y427512D01*
X336566Y408942D01*
X336540Y408905D01*
X336506Y408873D01*
X336468Y408805D01*
X336423Y408742D01*
X336409Y408698D01*
X336387Y408658D01*
X336373Y408581D01*
X336351Y408507D01*
X336352Y408461D01*
X336344Y408416D01*
X336355Y408339D01*
X336357Y408261D01*
X336373Y408218D01*
X336379Y408173D01*
X336415Y408103D01*
X336441Y408030D01*
X336470Y407994D01*
X336491Y407953D01*
X336546Y407899D01*
X336595Y407838D01*
X336634Y407813D01*
X336666Y407781D01*
X336786Y407715D01*
X336802Y407705D01*
X336807Y407704D01*
X336813Y407700D01*
X344073Y404693D01*
X349575Y399191D01*
X352553Y392002D01*
X352553Y384222D01*
X349575Y377033D01*
X346961Y374418D01*
X346422Y373880D01*
X346410Y373863D01*
X346395Y373851D01*
X346338Y373764D01*
X346278Y373680D01*
X346272Y373661D01*
X346262Y373644D01*
X346236Y373544D01*
X346206Y373445D01*
X346206Y373425D01*
X346201Y373405D01*
X346210Y373302D01*
X346212Y373199D01*
X346219Y373180D01*
X346221Y373160D01*
X346261Y373065D01*
X346297Y372968D01*
X346309Y372952D01*
X346317Y372934D01*
X346422Y372803D01*
X347741Y371484D01*
X347815Y371431D01*
X347884Y371371D01*
X347914Y371359D01*
X347941Y371340D01*
X348028Y371313D01*
X348113Y371279D01*
X348153Y371275D01*
X348176Y371268D01*
X348208Y371269D01*
X348279Y371261D01*
X354121Y371261D01*
X355309Y370769D01*
X355398Y370748D01*
X355484Y370720D01*
X355517Y370720D01*
X355548Y370713D01*
X355639Y370721D01*
X355730Y370722D01*
X355770Y370734D01*
X355793Y370736D01*
X355822Y370749D01*
X355891Y370769D01*
X357079Y371261D01*
X371121Y371261D01*
X374856Y369714D01*
X377714Y366856D01*
X379261Y363121D01*
X379261Y348079D01*
X377714Y344344D01*
X376008Y342638D01*
X375955Y342564D01*
X375895Y342495D01*
X375883Y342465D01*
X375864Y342438D01*
X375837Y342352D01*
X375803Y342267D01*
X375799Y342226D01*
X375792Y342203D01*
X375793Y342171D01*
X375785Y342100D01*
X375785Y324104D01*
X375788Y324078D01*
X375786Y324052D01*
X375808Y323905D01*
X375825Y323758D01*
X375833Y323733D01*
X375837Y323707D01*
X375892Y323570D01*
X375942Y323430D01*
X375956Y323408D01*
X375966Y323383D01*
X376051Y323262D01*
X376124Y323149D01*
X376084Y323105D01*
X375981Y322998D01*
X375967Y322975D01*
X375950Y322956D01*
X375878Y322826D01*
X375802Y322699D01*
X375794Y322674D01*
X375781Y322651D01*
X375741Y322508D01*
X375696Y322367D01*
X375693Y322341D01*
X375686Y322316D01*
X375667Y322072D01*
X375667Y311403D01*
X375556Y311420D01*
X375410Y311443D01*
X373623Y312024D01*
X372237Y312730D01*
X371949Y312877D01*
X370428Y313982D01*
X370056Y314354D01*
X370040Y314366D01*
X370027Y314382D01*
X369940Y314438D01*
X369856Y314498D01*
X369837Y314504D01*
X369820Y314515D01*
X369720Y314540D01*
X369621Y314570D01*
X369601Y314570D01*
X369582Y314575D01*
X369479Y314567D01*
X369375Y314564D01*
X369356Y314557D01*
X369336Y314556D01*
X369241Y314515D01*
X369144Y314480D01*
X369128Y314467D01*
X369110Y314459D01*
X368979Y314354D01*
X359709Y305084D01*
X359667Y305026D01*
X359618Y304974D01*
X359596Y304927D01*
X359565Y304885D01*
X359544Y304816D01*
X359514Y304751D01*
X359508Y304699D01*
X359493Y304649D01*
X359495Y304578D01*
X359487Y304507D01*
X359498Y304456D01*
X359499Y304404D01*
X359524Y304336D01*
X359539Y304266D01*
X359566Y304222D01*
X359584Y304173D01*
X359629Y304117D01*
X359665Y304055D01*
X359705Y304021D01*
X359738Y303981D01*
X359798Y303942D01*
X359852Y303895D01*
X359901Y303876D01*
X359944Y303848D01*
X360014Y303830D01*
X360081Y303803D01*
X360152Y303795D01*
X360183Y303787D01*
X360206Y303789D01*
X360247Y303785D01*
X477060Y303785D01*
X477156Y303800D01*
X477253Y303810D01*
X477277Y303820D01*
X477302Y303824D01*
X477388Y303870D01*
X477477Y303910D01*
X477497Y303927D01*
X477520Y303940D01*
X477587Y304010D01*
X477659Y304076D01*
X477671Y304099D01*
X477689Y304118D01*
X477730Y304206D01*
X477777Y304292D01*
X477782Y304317D01*
X477793Y304341D01*
X477804Y304438D01*
X477821Y304534D01*
X477817Y304560D01*
X477820Y304585D01*
X477799Y304681D01*
X477785Y304777D01*
X477773Y304800D01*
X477768Y304826D01*
X477718Y304909D01*
X477674Y304996D01*
X477655Y305015D01*
X477642Y305037D01*
X477568Y305100D01*
X477498Y305168D01*
X477469Y305184D01*
X477455Y305197D01*
X477424Y305209D01*
X477351Y305249D01*
X474315Y306507D01*
X468813Y312009D01*
X465835Y319198D01*
X465835Y326978D01*
X468813Y334167D01*
X473486Y338841D01*
X473539Y338914D01*
X473599Y338984D01*
X473611Y339014D01*
X473630Y339040D01*
X473657Y339127D01*
X473691Y339212D01*
X473695Y339253D01*
X473702Y339275D01*
X473701Y339308D01*
X473709Y339379D01*
X473709Y343818D01*
X475488Y348113D01*
X478882Y351507D01*
X482437Y355062D01*
X482449Y355078D01*
X482464Y355090D01*
X482520Y355178D01*
X482581Y355261D01*
X482586Y355280D01*
X482597Y355297D01*
X482623Y355398D01*
X482653Y355497D01*
X482652Y355516D01*
X482657Y355536D01*
X482649Y355639D01*
X482647Y355742D01*
X482640Y355761D01*
X482638Y355781D01*
X482598Y355876D01*
X482562Y355973D01*
X482550Y355989D01*
X482542Y356007D01*
X482437Y356138D01*
X475488Y363087D01*
X473709Y367382D01*
X473709Y371821D01*
X473695Y371911D01*
X473687Y372002D01*
X473675Y372032D01*
X473670Y372064D01*
X473627Y372145D01*
X473591Y372229D01*
X473565Y372261D01*
X473554Y372281D01*
X473531Y372304D01*
X473486Y372359D01*
X473263Y372583D01*
X468813Y377033D01*
X465835Y384222D01*
X465835Y392002D01*
X468813Y399191D01*
X474315Y404693D01*
X481504Y407671D01*
X489284Y407671D01*
X496473Y404693D01*
X498363Y402803D01*
X501975Y399191D01*
X504953Y392002D01*
X504953Y384222D01*
X501975Y377033D01*
X499361Y374418D01*
X498822Y373880D01*
X498810Y373863D01*
X498795Y373851D01*
X498738Y373764D01*
X498678Y373680D01*
X498672Y373661D01*
X498662Y373644D01*
X498636Y373544D01*
X498606Y373445D01*
X498606Y373425D01*
X498601Y373405D01*
X498610Y373302D01*
X498612Y373199D01*
X498619Y373180D01*
X498621Y373160D01*
X498661Y373065D01*
X498697Y372968D01*
X498709Y372952D01*
X498717Y372934D01*
X498822Y372803D01*
X500141Y371484D01*
X500215Y371431D01*
X500284Y371371D01*
X500314Y371359D01*
X500341Y371340D01*
X500428Y371313D01*
X500513Y371279D01*
X500553Y371275D01*
X500576Y371268D01*
X500608Y371269D01*
X500679Y371261D01*
X506521Y371261D01*
X507709Y370769D01*
X507798Y370748D01*
X507884Y370720D01*
X507917Y370720D01*
X507948Y370713D01*
X508039Y370721D01*
X508130Y370722D01*
X508170Y370734D01*
X508193Y370736D01*
X508222Y370749D01*
X508291Y370769D01*
X509479Y371261D01*
X523521Y371261D01*
X527256Y369714D01*
X530114Y366856D01*
X531661Y363121D01*
X531661Y348079D01*
X530114Y344344D01*
X528631Y342861D01*
X528408Y342638D01*
X528355Y342564D01*
X528295Y342495D01*
X528283Y342465D01*
X528264Y342439D01*
X528237Y342352D01*
X528203Y342267D01*
X528199Y342226D01*
X528192Y342203D01*
X528193Y342171D01*
X528185Y342100D01*
X528185Y324104D01*
X528188Y324078D01*
X528186Y324052D01*
X528208Y323905D01*
X528225Y323758D01*
X528233Y323733D01*
X528237Y323707D01*
X528292Y323570D01*
X528342Y323430D01*
X528356Y323408D01*
X528366Y323383D01*
X528451Y323262D01*
X528531Y323137D01*
X528550Y323119D01*
X528565Y323097D01*
X528581Y323083D01*
X528499Y322998D01*
X528485Y322975D01*
X528468Y322956D01*
X528396Y322826D01*
X528320Y322699D01*
X528312Y322674D01*
X528299Y322651D01*
X528259Y322508D01*
X528214Y322367D01*
X528212Y322341D01*
X528204Y322316D01*
X528185Y322072D01*
X528185Y310976D01*
X528183Y310971D01*
X528182Y310969D01*
X528181Y310967D01*
X528158Y310884D01*
X528141Y310854D01*
X528125Y310830D01*
X528122Y310820D01*
X528114Y310804D01*
X526406Y306681D01*
X501919Y282194D01*
X497624Y280415D01*
X348055Y280415D01*
X347965Y280401D01*
X347874Y280393D01*
X347844Y280381D01*
X347813Y280376D01*
X347732Y280333D01*
X347648Y280297D01*
X347616Y280271D01*
X347595Y280260D01*
X347573Y280237D01*
X347517Y280192D01*
X347009Y279684D01*
X346967Y279626D01*
X346918Y279574D01*
X346896Y279527D01*
X346865Y279485D01*
X346844Y279416D01*
X346814Y279351D01*
X346808Y279299D01*
X346793Y279249D01*
X346795Y279178D01*
X346787Y279107D01*
X346798Y279056D01*
X346799Y279004D01*
X346824Y278936D01*
X346839Y278866D01*
X346866Y278821D01*
X346884Y278773D01*
X346929Y278717D01*
X346965Y278655D01*
X347005Y278621D01*
X347038Y278581D01*
X347098Y278542D01*
X347152Y278495D01*
X347201Y278476D01*
X347244Y278448D01*
X347314Y278430D01*
X347381Y278403D01*
X347452Y278395D01*
X347483Y278387D01*
X347506Y278389D01*
X347547Y278385D01*
X484924Y278385D01*
X487097Y277485D01*
X488313Y276981D01*
X489219Y276606D01*
X492613Y273212D01*
X521379Y244446D01*
X521395Y244434D01*
X521408Y244418D01*
X521495Y244362D01*
X521579Y244302D01*
X521598Y244296D01*
X521615Y244285D01*
X521715Y244260D01*
X521814Y244230D01*
X521834Y244230D01*
X521853Y244225D01*
X521956Y244233D01*
X522060Y244236D01*
X522079Y244243D01*
X522098Y244244D01*
X522193Y244285D01*
X522291Y244320D01*
X522306Y244333D01*
X522325Y244341D01*
X522456Y244446D01*
X522828Y244818D01*
X523063Y244989D01*
X523580Y245365D01*
X524349Y245923D01*
X526023Y246776D01*
X527810Y247357D01*
X527956Y247380D01*
X528067Y247397D01*
X528067Y236728D01*
X528070Y236702D01*
X528068Y236676D01*
X528090Y236529D01*
X528107Y236382D01*
X528115Y236357D01*
X528119Y236331D01*
X528174Y236194D01*
X528224Y236054D01*
X528238Y236032D01*
X528248Y236007D01*
X528333Y235886D01*
X528413Y235761D01*
X528432Y235743D01*
X528447Y235721D01*
X528526Y235650D01*
X528499Y235622D01*
X528485Y235599D01*
X528468Y235580D01*
X528396Y235450D01*
X528320Y235323D01*
X528312Y235298D01*
X528299Y235275D01*
X528259Y235132D01*
X528214Y234991D01*
X528212Y234965D01*
X528204Y234940D01*
X528185Y234696D01*
X528185Y216700D01*
X528188Y216681D01*
X528186Y216661D01*
X528201Y216592D01*
X528207Y216519D01*
X528219Y216489D01*
X528224Y216457D01*
X528234Y216439D01*
X528238Y216421D01*
X528274Y216361D01*
X528303Y216293D01*
X528329Y216261D01*
X528340Y216240D01*
X528355Y216225D01*
X528364Y216210D01*
X528380Y216196D01*
X528408Y216162D01*
X528631Y215939D01*
X530114Y214456D01*
X531661Y210721D01*
X531661Y195679D01*
X530114Y191944D01*
X527256Y189086D01*
X523521Y187539D01*
X509479Y187539D01*
X508291Y188031D01*
X508203Y188052D01*
X508116Y188080D01*
X508083Y188080D01*
X508052Y188087D01*
X507961Y188079D01*
X507870Y188078D01*
X507830Y188066D01*
X507807Y188064D01*
X507778Y188051D01*
X507709Y188031D01*
X506521Y187539D01*
X500679Y187539D01*
X500589Y187525D01*
X500498Y187517D01*
X500469Y187505D01*
X500437Y187500D01*
X500356Y187457D01*
X500272Y187421D01*
X500240Y187395D01*
X500219Y187384D01*
X500197Y187361D01*
X500141Y187316D01*
X498822Y185997D01*
X498810Y185981D01*
X498795Y185968D01*
X498763Y185920D01*
X498761Y185918D01*
X498760Y185914D01*
X498738Y185881D01*
X498678Y185797D01*
X498672Y185778D01*
X498662Y185762D01*
X498636Y185661D01*
X498606Y185562D01*
X498606Y185542D01*
X498601Y185523D01*
X498610Y185420D01*
X498612Y185316D01*
X498619Y185298D01*
X498621Y185278D01*
X498661Y185183D01*
X498697Y185085D01*
X498709Y185070D01*
X498717Y185051D01*
X498822Y184920D01*
X500459Y183283D01*
X501975Y181767D01*
X504953Y174578D01*
X504953Y166798D01*
X501975Y159609D01*
X498363Y155997D01*
X496473Y154107D01*
X489284Y151129D01*
X481504Y151129D01*
X474315Y154107D01*
X468813Y159609D01*
X465835Y166798D01*
X465835Y174578D01*
X468453Y180899D01*
X468813Y181767D01*
X473486Y186441D01*
X473539Y186515D01*
X473599Y186584D01*
X473611Y186614D01*
X473630Y186640D01*
X473657Y186727D01*
X473691Y186812D01*
X473695Y186853D01*
X473702Y186875D01*
X473701Y186908D01*
X473709Y186979D01*
X473709Y191418D01*
X475488Y195713D01*
X482437Y202662D01*
X482449Y202678D01*
X482464Y202690D01*
X482520Y202778D01*
X482581Y202861D01*
X482586Y202880D01*
X482597Y202897D01*
X482622Y202998D01*
X482653Y203097D01*
X482652Y203116D01*
X482657Y203136D01*
X482649Y203239D01*
X482647Y203342D01*
X482640Y203361D01*
X482638Y203381D01*
X482598Y203476D01*
X482562Y203573D01*
X482550Y203589D01*
X482542Y203607D01*
X482437Y203738D01*
X475488Y210687D01*
X473709Y214982D01*
X473709Y219421D01*
X473695Y219511D01*
X473687Y219602D01*
X473675Y219632D01*
X473670Y219664D01*
X473627Y219745D01*
X473591Y219829D01*
X473565Y219861D01*
X473554Y219881D01*
X473531Y219904D01*
X473486Y219959D01*
X473263Y220183D01*
X468813Y224633D01*
X465835Y231822D01*
X465835Y239602D01*
X468813Y246791D01*
X474315Y252293D01*
X477351Y253551D01*
X477434Y253602D01*
X477520Y253648D01*
X477538Y253667D01*
X477560Y253680D01*
X477622Y253755D01*
X477689Y253826D01*
X477700Y253850D01*
X477717Y253870D01*
X477752Y253961D01*
X477793Y254049D01*
X477796Y254075D01*
X477805Y254099D01*
X477809Y254197D01*
X477820Y254293D01*
X477814Y254319D01*
X477816Y254345D01*
X477788Y254439D01*
X477768Y254534D01*
X477754Y254556D01*
X477747Y254581D01*
X477691Y254661D01*
X477642Y254745D01*
X477622Y254762D01*
X477607Y254783D01*
X477529Y254842D01*
X477455Y254905D01*
X477430Y254915D01*
X477409Y254930D01*
X477317Y254960D01*
X477226Y254997D01*
X477194Y255000D01*
X477175Y255006D01*
X477142Y255006D01*
X477060Y255015D01*
X341328Y255015D01*
X341232Y255000D01*
X341135Y254990D01*
X341111Y254980D01*
X341086Y254976D01*
X341000Y254930D01*
X340911Y254890D01*
X340891Y254873D01*
X340868Y254860D01*
X340801Y254790D01*
X340729Y254724D01*
X340717Y254701D01*
X340699Y254682D01*
X340658Y254594D01*
X340611Y254508D01*
X340606Y254483D01*
X340595Y254459D01*
X340584Y254362D01*
X340567Y254266D01*
X340571Y254240D01*
X340568Y254215D01*
X340589Y254119D01*
X340603Y254023D01*
X340615Y254000D01*
X340620Y253974D01*
X340670Y253891D01*
X340714Y253804D01*
X340733Y253785D01*
X340746Y253763D01*
X340820Y253700D01*
X340890Y253632D01*
X340919Y253616D01*
X340933Y253603D01*
X340964Y253591D01*
X341037Y253551D01*
X344073Y252293D01*
X349575Y246791D01*
X352553Y239602D01*
X352553Y231822D01*
X349575Y224633D01*
X348059Y223117D01*
X346422Y221480D01*
X346410Y221463D01*
X346395Y221451D01*
X346338Y221364D01*
X346278Y221280D01*
X346272Y221261D01*
X346262Y221244D01*
X346236Y221144D01*
X346206Y221045D01*
X346206Y221025D01*
X346201Y221005D01*
X346210Y220902D01*
X346212Y220799D01*
X346219Y220780D01*
X346221Y220760D01*
X346261Y220665D01*
X346297Y220568D01*
X346309Y220552D01*
X346317Y220534D01*
X346422Y220403D01*
X347741Y219084D01*
X347815Y219031D01*
X347884Y218971D01*
X347914Y218959D01*
X347941Y218940D01*
X348028Y218913D01*
X348113Y218879D01*
X348153Y218875D01*
X348176Y218868D01*
X348208Y218869D01*
X348279Y218861D01*
X354121Y218861D01*
X355309Y218369D01*
X355398Y218348D01*
X355484Y218320D01*
X355517Y218320D01*
X355548Y218313D01*
X355639Y218321D01*
X355730Y218322D01*
X355770Y218334D01*
X355793Y218336D01*
X355822Y218349D01*
X355891Y218369D01*
X357079Y218861D01*
X371121Y218861D01*
X374856Y217314D01*
X377714Y214456D01*
X379261Y210721D01*
X379261Y195679D01*
X377714Y191944D01*
X376008Y190238D01*
X375955Y190164D01*
X375895Y190095D01*
X375883Y190065D01*
X375864Y190038D01*
X375837Y189952D01*
X375803Y189867D01*
X375799Y189826D01*
X375792Y189803D01*
X375793Y189771D01*
X375785Y189700D01*
X375785Y171704D01*
X375788Y171678D01*
X375786Y171652D01*
X375808Y171505D01*
X375825Y171358D01*
X375833Y171333D01*
X375837Y171307D01*
X375892Y171170D01*
X375942Y171030D01*
X375956Y171008D01*
X375966Y170983D01*
X376051Y170862D01*
X376124Y170749D01*
X376084Y170705D01*
X375981Y170598D01*
X375967Y170575D01*
X375950Y170556D01*
X375878Y170426D01*
X375802Y170299D01*
X375794Y170274D01*
X375781Y170251D01*
X375741Y170108D01*
X375696Y169967D01*
X375693Y169941D01*
X375686Y169916D01*
X375667Y169672D01*
X375667Y159003D01*
X375556Y159020D01*
X375410Y159043D01*
X373623Y159624D01*
X372087Y160407D01*
X371949Y160477D01*
X370428Y161582D01*
X370056Y161954D01*
X370040Y161966D01*
X370027Y161982D01*
X369940Y162038D01*
X369856Y162098D01*
X369837Y162104D01*
X369820Y162115D01*
X369720Y162140D01*
X369621Y162170D01*
X369601Y162170D01*
X369582Y162175D01*
X369479Y162167D01*
X369375Y162164D01*
X369356Y162157D01*
X369336Y162156D01*
X369241Y162115D01*
X369144Y162080D01*
X369128Y162067D01*
X369110Y162059D01*
X368979Y161954D01*
X352913Y145888D01*
X349519Y142494D01*
X346620Y141293D01*
X346581Y141269D01*
X346538Y141253D01*
X346477Y141205D01*
X346411Y141164D01*
X346382Y141128D01*
X346346Y141100D01*
X346304Y141034D01*
X346254Y140974D01*
X346238Y140931D01*
X346213Y140893D01*
X346194Y140817D01*
X346166Y140745D01*
X346164Y140699D01*
X346153Y140654D01*
X346159Y140577D01*
X346155Y140499D01*
X346168Y140455D01*
X346172Y140409D01*
X346202Y140338D01*
X346224Y140263D01*
X346250Y140225D01*
X346268Y140183D01*
X346336Y140098D01*
X346344Y140085D01*
X346352Y140077D01*
X346353Y140076D01*
X346364Y140061D01*
X346368Y140058D01*
X346373Y140052D01*
X347179Y139245D01*
X347294Y139131D01*
X347517Y138908D01*
X347591Y138855D01*
X347660Y138795D01*
X347691Y138783D01*
X347717Y138764D01*
X347804Y138737D01*
X347889Y138703D01*
X347930Y138699D01*
X347952Y138692D01*
X347984Y138693D01*
X348055Y138685D01*
X467144Y138685D01*
X471439Y136906D01*
X479040Y129305D01*
X479098Y129263D01*
X479150Y129214D01*
X479197Y129192D01*
X479239Y129161D01*
X479308Y129140D01*
X479373Y129110D01*
X479425Y129104D01*
X479475Y129089D01*
X479546Y129091D01*
X479617Y129083D01*
X479668Y129094D01*
X479720Y129095D01*
X479788Y129120D01*
X479858Y129135D01*
X479903Y129162D01*
X479951Y129180D01*
X480007Y129225D01*
X480069Y129261D01*
X480103Y129301D01*
X480143Y129334D01*
X480182Y129394D01*
X480229Y129448D01*
X480248Y129497D01*
X480276Y129540D01*
X480294Y129610D01*
X480321Y129677D01*
X480329Y129748D01*
X480337Y129779D01*
X480335Y129802D01*
X480339Y129843D01*
X480339Y130642D01*
X480465Y131111D01*
X482224Y137677D01*
X485866Y143984D01*
X490411Y148529D01*
X491016Y149134D01*
X497323Y152776D01*
X499834Y153449D01*
X499835Y153449D01*
X502662Y154206D01*
X504358Y154661D01*
X511642Y154661D01*
X513400Y154189D01*
X518677Y152776D01*
X524984Y149134D01*
X530134Y143984D01*
X533776Y137677D01*
X535189Y132400D01*
X535661Y130642D01*
X535661Y123358D01*
X535042Y121048D01*
X533776Y116323D01*
X530134Y110016D01*
X524984Y104866D01*
X518677Y101224D01*
X512111Y99465D01*
X511642Y99339D01*
X510843Y99339D01*
X510773Y99328D01*
X510701Y99326D01*
X510652Y99308D01*
X510600Y99300D01*
X510537Y99266D01*
X510470Y99241D01*
X510429Y99209D01*
X510383Y99184D01*
X510334Y99133D01*
X510278Y99088D01*
X510250Y99044D01*
X510214Y99006D01*
X510184Y98941D01*
X510145Y98881D01*
X510132Y98830D01*
X510110Y98783D01*
X510102Y98712D01*
X510085Y98642D01*
X510089Y98590D01*
X510083Y98539D01*
X510098Y98468D01*
X510104Y98397D01*
X510124Y98349D01*
X510135Y98298D01*
X510172Y98237D01*
X510200Y98171D01*
X510245Y98115D01*
X510261Y98087D01*
X510279Y98072D01*
X510305Y98040D01*
X519107Y89237D01*
X519120Y89228D01*
X519130Y89215D01*
X519220Y89156D01*
X519307Y89094D01*
X519322Y89089D01*
X519336Y89080D01*
X519440Y89053D01*
X519542Y89021D01*
X519558Y89022D01*
X519574Y89018D01*
X519681Y89025D01*
X519788Y89028D01*
X519803Y89033D01*
X519819Y89034D01*
X519918Y89075D01*
X520019Y89112D01*
X520032Y89122D01*
X520046Y89128D01*
X520127Y89199D01*
X520211Y89266D01*
X520220Y89279D01*
X520232Y89290D01*
X520324Y89430D01*
X520395Y89569D01*
X520762Y90074D01*
X521016Y90423D01*
X521500Y91090D01*
X522828Y92418D01*
X524349Y93523D01*
X526023Y94376D01*
X527810Y94957D01*
X527956Y94980D01*
X528067Y94997D01*
X528067Y84328D01*
X528070Y84302D01*
X528068Y84276D01*
X528090Y84129D01*
X528107Y83982D01*
X528115Y83957D01*
X528119Y83931D01*
X528174Y83794D01*
X528224Y83654D01*
X528238Y83632D01*
X528248Y83607D01*
X528333Y83486D01*
X528413Y83361D01*
X528432Y83343D01*
X528447Y83321D01*
X528463Y83307D01*
X528381Y83222D01*
X528367Y83199D01*
X528350Y83180D01*
X528278Y83050D01*
X528202Y82923D01*
X528194Y82898D01*
X528181Y82875D01*
X528141Y82732D01*
X528096Y82591D01*
X528093Y82565D01*
X528086Y82540D01*
X528067Y82296D01*
X528067Y78232D01*
X528067Y78230D01*
X528067Y78228D01*
X528087Y78053D01*
X528107Y77886D01*
X528107Y77884D01*
X528107Y77882D01*
X528183Y77649D01*
X528185Y77644D01*
X528185Y64300D01*
X528199Y64210D01*
X528207Y64119D01*
X528219Y64089D01*
X528224Y64057D01*
X528267Y63977D01*
X528303Y63893D01*
X528329Y63861D01*
X528340Y63840D01*
X528363Y63818D01*
X528408Y63762D01*
X528631Y63539D01*
X530114Y62056D01*
X531661Y58321D01*
X531661Y43279D01*
X530114Y39544D01*
X527256Y36686D01*
X523521Y35139D01*
X509479Y35139D01*
X508291Y35631D01*
X508203Y35652D01*
X508116Y35680D01*
X508083Y35680D01*
X508052Y35687D01*
X507961Y35679D01*
X507870Y35678D01*
X507830Y35666D01*
X507807Y35664D01*
X507778Y35651D01*
X507709Y35631D01*
X506521Y35139D01*
X500679Y35139D01*
X500589Y35125D01*
X500498Y35117D01*
X500469Y35105D01*
X500437Y35100D01*
X500356Y35057D01*
X500272Y35021D01*
X500240Y34995D01*
X500219Y34984D01*
X500197Y34961D01*
X500141Y34916D01*
X498822Y33597D01*
X498810Y33581D01*
X498795Y33568D01*
X498738Y33481D01*
X498678Y33397D01*
X498672Y33378D01*
X498662Y33362D01*
X498636Y33261D01*
X498606Y33162D01*
X498606Y33142D01*
X498601Y33123D01*
X498610Y33020D01*
X498612Y32916D01*
X498619Y32898D01*
X498621Y32878D01*
X498661Y32783D01*
X498697Y32685D01*
X498709Y32670D01*
X498717Y32651D01*
X498822Y32520D01*
X501975Y29367D01*
X502335Y28499D01*
X504953Y22178D01*
X504953Y14398D01*
X501975Y7209D01*
X496473Y1707D01*
X493297Y391D01*
X489758Y-1075D01*
X489675Y-1126D01*
X489589Y-1172D01*
X489571Y-1190D01*
X489549Y-1204D01*
X489486Y-1280D01*
X489419Y-1350D01*
X489408Y-1374D01*
X489392Y-1394D01*
X489357Y-1485D01*
X489316Y-1573D01*
X489313Y-1599D01*
X489304Y-1623D01*
X489299Y-1721D01*
X489289Y-1817D01*
X489294Y-1843D01*
X489293Y-1869D01*
X489320Y-1963D01*
X489341Y-2058D01*
X489354Y-2080D01*
X489362Y-2105D01*
X489417Y-2185D01*
X489467Y-2269D01*
X489487Y-2286D01*
X489502Y-2307D01*
X489580Y-2366D01*
X489654Y-2429D01*
X489678Y-2439D01*
X489699Y-2454D01*
X489792Y-2484D01*
X489882Y-2521D01*
X489915Y-2524D01*
X489933Y-2530D01*
X489966Y-2530D01*
X490049Y-2539D01*
X536976Y-2539D01*
X537066Y-2525D01*
X537157Y-2517D01*
X537187Y-2505D01*
X537219Y-2500D01*
X537299Y-2457D01*
X537383Y-2421D01*
X537415Y-2395D01*
X537436Y-2384D01*
X537458Y-2361D01*
X537514Y-2316D01*
X561116Y21286D01*
X561159Y21345D01*
X561204Y21393D01*
X561212Y21410D01*
X561229Y21429D01*
X561241Y21459D01*
X561260Y21486D01*
X561284Y21565D01*
X561308Y21616D01*
X561309Y21629D01*
X561321Y21657D01*
X561325Y21698D01*
X561332Y21721D01*
X561331Y21753D01*
X561339Y21824D01*
X561339Y244102D01*
X561332Y244145D01*
X561334Y244189D01*
X561312Y244266D01*
X561300Y244345D01*
X561279Y244383D01*
X561267Y244426D01*
X561222Y244492D01*
X561184Y244562D01*
X561153Y244592D01*
X561128Y244629D01*
X561064Y244677D01*
X561006Y244732D01*
X560967Y244750D01*
X560959Y244757D01*
X560956Y244758D01*
X560931Y244776D01*
X560795Y244829D01*
X560783Y244835D01*
X560780Y244836D01*
X560775Y244837D01*
X560210Y244989D01*
X557543Y245704D01*
X549297Y250464D01*
X542564Y257197D01*
X537804Y265443D01*
X535339Y274639D01*
X535339Y284161D01*
X537804Y293357D01*
X542564Y301603D01*
X549297Y308336D01*
X557543Y313096D01*
X560210Y313811D01*
X560213Y313812D01*
X560775Y313963D01*
X560815Y313981D01*
X560858Y313990D01*
X560926Y314031D01*
X560999Y314064D01*
X561031Y314094D01*
X561069Y314116D01*
X561121Y314177D01*
X561179Y314231D01*
X561200Y314270D01*
X561229Y314303D01*
X561259Y314377D01*
X561297Y314447D01*
X561304Y314491D01*
X561321Y314531D01*
X561337Y314676D01*
X561339Y314690D01*
X561339Y314693D01*
X561339Y314698D01*
X561339Y536976D01*
X561325Y537066D01*
X561317Y537157D01*
X561305Y537187D01*
X561300Y537219D01*
X561257Y537299D01*
X561221Y537383D01*
X561195Y537415D01*
X561184Y537436D01*
X561161Y537458D01*
X561116Y537514D01*
X537514Y561116D01*
X537440Y561169D01*
X537371Y561229D01*
X537341Y561241D01*
X537314Y561260D01*
X537228Y561287D01*
X537143Y561321D01*
X537102Y561325D01*
X537079Y561332D01*
X537047Y561331D01*
X536976Y561339D01*
X490049Y561339D01*
X489953Y561324D01*
G37*
G36*
X259841Y34210D02*
X259841Y34210D01*
X259841Y41990D01*
X262819Y49179D01*
X268321Y54681D01*
X269527Y55181D01*
X269620Y55238D01*
X269714Y55292D01*
X269724Y55303D01*
X269736Y55310D01*
X269806Y55394D01*
X269878Y55476D01*
X269883Y55489D01*
X269893Y55500D01*
X269932Y55601D01*
X269975Y55702D01*
X269976Y55716D01*
X269981Y55729D01*
X269985Y55838D01*
X269994Y55947D01*
X269991Y55961D01*
X269991Y55975D01*
X269961Y56080D01*
X269934Y56186D01*
X269926Y56201D01*
X269923Y56211D01*
X269906Y56235D01*
X269851Y56331D01*
X269283Y57113D01*
X269189Y57243D01*
X268336Y58917D01*
X267755Y60704D01*
X267715Y60961D01*
X278384Y60961D01*
X278410Y60964D01*
X278436Y60962D01*
X278583Y60984D01*
X278730Y61001D01*
X278755Y61009D01*
X278781Y61013D01*
X278918Y61068D01*
X279058Y61118D01*
X279080Y61132D01*
X279105Y61142D01*
X279226Y61227D01*
X279351Y61307D01*
X279369Y61326D01*
X279391Y61341D01*
X279405Y61357D01*
X279490Y61275D01*
X279513Y61261D01*
X279532Y61244D01*
X279662Y61172D01*
X279789Y61096D01*
X279814Y61088D01*
X279837Y61075D01*
X279980Y61035D01*
X280121Y60990D01*
X280147Y60987D01*
X280172Y60980D01*
X280416Y60961D01*
X291085Y60961D01*
X291045Y60704D01*
X290464Y58917D01*
X289611Y57243D01*
X289517Y57113D01*
X288949Y56331D01*
X288900Y56234D01*
X288847Y56138D01*
X288845Y56124D01*
X288838Y56112D01*
X288823Y56004D01*
X288803Y55896D01*
X288806Y55882D01*
X288804Y55868D01*
X288823Y55761D01*
X288839Y55653D01*
X288846Y55640D01*
X288848Y55626D01*
X288901Y55531D01*
X288951Y55434D01*
X288961Y55424D01*
X288968Y55411D01*
X289048Y55338D01*
X289126Y55261D01*
X289142Y55253D01*
X289150Y55246D01*
X289176Y55234D01*
X289273Y55181D01*
X290479Y54681D01*
X295981Y49179D01*
X298959Y41990D01*
X298959Y34210D01*
X295981Y27021D01*
X291608Y22647D01*
X291552Y22570D01*
X291491Y22497D01*
X291481Y22471D01*
X291464Y22448D01*
X291436Y22357D01*
X291401Y22268D01*
X291400Y22240D01*
X291392Y22213D01*
X291394Y22117D01*
X291390Y22022D01*
X291397Y21995D01*
X291398Y21967D01*
X291431Y21877D01*
X291457Y21786D01*
X291473Y21762D01*
X291483Y21736D01*
X291542Y21661D01*
X291596Y21583D01*
X291619Y21566D01*
X291636Y21544D01*
X291717Y21492D01*
X291793Y21435D01*
X291826Y21422D01*
X291843Y21411D01*
X291875Y21403D01*
X291949Y21374D01*
X293223Y21032D01*
X293224Y21032D01*
X293358Y20996D01*
X301603Y16236D01*
X308336Y9503D01*
X313096Y1257D01*
X313811Y-1410D01*
X313812Y-1413D01*
X313963Y-1975D01*
X313981Y-2015D01*
X313990Y-2058D01*
X314031Y-2126D01*
X314064Y-2199D01*
X314094Y-2231D01*
X314116Y-2269D01*
X314177Y-2321D01*
X314231Y-2379D01*
X314270Y-2400D01*
X314303Y-2429D01*
X314377Y-2459D01*
X314447Y-2497D01*
X314491Y-2504D01*
X314531Y-2521D01*
X314676Y-2537D01*
X314690Y-2539D01*
X314693Y-2539D01*
X314698Y-2539D01*
X328339Y-2539D01*
X328435Y-2524D01*
X328532Y-2514D01*
X328556Y-2504D01*
X328582Y-2500D01*
X328668Y-2454D01*
X328757Y-2414D01*
X328776Y-2397D01*
X328799Y-2384D01*
X328866Y-2314D01*
X328938Y-2248D01*
X328950Y-2225D01*
X328969Y-2206D01*
X329010Y-2118D01*
X329056Y-2032D01*
X329061Y-2007D01*
X329072Y-1983D01*
X329083Y-1886D01*
X329100Y-1790D01*
X329096Y-1764D01*
X329099Y-1739D01*
X329079Y-1643D01*
X329064Y-1547D01*
X329053Y-1524D01*
X329047Y-1498D01*
X328997Y-1415D01*
X328953Y-1328D01*
X328934Y-1309D01*
X328921Y-1287D01*
X328847Y-1224D01*
X328777Y-1156D01*
X328749Y-1140D01*
X328734Y-1127D01*
X328703Y-1115D01*
X328630Y-1075D01*
X325091Y391D01*
X321915Y1707D01*
X316413Y7209D01*
X313435Y14398D01*
X313435Y22178D01*
X316413Y29367D01*
X321086Y34041D01*
X321139Y34114D01*
X321199Y34184D01*
X321211Y34214D01*
X321230Y34240D01*
X321257Y34327D01*
X321291Y34412D01*
X321295Y34453D01*
X321302Y34475D01*
X321301Y34508D01*
X321309Y34579D01*
X321309Y39018D01*
X323088Y43313D01*
X330037Y50262D01*
X330049Y50278D01*
X330064Y50290D01*
X330120Y50378D01*
X330181Y50461D01*
X330186Y50480D01*
X330197Y50497D01*
X330222Y50598D01*
X330253Y50697D01*
X330252Y50716D01*
X330257Y50736D01*
X330249Y50839D01*
X330247Y50942D01*
X330240Y50961D01*
X330238Y50981D01*
X330198Y51076D01*
X330162Y51173D01*
X330150Y51189D01*
X330142Y51207D01*
X330037Y51338D01*
X323088Y58287D01*
X321309Y62582D01*
X321309Y67021D01*
X321295Y67111D01*
X321287Y67202D01*
X321275Y67232D01*
X321270Y67264D01*
X321227Y67345D01*
X321191Y67428D01*
X321165Y67461D01*
X321154Y67481D01*
X321131Y67503D01*
X321086Y67559D01*
X316413Y72233D01*
X313435Y79422D01*
X313435Y87202D01*
X316413Y94391D01*
X321915Y99893D01*
X325223Y101263D01*
X325262Y101288D01*
X325305Y101303D01*
X325366Y101352D01*
X325432Y101393D01*
X325462Y101428D01*
X325497Y101457D01*
X325539Y101523D01*
X325589Y101583D01*
X325606Y101625D01*
X325630Y101664D01*
X325649Y101740D01*
X325677Y101812D01*
X325679Y101858D01*
X325690Y101903D01*
X325684Y101980D01*
X325688Y102058D01*
X325675Y102102D01*
X325671Y102148D01*
X325641Y102219D01*
X325619Y102294D01*
X325593Y102332D01*
X325575Y102374D01*
X325490Y102481D01*
X325479Y102496D01*
X325475Y102499D01*
X325470Y102505D01*
X300183Y127792D01*
X300109Y127845D01*
X300040Y127905D01*
X300009Y127917D01*
X299983Y127936D01*
X299896Y127963D01*
X299811Y127997D01*
X299770Y128001D01*
X299748Y128008D01*
X299716Y128007D01*
X299645Y128015D01*
X295691Y128015D01*
X295601Y128001D01*
X295510Y127993D01*
X295480Y127981D01*
X295448Y127976D01*
X295368Y127933D01*
X295284Y127897D01*
X295251Y127871D01*
X295231Y127860D01*
X295209Y127837D01*
X295153Y127792D01*
X294899Y127538D01*
X294887Y127522D01*
X294871Y127510D01*
X294815Y127423D01*
X294755Y127339D01*
X294749Y127320D01*
X294738Y127303D01*
X294713Y127202D01*
X294683Y127104D01*
X294683Y127084D01*
X294678Y127064D01*
X294686Y126961D01*
X294689Y126858D01*
X294696Y126839D01*
X294697Y126819D01*
X294738Y126724D01*
X294773Y126627D01*
X294786Y126611D01*
X294794Y126593D01*
X294899Y126462D01*
X295945Y125415D01*
X295981Y125379D01*
X298959Y118190D01*
X298959Y110410D01*
X295981Y103221D01*
X295437Y102677D01*
X294899Y102138D01*
X294887Y102122D01*
X294871Y102110D01*
X294815Y102022D01*
X294755Y101939D01*
X294749Y101920D01*
X294738Y101903D01*
X294713Y101802D01*
X294683Y101703D01*
X294683Y101684D01*
X294678Y101664D01*
X294686Y101561D01*
X294689Y101458D01*
X294696Y101439D01*
X294697Y101419D01*
X294738Y101324D01*
X294773Y101227D01*
X294786Y101211D01*
X294794Y101193D01*
X294899Y101062D01*
X295981Y99979D01*
X298959Y92790D01*
X298959Y85010D01*
X295981Y77821D01*
X290479Y72319D01*
X290166Y72189D01*
X289273Y71819D01*
X289180Y71762D01*
X289086Y71708D01*
X289076Y71697D01*
X289064Y71690D01*
X288994Y71606D01*
X288922Y71524D01*
X288917Y71511D01*
X288907Y71500D01*
X288868Y71399D01*
X288825Y71298D01*
X288824Y71284D01*
X288819Y71271D01*
X288815Y71162D01*
X288806Y71053D01*
X288809Y71039D01*
X288809Y71025D01*
X288839Y70920D01*
X288866Y70814D01*
X288874Y70799D01*
X288877Y70789D01*
X288894Y70765D01*
X288949Y70669D01*
X289517Y69887D01*
X289611Y69757D01*
X290464Y68083D01*
X290481Y68032D01*
X291045Y66296D01*
X291085Y66039D01*
X280416Y66039D01*
X280390Y66036D01*
X280364Y66038D01*
X280217Y66016D01*
X280070Y65999D01*
X280045Y65991D01*
X280019Y65987D01*
X279882Y65932D01*
X279742Y65882D01*
X279720Y65868D01*
X279695Y65858D01*
X279574Y65773D01*
X279449Y65693D01*
X279431Y65674D01*
X279409Y65659D01*
X279395Y65643D01*
X279310Y65725D01*
X279287Y65739D01*
X279268Y65756D01*
X279138Y65828D01*
X279011Y65904D01*
X278986Y65912D01*
X278963Y65925D01*
X278820Y65965D01*
X278679Y66010D01*
X278653Y66012D01*
X278628Y66020D01*
X278384Y66039D01*
X267715Y66039D01*
X267755Y66296D01*
X268319Y68032D01*
X268336Y68083D01*
X269189Y69757D01*
X269283Y69887D01*
X269851Y70669D01*
X269900Y70766D01*
X269953Y70862D01*
X269955Y70876D01*
X269962Y70888D01*
X269977Y70996D01*
X269997Y71104D01*
X269994Y71118D01*
X269996Y71132D01*
X269977Y71239D01*
X269961Y71347D01*
X269954Y71360D01*
X269952Y71374D01*
X269899Y71469D01*
X269849Y71566D01*
X269839Y71576D01*
X269832Y71589D01*
X269752Y71662D01*
X269674Y71739D01*
X269658Y71747D01*
X269650Y71754D01*
X269624Y71766D01*
X269527Y71819D01*
X268634Y72189D01*
X268321Y72319D01*
X262819Y77821D01*
X259841Y85010D01*
X259841Y92790D01*
X262819Y99979D01*
X263901Y101062D01*
X263913Y101078D01*
X263929Y101090D01*
X263985Y101178D01*
X264045Y101261D01*
X264051Y101280D01*
X264062Y101297D01*
X264087Y101398D01*
X264117Y101497D01*
X264117Y101516D01*
X264122Y101536D01*
X264114Y101639D01*
X264111Y101742D01*
X264104Y101761D01*
X264103Y101781D01*
X264062Y101876D01*
X264027Y101973D01*
X264014Y101989D01*
X264006Y102007D01*
X263901Y102138D01*
X263363Y102677D01*
X262819Y103221D01*
X259841Y110410D01*
X259841Y118190D01*
X262819Y125379D01*
X263901Y126462D01*
X263913Y126478D01*
X263929Y126490D01*
X263985Y126578D01*
X264045Y126661D01*
X264051Y126680D01*
X264062Y126697D01*
X264087Y126798D01*
X264117Y126897D01*
X264117Y126916D01*
X264122Y126936D01*
X264114Y127039D01*
X264111Y127142D01*
X264104Y127161D01*
X264103Y127181D01*
X264062Y127276D01*
X264027Y127373D01*
X264014Y127389D01*
X264006Y127407D01*
X263901Y127538D01*
X263363Y128077D01*
X262819Y128621D01*
X259841Y135810D01*
X259841Y143590D01*
X262819Y150779D01*
X263901Y151862D01*
X263913Y151878D01*
X263929Y151890D01*
X263985Y151978D01*
X264045Y152061D01*
X264051Y152080D01*
X264062Y152097D01*
X264087Y152198D01*
X264117Y152297D01*
X264117Y152316D01*
X264122Y152336D01*
X264114Y152439D01*
X264111Y152542D01*
X264104Y152561D01*
X264103Y152581D01*
X264062Y152676D01*
X264027Y152773D01*
X264014Y152789D01*
X264006Y152807D01*
X263901Y152938D01*
X263363Y153477D01*
X262819Y154021D01*
X259841Y161210D01*
X259841Y168990D01*
X262819Y176179D01*
X263901Y177262D01*
X263913Y177278D01*
X263929Y177290D01*
X263985Y177378D01*
X264045Y177461D01*
X264051Y177480D01*
X264062Y177497D01*
X264087Y177598D01*
X264117Y177697D01*
X264117Y177716D01*
X264122Y177736D01*
X264114Y177839D01*
X264111Y177942D01*
X264104Y177961D01*
X264103Y177981D01*
X264062Y178076D01*
X264027Y178173D01*
X264014Y178189D01*
X264006Y178207D01*
X263901Y178338D01*
X263363Y178877D01*
X262819Y179421D01*
X259841Y186610D01*
X259841Y194390D01*
X262819Y201579D01*
X263901Y202662D01*
X263913Y202678D01*
X263929Y202690D01*
X263985Y202778D01*
X264045Y202861D01*
X264051Y202880D01*
X264062Y202897D01*
X264087Y202998D01*
X264117Y203097D01*
X264117Y203116D01*
X264122Y203136D01*
X264114Y203239D01*
X264111Y203342D01*
X264104Y203361D01*
X264103Y203381D01*
X264062Y203476D01*
X264027Y203573D01*
X264014Y203589D01*
X264006Y203607D01*
X263901Y203738D01*
X263363Y204277D01*
X262819Y204821D01*
X259841Y212010D01*
X259841Y219790D01*
X262819Y226979D01*
X263901Y228062D01*
X263913Y228078D01*
X263929Y228090D01*
X263985Y228178D01*
X264045Y228261D01*
X264051Y228280D01*
X264062Y228297D01*
X264087Y228398D01*
X264117Y228497D01*
X264117Y228516D01*
X264122Y228536D01*
X264114Y228639D01*
X264111Y228742D01*
X264104Y228761D01*
X264103Y228781D01*
X264062Y228876D01*
X264027Y228973D01*
X264014Y228989D01*
X264006Y229007D01*
X263901Y229138D01*
X263363Y229677D01*
X262819Y230221D01*
X259841Y237410D01*
X259841Y245190D01*
X262819Y252379D01*
X263901Y253462D01*
X263913Y253478D01*
X263929Y253490D01*
X263965Y253547D01*
X263991Y253574D01*
X264006Y253608D01*
X264045Y253661D01*
X264051Y253680D01*
X264062Y253697D01*
X264078Y253762D01*
X264094Y253797D01*
X264099Y253835D01*
X264117Y253897D01*
X264117Y253916D01*
X264122Y253936D01*
X264117Y254000D01*
X264121Y254041D01*
X264113Y254082D01*
X264111Y254142D01*
X264104Y254161D01*
X264103Y254181D01*
X264079Y254237D01*
X264069Y254282D01*
X264046Y254321D01*
X264027Y254373D01*
X264014Y254389D01*
X264006Y254407D01*
X263958Y254467D01*
X263943Y254493D01*
X263927Y254507D01*
X263901Y254538D01*
X263363Y255077D01*
X262819Y255621D01*
X259841Y262810D01*
X259841Y270590D01*
X262819Y277779D01*
X263901Y278862D01*
X263913Y278878D01*
X263929Y278890D01*
X263985Y278978D01*
X264045Y279061D01*
X264051Y279080D01*
X264062Y279097D01*
X264087Y279198D01*
X264117Y279297D01*
X264117Y279316D01*
X264122Y279336D01*
X264114Y279439D01*
X264111Y279542D01*
X264104Y279561D01*
X264103Y279581D01*
X264062Y279676D01*
X264027Y279773D01*
X264014Y279789D01*
X264006Y279807D01*
X263901Y279938D01*
X263363Y280477D01*
X262819Y281021D01*
X259841Y288210D01*
X259841Y295990D01*
X262819Y303179D01*
X263901Y304262D01*
X263913Y304278D01*
X263929Y304290D01*
X263985Y304378D01*
X264045Y304461D01*
X264051Y304480D01*
X264062Y304497D01*
X264087Y304598D01*
X264117Y304697D01*
X264117Y304716D01*
X264122Y304736D01*
X264114Y304839D01*
X264111Y304942D01*
X264104Y304961D01*
X264103Y304981D01*
X264062Y305076D01*
X264027Y305173D01*
X264014Y305189D01*
X264006Y305207D01*
X263901Y305338D01*
X263363Y305877D01*
X262819Y306421D01*
X259841Y313610D01*
X259841Y321390D01*
X262819Y328579D01*
X265105Y330866D01*
X267492Y333253D01*
X267545Y333327D01*
X267605Y333396D01*
X267617Y333426D01*
X267636Y333452D01*
X267663Y333539D01*
X267697Y333624D01*
X267701Y333665D01*
X267708Y333687D01*
X267707Y333720D01*
X267715Y333791D01*
X267715Y396024D01*
X269494Y400319D01*
X325470Y456295D01*
X325497Y456332D01*
X325531Y456363D01*
X325568Y456432D01*
X325614Y456495D01*
X325627Y456538D01*
X325649Y456579D01*
X325663Y456655D01*
X325686Y456730D01*
X325685Y456776D01*
X325693Y456821D01*
X325682Y456898D01*
X325680Y456976D01*
X325664Y457019D01*
X325657Y457064D01*
X325622Y457133D01*
X325595Y457207D01*
X325567Y457243D01*
X325546Y457283D01*
X325490Y457338D01*
X325442Y457399D01*
X325403Y457424D01*
X325370Y457456D01*
X325250Y457522D01*
X325235Y457532D01*
X325230Y457533D01*
X325223Y457537D01*
X321997Y458873D01*
X321915Y458907D01*
X316413Y464409D01*
X313435Y471598D01*
X313435Y479378D01*
X316053Y485699D01*
X316413Y486567D01*
X321086Y491241D01*
X321139Y491315D01*
X321199Y491384D01*
X321211Y491414D01*
X321230Y491440D01*
X321257Y491527D01*
X321291Y491612D01*
X321295Y491653D01*
X321302Y491675D01*
X321301Y491708D01*
X321309Y491779D01*
X321309Y496218D01*
X323088Y500513D01*
X330037Y507462D01*
X330049Y507478D01*
X330064Y507490D01*
X330120Y507578D01*
X330181Y507661D01*
X330186Y507680D01*
X330197Y507697D01*
X330222Y507798D01*
X330253Y507897D01*
X330252Y507916D01*
X330257Y507936D01*
X330249Y508039D01*
X330247Y508142D01*
X330240Y508161D01*
X330238Y508181D01*
X330198Y508276D01*
X330162Y508373D01*
X330150Y508389D01*
X330142Y508407D01*
X330037Y508538D01*
X323088Y515487D01*
X321309Y519782D01*
X321309Y524221D01*
X321295Y524311D01*
X321287Y524402D01*
X321275Y524432D01*
X321270Y524464D01*
X321227Y524545D01*
X321191Y524629D01*
X321165Y524661D01*
X321154Y524681D01*
X321131Y524704D01*
X321107Y524733D01*
X321105Y524737D01*
X321103Y524739D01*
X321086Y524759D01*
X320863Y524983D01*
X316413Y529433D01*
X313435Y536622D01*
X313435Y544402D01*
X316413Y551591D01*
X321915Y557093D01*
X325091Y558409D01*
X328630Y559875D01*
X328713Y559926D01*
X328799Y559972D01*
X328817Y559991D01*
X328839Y560004D01*
X328902Y560079D01*
X328969Y560150D01*
X328980Y560174D01*
X328996Y560194D01*
X329031Y560285D01*
X329072Y560373D01*
X329075Y560399D01*
X329084Y560423D01*
X329089Y560521D01*
X329099Y560617D01*
X329094Y560643D01*
X329095Y560669D01*
X329068Y560763D01*
X329047Y560858D01*
X329034Y560880D01*
X329026Y560905D01*
X328971Y560985D01*
X328921Y561069D01*
X328901Y561086D01*
X328886Y561107D01*
X328808Y561166D01*
X328734Y561229D01*
X328710Y561239D01*
X328689Y561254D01*
X328596Y561284D01*
X328506Y561321D01*
X328473Y561324D01*
X328455Y561330D01*
X328422Y561330D01*
X328339Y561339D01*
X314698Y561339D01*
X314655Y561332D01*
X314611Y561334D01*
X314534Y561312D01*
X314455Y561300D01*
X314417Y561279D01*
X314374Y561267D01*
X314308Y561222D01*
X314238Y561184D01*
X314208Y561153D01*
X314171Y561128D01*
X314123Y561064D01*
X314068Y561006D01*
X314050Y560966D01*
X314024Y560931D01*
X313971Y560795D01*
X313965Y560783D01*
X313964Y560780D01*
X313963Y560775D01*
X313801Y560174D01*
X313096Y557543D01*
X308336Y549297D01*
X301603Y542564D01*
X293357Y537804D01*
X284161Y535339D01*
X274639Y535339D01*
X265443Y537804D01*
X257197Y542564D01*
X250464Y549297D01*
X245704Y557543D01*
X244999Y560174D01*
X244988Y560213D01*
X244837Y560775D01*
X244819Y560815D01*
X244810Y560858D01*
X244769Y560926D01*
X244736Y560999D01*
X244706Y561031D01*
X244684Y561069D01*
X244623Y561121D01*
X244569Y561179D01*
X244530Y561200D01*
X244497Y561229D01*
X244423Y561259D01*
X244353Y561297D01*
X244309Y561304D01*
X244269Y561321D01*
X244124Y561337D01*
X244110Y561339D01*
X244107Y561339D01*
X244102Y561339D01*
X230461Y561339D01*
X230365Y561324D01*
X230268Y561314D01*
X230244Y561304D01*
X230218Y561300D01*
X230132Y561254D01*
X230043Y561214D01*
X230024Y561197D01*
X230001Y561184D01*
X229934Y561114D01*
X229862Y561048D01*
X229849Y561025D01*
X229831Y561006D01*
X229791Y560918D01*
X229744Y560832D01*
X229739Y560807D01*
X229728Y560783D01*
X229717Y560686D01*
X229700Y560590D01*
X229704Y560564D01*
X229701Y560539D01*
X229721Y560443D01*
X229736Y560347D01*
X229747Y560324D01*
X229753Y560298D01*
X229803Y560215D01*
X229847Y560128D01*
X229866Y560109D01*
X229879Y560087D01*
X229953Y560024D01*
X230023Y559956D01*
X230051Y559940D01*
X230066Y559927D01*
X230097Y559915D01*
X230170Y559875D01*
X233709Y558409D01*
X236885Y557093D01*
X242387Y551591D01*
X245365Y544402D01*
X245365Y536622D01*
X242387Y529433D01*
X237714Y524759D01*
X237668Y524696D01*
X237647Y524674D01*
X237643Y524665D01*
X237601Y524616D01*
X237589Y524586D01*
X237570Y524560D01*
X237543Y524473D01*
X237509Y524388D01*
X237505Y524347D01*
X237498Y524325D01*
X237499Y524292D01*
X237491Y524221D01*
X237491Y519782D01*
X235712Y515487D01*
X228763Y508538D01*
X228751Y508522D01*
X228736Y508510D01*
X228680Y508422D01*
X228619Y508339D01*
X228614Y508320D01*
X228603Y508303D01*
X228578Y508202D01*
X228547Y508103D01*
X228548Y508084D01*
X228543Y508064D01*
X228551Y507961D01*
X228553Y507858D01*
X228560Y507839D01*
X228562Y507819D01*
X228602Y507724D01*
X228638Y507627D01*
X228650Y507611D01*
X228658Y507593D01*
X228763Y507462D01*
X235712Y500513D01*
X237491Y496218D01*
X237491Y491779D01*
X237505Y491689D01*
X237513Y491598D01*
X237525Y491568D01*
X237530Y491536D01*
X237573Y491455D01*
X237609Y491372D01*
X237635Y491339D01*
X237646Y491319D01*
X237669Y491297D01*
X237714Y491241D01*
X242387Y486567D01*
X245365Y479378D01*
X245365Y471598D01*
X242387Y464409D01*
X236885Y458907D01*
X229696Y455929D01*
X221916Y455929D01*
X214727Y458907D01*
X209225Y464409D01*
X206247Y471598D01*
X206247Y479378D01*
X209225Y486567D01*
X212378Y489720D01*
X212390Y489737D01*
X212405Y489749D01*
X212462Y489836D01*
X212522Y489920D01*
X212528Y489939D01*
X212538Y489956D01*
X212564Y490056D01*
X212594Y490155D01*
X212594Y490175D01*
X212599Y490195D01*
X212590Y490298D01*
X212588Y490401D01*
X212581Y490420D01*
X212579Y490440D01*
X212539Y490535D01*
X212503Y490632D01*
X212491Y490648D01*
X212483Y490666D01*
X212378Y490797D01*
X211059Y492116D01*
X210985Y492169D01*
X210916Y492229D01*
X210885Y492241D01*
X210859Y492260D01*
X210772Y492287D01*
X210687Y492321D01*
X210647Y492325D01*
X210624Y492332D01*
X210592Y492331D01*
X210521Y492339D01*
X204679Y492339D01*
X203491Y492831D01*
X203403Y492852D01*
X203316Y492880D01*
X203283Y492880D01*
X203252Y492887D01*
X203161Y492879D01*
X203070Y492878D01*
X203030Y492866D01*
X203007Y492864D01*
X202978Y492851D01*
X202909Y492831D01*
X201721Y492339D01*
X187679Y492339D01*
X183944Y493886D01*
X182616Y495215D01*
X182600Y495226D01*
X182587Y495242D01*
X182500Y495298D01*
X182416Y495358D01*
X182397Y495364D01*
X182380Y495375D01*
X182280Y495400D01*
X182181Y495431D01*
X182161Y495430D01*
X182142Y495435D01*
X182039Y495427D01*
X181935Y495424D01*
X181916Y495417D01*
X181897Y495416D01*
X181802Y495375D01*
X181704Y495340D01*
X181689Y495327D01*
X181670Y495319D01*
X181539Y495215D01*
X172718Y486393D01*
X172680Y486341D01*
X172635Y486296D01*
X172609Y486242D01*
X172574Y486193D01*
X172555Y486132D01*
X172527Y486075D01*
X172519Y486015D01*
X172502Y485958D01*
X172503Y485894D01*
X172495Y485831D01*
X172506Y485772D01*
X172508Y485712D01*
X172530Y485652D01*
X172542Y485589D01*
X172572Y485537D01*
X172592Y485481D01*
X172632Y485431D01*
X172664Y485376D01*
X172709Y485336D01*
X172746Y485289D01*
X172800Y485255D01*
X172848Y485212D01*
X172903Y485188D01*
X172953Y485156D01*
X173015Y485140D01*
X173074Y485115D01*
X173134Y485111D01*
X173192Y485096D01*
X173255Y485101D01*
X173319Y485096D01*
X173377Y485110D01*
X173437Y485115D01*
X173496Y485140D01*
X173558Y485156D01*
X173633Y485199D01*
X173663Y485211D01*
X173682Y485227D01*
X173703Y485239D01*
X174337Y485699D01*
X176011Y486552D01*
X177402Y487004D01*
X177403Y487004D01*
X177798Y487133D01*
X178055Y487173D01*
X178055Y478027D01*
X168909Y478027D01*
X168949Y478284D01*
X169530Y480071D01*
X170383Y481745D01*
X170843Y482379D01*
X170872Y482436D01*
X170909Y482488D01*
X170927Y482545D01*
X170954Y482598D01*
X170963Y482662D01*
X170982Y482723D01*
X170980Y482783D01*
X170989Y482842D01*
X170977Y482905D01*
X170975Y482969D01*
X170955Y483025D01*
X170944Y483084D01*
X170913Y483140D01*
X170891Y483200D01*
X170853Y483246D01*
X170824Y483299D01*
X170777Y483342D01*
X170737Y483392D01*
X170687Y483424D01*
X170642Y483464D01*
X170584Y483490D01*
X170530Y483525D01*
X170472Y483539D01*
X170417Y483563D01*
X170354Y483569D01*
X170292Y483585D01*
X170232Y483580D01*
X170172Y483585D01*
X170110Y483571D01*
X170046Y483566D01*
X169991Y483542D01*
X169933Y483528D01*
X169879Y483494D01*
X169820Y483469D01*
X169753Y483415D01*
X169725Y483398D01*
X169708Y483380D01*
X169689Y483364D01*
X161768Y475443D01*
X161715Y475369D01*
X161655Y475300D01*
X161643Y475269D01*
X161624Y475243D01*
X161597Y475156D01*
X161563Y475071D01*
X161559Y475030D01*
X161552Y475008D01*
X161553Y474976D01*
X161545Y474905D01*
X161545Y268807D01*
X161556Y268737D01*
X161558Y268665D01*
X161576Y268616D01*
X161584Y268564D01*
X161618Y268501D01*
X161643Y268434D01*
X161675Y268393D01*
X161700Y268347D01*
X161752Y268298D01*
X161796Y268242D01*
X161840Y268214D01*
X161878Y268178D01*
X161943Y268148D01*
X162003Y268109D01*
X162054Y268096D01*
X162101Y268074D01*
X162172Y268066D01*
X162242Y268049D01*
X162294Y268053D01*
X162345Y268047D01*
X162416Y268062D01*
X162487Y268068D01*
X162535Y268088D01*
X162586Y268099D01*
X162647Y268136D01*
X162713Y268164D01*
X162769Y268209D01*
X162797Y268225D01*
X162812Y268243D01*
X162844Y268269D01*
X182792Y288217D01*
X182845Y288291D01*
X182905Y288360D01*
X182917Y288391D01*
X182936Y288417D01*
X182963Y288504D01*
X182997Y288589D01*
X183001Y288630D01*
X183008Y288652D01*
X183007Y288684D01*
X183015Y288755D01*
X183015Y322072D01*
X183012Y322098D01*
X183014Y322124D01*
X182992Y322271D01*
X182975Y322418D01*
X182967Y322443D01*
X182963Y322469D01*
X182908Y322606D01*
X182858Y322746D01*
X182844Y322768D01*
X182834Y322793D01*
X182749Y322914D01*
X182669Y323039D01*
X182650Y323057D01*
X182635Y323079D01*
X182619Y323093D01*
X182701Y323178D01*
X182715Y323201D01*
X182732Y323220D01*
X182804Y323350D01*
X182880Y323477D01*
X182888Y323502D01*
X182901Y323525D01*
X182941Y323668D01*
X182986Y323809D01*
X182988Y323835D01*
X182996Y323860D01*
X183015Y324104D01*
X183015Y342100D01*
X183001Y342190D01*
X182993Y342281D01*
X182981Y342311D01*
X182976Y342343D01*
X182933Y342423D01*
X182897Y342507D01*
X182871Y342539D01*
X182860Y342560D01*
X182837Y342582D01*
X182792Y342638D01*
X181086Y344344D01*
X179539Y348079D01*
X179539Y363121D01*
X181086Y366856D01*
X183944Y369714D01*
X187679Y371261D01*
X201721Y371261D01*
X202909Y370769D01*
X202998Y370748D01*
X203084Y370720D01*
X203117Y370720D01*
X203148Y370713D01*
X203239Y370721D01*
X203330Y370722D01*
X203370Y370734D01*
X203393Y370736D01*
X203422Y370749D01*
X203491Y370769D01*
X204679Y371261D01*
X210521Y371261D01*
X210611Y371275D01*
X210702Y371283D01*
X210732Y371295D01*
X210763Y371300D01*
X210844Y371343D01*
X210928Y371379D01*
X210960Y371405D01*
X210981Y371416D01*
X211003Y371439D01*
X211059Y371484D01*
X212378Y372803D01*
X212390Y372819D01*
X212405Y372832D01*
X212462Y372919D01*
X212522Y373003D01*
X212528Y373022D01*
X212538Y373038D01*
X212564Y373139D01*
X212594Y373238D01*
X212594Y373258D01*
X212599Y373277D01*
X212590Y373380D01*
X212588Y373484D01*
X212581Y373502D01*
X212579Y373522D01*
X212539Y373617D01*
X212503Y373715D01*
X212491Y373730D01*
X212483Y373749D01*
X212378Y373880D01*
X211839Y374418D01*
X209225Y377033D01*
X206247Y384222D01*
X206247Y392002D01*
X209225Y399191D01*
X214727Y404693D01*
X221916Y407671D01*
X229696Y407671D01*
X236885Y404693D01*
X242387Y399191D01*
X245365Y392002D01*
X245365Y384222D01*
X242387Y377033D01*
X237937Y372583D01*
X237714Y372359D01*
X237661Y372285D01*
X237601Y372216D01*
X237589Y372186D01*
X237570Y372160D01*
X237543Y372073D01*
X237509Y371988D01*
X237505Y371947D01*
X237498Y371925D01*
X237499Y371892D01*
X237491Y371821D01*
X237491Y367382D01*
X235712Y363087D01*
X228763Y356138D01*
X228751Y356122D01*
X228736Y356110D01*
X228680Y356022D01*
X228619Y355939D01*
X228614Y355920D01*
X228603Y355903D01*
X228577Y355802D01*
X228547Y355703D01*
X228548Y355684D01*
X228543Y355664D01*
X228551Y355561D01*
X228553Y355458D01*
X228560Y355439D01*
X228562Y355419D01*
X228602Y355324D01*
X228638Y355227D01*
X228650Y355211D01*
X228658Y355193D01*
X228763Y355062D01*
X235712Y348113D01*
X237491Y343818D01*
X237491Y339379D01*
X237505Y339289D01*
X237513Y339198D01*
X237525Y339168D01*
X237530Y339136D01*
X237573Y339055D01*
X237609Y338971D01*
X237635Y338939D01*
X237646Y338919D01*
X237669Y338896D01*
X237714Y338841D01*
X242387Y334167D01*
X242488Y333923D01*
X245365Y326978D01*
X245365Y319198D01*
X242387Y312009D01*
X236885Y306507D01*
X229696Y303529D01*
X221916Y303529D01*
X214727Y306507D01*
X209225Y312009D01*
X207849Y315330D01*
X207798Y315413D01*
X207752Y315499D01*
X207733Y315517D01*
X207720Y315539D01*
X207645Y315601D01*
X207574Y315668D01*
X207550Y315679D01*
X207530Y315696D01*
X207439Y315731D01*
X207351Y315772D01*
X207325Y315775D01*
X207301Y315784D01*
X207203Y315788D01*
X207107Y315799D01*
X207081Y315793D01*
X207055Y315794D01*
X206961Y315767D01*
X206866Y315747D01*
X206844Y315733D01*
X206819Y315726D01*
X206739Y315670D01*
X206655Y315620D01*
X206638Y315601D01*
X206617Y315586D01*
X206558Y315507D01*
X206495Y315433D01*
X206485Y315409D01*
X206470Y315388D01*
X206440Y315296D01*
X206403Y315205D01*
X206400Y315173D01*
X206394Y315154D01*
X206394Y315121D01*
X206385Y315039D01*
X206385Y281276D01*
X204606Y276981D01*
X175868Y248243D01*
X175828Y248188D01*
X175781Y248139D01*
X175757Y248089D01*
X175724Y248043D01*
X175704Y247979D01*
X175675Y247917D01*
X175668Y247862D01*
X175652Y247808D01*
X175654Y247740D01*
X175645Y247673D01*
X175657Y247618D01*
X175658Y247562D01*
X175682Y247499D01*
X175695Y247432D01*
X175723Y247384D01*
X175743Y247331D01*
X175785Y247278D01*
X175819Y247220D01*
X175861Y247183D01*
X175896Y247139D01*
X175953Y247103D01*
X176004Y247058D01*
X176056Y247037D01*
X176103Y247006D01*
X176169Y246990D01*
X176232Y246964D01*
X176288Y246960D01*
X176342Y246946D01*
X176409Y246952D01*
X176477Y246947D01*
X176554Y246963D01*
X176587Y246965D01*
X176606Y246974D01*
X176641Y246981D01*
X177798Y247357D01*
X178055Y247397D01*
X178055Y236728D01*
X178058Y236702D01*
X178056Y236676D01*
X178078Y236529D01*
X178095Y236382D01*
X178103Y236357D01*
X178107Y236331D01*
X178162Y236194D01*
X178212Y236054D01*
X178226Y236032D01*
X178236Y236007D01*
X178321Y235886D01*
X178401Y235761D01*
X178420Y235743D01*
X178435Y235721D01*
X178451Y235707D01*
X178369Y235622D01*
X178355Y235599D01*
X178338Y235580D01*
X178266Y235450D01*
X178190Y235323D01*
X178182Y235298D01*
X178169Y235275D01*
X178129Y235132D01*
X178084Y234991D01*
X178081Y234965D01*
X178074Y234940D01*
X178055Y234696D01*
X178055Y224027D01*
X177944Y224044D01*
X177798Y224067D01*
X176011Y224648D01*
X174475Y225431D01*
X174337Y225501D01*
X172816Y226606D01*
X171765Y227657D01*
X171488Y227934D01*
X170542Y229236D01*
X170536Y229242D01*
X170532Y229249D01*
X170449Y229328D01*
X170367Y229409D01*
X170360Y229413D01*
X170354Y229418D01*
X170250Y229467D01*
X170146Y229517D01*
X170138Y229519D01*
X170131Y229522D01*
X170017Y229535D01*
X169902Y229550D01*
X169894Y229548D01*
X169887Y229549D01*
X169774Y229525D01*
X169661Y229502D01*
X169654Y229498D01*
X169646Y229497D01*
X169548Y229438D01*
X169447Y229381D01*
X169442Y229375D01*
X169435Y229371D01*
X169360Y229283D01*
X169283Y229197D01*
X169280Y229190D01*
X169275Y229184D01*
X169232Y229076D01*
X169187Y228971D01*
X169186Y228963D01*
X169183Y228955D01*
X169165Y228789D01*
X169165Y215646D01*
X169168Y215626D01*
X169166Y215607D01*
X169188Y215505D01*
X169204Y215403D01*
X169214Y215386D01*
X169218Y215366D01*
X169271Y215277D01*
X169320Y215186D01*
X169334Y215172D01*
X169344Y215155D01*
X169423Y215088D01*
X169498Y215016D01*
X169516Y215008D01*
X169531Y214995D01*
X169627Y214956D01*
X169721Y214913D01*
X169741Y214911D01*
X169759Y214903D01*
X169926Y214885D01*
X181200Y214885D01*
X181290Y214899D01*
X181381Y214907D01*
X181411Y214919D01*
X181443Y214924D01*
X181523Y214967D01*
X181607Y215003D01*
X181639Y215029D01*
X181660Y215040D01*
X181682Y215063D01*
X181738Y215108D01*
X183944Y217314D01*
X187679Y218861D01*
X201721Y218861D01*
X202909Y218369D01*
X202998Y218348D01*
X203084Y218320D01*
X203117Y218320D01*
X203148Y218313D01*
X203239Y218321D01*
X203330Y218322D01*
X203370Y218334D01*
X203393Y218336D01*
X203422Y218349D01*
X203491Y218369D01*
X204679Y218861D01*
X213159Y218861D01*
X213230Y218872D01*
X213302Y218874D01*
X213351Y218892D01*
X213402Y218900D01*
X213465Y218934D01*
X213533Y218959D01*
X213573Y218991D01*
X213619Y219016D01*
X213669Y219068D01*
X213725Y219112D01*
X213753Y219156D01*
X213789Y219194D01*
X213819Y219259D01*
X213858Y219319D01*
X213870Y219370D01*
X213892Y219417D01*
X213900Y219488D01*
X213918Y219558D01*
X213914Y219610D01*
X213919Y219661D01*
X213904Y219732D01*
X213899Y219803D01*
X213878Y219851D01*
X213867Y219902D01*
X213830Y219963D01*
X213802Y220029D01*
X213758Y220085D01*
X213741Y220113D01*
X213723Y220128D01*
X213698Y220160D01*
X212397Y221461D01*
X209225Y224633D01*
X206247Y231822D01*
X206247Y239602D01*
X209225Y246791D01*
X214727Y252293D01*
X221916Y255271D01*
X229696Y255271D01*
X236885Y252293D01*
X242387Y246791D01*
X245365Y239602D01*
X245365Y231822D01*
X242387Y224633D01*
X237937Y220183D01*
X237714Y219959D01*
X237661Y219885D01*
X237601Y219816D01*
X237589Y219786D01*
X237570Y219760D01*
X237543Y219673D01*
X237509Y219588D01*
X237505Y219547D01*
X237498Y219525D01*
X237499Y219492D01*
X237491Y219421D01*
X237491Y210782D01*
X235712Y206487D01*
X230863Y201638D01*
X230851Y201622D01*
X230836Y201610D01*
X230780Y201522D01*
X230719Y201439D01*
X230714Y201420D01*
X230703Y201403D01*
X230677Y201302D01*
X230647Y201203D01*
X230648Y201184D01*
X230643Y201164D01*
X230651Y201061D01*
X230653Y200958D01*
X230660Y200939D01*
X230662Y200919D01*
X230702Y200824D01*
X230738Y200727D01*
X230750Y200711D01*
X230758Y200693D01*
X230863Y200562D01*
X235712Y195713D01*
X237491Y191418D01*
X237491Y186979D01*
X237505Y186889D01*
X237513Y186798D01*
X237525Y186768D01*
X237530Y186736D01*
X237573Y186655D01*
X237609Y186572D01*
X237635Y186539D01*
X237646Y186519D01*
X237669Y186497D01*
X237714Y186441D01*
X242387Y181767D01*
X245365Y174578D01*
X245365Y166798D01*
X242387Y159609D01*
X236885Y154107D01*
X229696Y151129D01*
X221916Y151129D01*
X214727Y154107D01*
X209225Y159609D01*
X206247Y166798D01*
X206247Y174578D01*
X209225Y181767D01*
X210741Y183283D01*
X212378Y184920D01*
X212390Y184937D01*
X212405Y184949D01*
X212462Y185036D01*
X212522Y185120D01*
X212528Y185139D01*
X212538Y185156D01*
X212564Y185256D01*
X212594Y185355D01*
X212594Y185375D01*
X212599Y185395D01*
X212590Y185498D01*
X212588Y185601D01*
X212581Y185620D01*
X212579Y185640D01*
X212539Y185735D01*
X212503Y185832D01*
X212491Y185848D01*
X212483Y185866D01*
X212378Y185997D01*
X211059Y187316D01*
X210985Y187369D01*
X210916Y187429D01*
X210886Y187441D01*
X210859Y187460D01*
X210772Y187487D01*
X210687Y187521D01*
X210647Y187525D01*
X210624Y187532D01*
X210592Y187531D01*
X210521Y187539D01*
X204679Y187539D01*
X203491Y188031D01*
X203403Y188052D01*
X203316Y188080D01*
X203283Y188080D01*
X203252Y188087D01*
X203161Y188079D01*
X203070Y188078D01*
X203030Y188066D01*
X203007Y188064D01*
X202978Y188051D01*
X202909Y188031D01*
X201721Y187539D01*
X187679Y187539D01*
X183944Y189086D01*
X181738Y191292D01*
X181664Y191345D01*
X181595Y191405D01*
X181565Y191417D01*
X181538Y191436D01*
X181452Y191463D01*
X181367Y191497D01*
X181326Y191501D01*
X181303Y191508D01*
X181271Y191507D01*
X181200Y191515D01*
X170255Y191515D01*
X170165Y191501D01*
X170074Y191493D01*
X170045Y191481D01*
X170013Y191476D01*
X169932Y191433D01*
X169848Y191397D01*
X169816Y191371D01*
X169795Y191360D01*
X169773Y191337D01*
X169717Y191292D01*
X146782Y168357D01*
X146729Y168283D01*
X146669Y168214D01*
X146657Y168183D01*
X146638Y168157D01*
X146611Y168070D01*
X146577Y167985D01*
X146573Y167944D01*
X146566Y167922D01*
X146567Y167890D01*
X146559Y167819D01*
X146559Y161210D01*
X143581Y154021D01*
X143037Y153477D01*
X142499Y152938D01*
X142487Y152922D01*
X142471Y152910D01*
X142415Y152822D01*
X142355Y152739D01*
X142349Y152720D01*
X142338Y152703D01*
X142313Y152602D01*
X142283Y152503D01*
X142283Y152484D01*
X142278Y152464D01*
X142286Y152361D01*
X142289Y152258D01*
X142296Y152239D01*
X142297Y152219D01*
X142338Y152124D01*
X142373Y152027D01*
X142386Y152011D01*
X142394Y151993D01*
X142499Y151862D01*
X143541Y150819D01*
X143594Y150781D01*
X143641Y150735D01*
X143714Y150695D01*
X143741Y150676D01*
X143759Y150670D01*
X143788Y150654D01*
X146319Y149606D01*
X162306Y133619D01*
X164085Y129324D01*
X164085Y98255D01*
X164099Y98165D01*
X164107Y98074D01*
X164119Y98045D01*
X164124Y98013D01*
X164167Y97932D01*
X164203Y97848D01*
X164229Y97816D01*
X164240Y97795D01*
X164263Y97773D01*
X164308Y97717D01*
X170673Y91352D01*
X170689Y91340D01*
X170702Y91324D01*
X170789Y91268D01*
X170873Y91208D01*
X170892Y91202D01*
X170909Y91191D01*
X171009Y91166D01*
X171108Y91136D01*
X171128Y91136D01*
X171147Y91131D01*
X171250Y91139D01*
X171354Y91142D01*
X171373Y91149D01*
X171392Y91150D01*
X171487Y91191D01*
X171585Y91226D01*
X171600Y91239D01*
X171619Y91247D01*
X171750Y91352D01*
X172816Y92418D01*
X174337Y93523D01*
X176011Y94376D01*
X177798Y94957D01*
X177944Y94980D01*
X178055Y94997D01*
X178055Y84601D01*
X178069Y84475D01*
X178076Y84349D01*
X178089Y84303D01*
X178095Y84255D01*
X178137Y84136D01*
X178172Y84014D01*
X178196Y83972D01*
X178212Y83927D01*
X178281Y83820D01*
X178342Y83710D01*
X178382Y83664D01*
X178401Y83634D01*
X178436Y83600D01*
X178501Y83524D01*
X178774Y83251D01*
X178873Y83173D01*
X178967Y83088D01*
X179009Y83064D01*
X179047Y83034D01*
X179161Y82981D01*
X179272Y82919D01*
X179318Y82906D01*
X179362Y82886D01*
X179485Y82859D01*
X179607Y82825D01*
X179668Y82820D01*
X179702Y82812D01*
X179750Y82813D01*
X179851Y82805D01*
X180087Y82805D01*
X180087Y82569D01*
X180101Y82443D01*
X180108Y82317D01*
X180121Y82271D01*
X180127Y82223D01*
X180169Y82104D01*
X180204Y81982D01*
X180228Y81940D01*
X180244Y81894D01*
X180313Y81788D01*
X180375Y81678D01*
X180414Y81632D01*
X180433Y81602D01*
X180468Y81568D01*
X180533Y81492D01*
X180806Y81219D01*
X180905Y81140D01*
X180999Y81056D01*
X181041Y81032D01*
X181079Y81002D01*
X181193Y80948D01*
X181304Y80887D01*
X181350Y80874D01*
X181394Y80853D01*
X181517Y80827D01*
X181639Y80792D01*
X181700Y80787D01*
X181735Y80780D01*
X181783Y80781D01*
X181883Y80773D01*
X192279Y80773D01*
X192274Y80738D01*
X192249Y80583D01*
X192239Y80516D01*
X191658Y78729D01*
X190805Y77055D01*
X189700Y75534D01*
X188634Y74468D01*
X188622Y74452D01*
X188606Y74439D01*
X188550Y74352D01*
X188490Y74268D01*
X188484Y74249D01*
X188473Y74232D01*
X188448Y74132D01*
X188418Y74033D01*
X188418Y74013D01*
X188413Y73994D01*
X188421Y73891D01*
X188424Y73787D01*
X188431Y73768D01*
X188432Y73748D01*
X188473Y73654D01*
X188508Y73556D01*
X188521Y73540D01*
X188529Y73522D01*
X188634Y73391D01*
X195341Y66684D01*
X195415Y66631D01*
X195484Y66571D01*
X195515Y66559D01*
X195541Y66540D01*
X195628Y66513D01*
X195713Y66479D01*
X195753Y66475D01*
X195776Y66468D01*
X195808Y66469D01*
X195879Y66461D01*
X201721Y66461D01*
X202909Y65969D01*
X202998Y65948D01*
X203084Y65920D01*
X203117Y65920D01*
X203148Y65913D01*
X203239Y65921D01*
X203330Y65922D01*
X203370Y65934D01*
X203393Y65936D01*
X203422Y65949D01*
X203491Y65969D01*
X204679Y66461D01*
X210521Y66461D01*
X210611Y66475D01*
X210702Y66483D01*
X210731Y66495D01*
X210763Y66500D01*
X210844Y66543D01*
X210928Y66579D01*
X210960Y66605D01*
X210981Y66616D01*
X211003Y66639D01*
X211059Y66684D01*
X212378Y68003D01*
X212390Y68019D01*
X212405Y68032D01*
X212462Y68119D01*
X212522Y68203D01*
X212528Y68222D01*
X212538Y68238D01*
X212564Y68339D01*
X212594Y68438D01*
X212594Y68458D01*
X212599Y68477D01*
X212590Y68580D01*
X212588Y68684D01*
X212581Y68702D01*
X212579Y68722D01*
X212539Y68817D01*
X212503Y68915D01*
X212491Y68930D01*
X212483Y68949D01*
X212378Y69080D01*
X211839Y69618D01*
X209225Y72233D01*
X206247Y79422D01*
X206247Y87202D01*
X209225Y94391D01*
X214727Y99893D01*
X221916Y102871D01*
X229696Y102871D01*
X236885Y99893D01*
X242387Y94391D01*
X245365Y87202D01*
X245365Y79422D01*
X242387Y72233D01*
X237714Y67559D01*
X237661Y67486D01*
X237601Y67416D01*
X237589Y67386D01*
X237570Y67360D01*
X237543Y67273D01*
X237509Y67188D01*
X237505Y67147D01*
X237498Y67125D01*
X237499Y67092D01*
X237491Y67021D01*
X237491Y62582D01*
X235712Y58287D01*
X228763Y51338D01*
X228751Y51322D01*
X228736Y51310D01*
X228680Y51222D01*
X228619Y51139D01*
X228614Y51120D01*
X228603Y51103D01*
X228577Y51002D01*
X228547Y50903D01*
X228548Y50884D01*
X228543Y50864D01*
X228551Y50761D01*
X228553Y50658D01*
X228560Y50639D01*
X228562Y50619D01*
X228602Y50524D01*
X228638Y50427D01*
X228650Y50411D01*
X228658Y50393D01*
X228763Y50262D01*
X235712Y43313D01*
X237491Y39018D01*
X237491Y34579D01*
X237505Y34489D01*
X237513Y34398D01*
X237525Y34368D01*
X237530Y34336D01*
X237573Y34255D01*
X237609Y34172D01*
X237635Y34139D01*
X237646Y34119D01*
X237669Y34097D01*
X237714Y34041D01*
X242387Y29367D01*
X245365Y22178D01*
X245365Y14398D01*
X242387Y7209D01*
X236885Y1707D01*
X233709Y391D01*
X230170Y-1075D01*
X230087Y-1126D01*
X230001Y-1172D01*
X229983Y-1190D01*
X229961Y-1204D01*
X229898Y-1280D01*
X229831Y-1350D01*
X229820Y-1374D01*
X229804Y-1394D01*
X229769Y-1485D01*
X229728Y-1573D01*
X229725Y-1599D01*
X229716Y-1623D01*
X229711Y-1721D01*
X229701Y-1817D01*
X229706Y-1843D01*
X229705Y-1869D01*
X229732Y-1963D01*
X229753Y-2058D01*
X229766Y-2080D01*
X229774Y-2105D01*
X229829Y-2185D01*
X229879Y-2269D01*
X229899Y-2286D01*
X229914Y-2307D01*
X229992Y-2366D01*
X230066Y-2429D01*
X230090Y-2439D01*
X230111Y-2454D01*
X230204Y-2484D01*
X230294Y-2521D01*
X230327Y-2524D01*
X230345Y-2530D01*
X230378Y-2530D01*
X230461Y-2539D01*
X244102Y-2539D01*
X244145Y-2532D01*
X244189Y-2534D01*
X244266Y-2512D01*
X244345Y-2500D01*
X244383Y-2479D01*
X244426Y-2467D01*
X244492Y-2422D01*
X244562Y-2384D01*
X244592Y-2353D01*
X244629Y-2328D01*
X244677Y-2264D01*
X244732Y-2206D01*
X244750Y-2166D01*
X244776Y-2131D01*
X244829Y-1995D01*
X244835Y-1983D01*
X244836Y-1980D01*
X244837Y-1975D01*
X244989Y-1410D01*
X245704Y1257D01*
X250464Y9503D01*
X257197Y16236D01*
X265442Y20996D01*
X265576Y21032D01*
X266851Y21374D01*
X266938Y21413D01*
X267027Y21446D01*
X267050Y21464D01*
X267075Y21475D01*
X267145Y21540D01*
X267219Y21600D01*
X267235Y21623D01*
X267255Y21642D01*
X267301Y21726D01*
X267352Y21806D01*
X267359Y21834D01*
X267373Y21859D01*
X267389Y21953D01*
X267413Y22045D01*
X267410Y22073D01*
X267415Y22101D01*
X267401Y22195D01*
X267393Y22290D01*
X267382Y22316D01*
X267378Y22344D01*
X267334Y22429D01*
X267297Y22516D01*
X267275Y22544D01*
X267265Y22563D01*
X267242Y22586D01*
X267192Y22647D01*
X262819Y27021D01*
X259841Y34210D01*
G37*
G36*
X30617Y77649D02*
X30617Y77649D01*
X30618Y77651D01*
X30619Y77653D01*
X30665Y77815D01*
X30713Y77984D01*
X30713Y77986D01*
X30714Y77988D01*
X30733Y78232D01*
X30733Y82296D01*
X30730Y82322D01*
X30732Y82348D01*
X30710Y82495D01*
X30693Y82642D01*
X30685Y82667D01*
X30681Y82693D01*
X30626Y82830D01*
X30576Y82970D01*
X30562Y82992D01*
X30552Y83017D01*
X30468Y83138D01*
X30387Y83263D01*
X30368Y83281D01*
X30353Y83303D01*
X30337Y83317D01*
X30419Y83402D01*
X30433Y83425D01*
X30450Y83444D01*
X30522Y83574D01*
X30598Y83701D01*
X30606Y83726D01*
X30619Y83749D01*
X30659Y83892D01*
X30704Y84033D01*
X30706Y84059D01*
X30714Y84084D01*
X30733Y84328D01*
X30733Y94997D01*
X30990Y94957D01*
X32777Y94376D01*
X34451Y93523D01*
X35972Y92418D01*
X37300Y91090D01*
X37784Y90423D01*
X38038Y90074D01*
X38405Y89569D01*
X38476Y89430D01*
X38485Y89417D01*
X38491Y89402D01*
X38558Y89318D01*
X38622Y89232D01*
X38635Y89223D01*
X38645Y89210D01*
X38735Y89152D01*
X38823Y89090D01*
X38838Y89086D01*
X38851Y89077D01*
X38956Y89051D01*
X39059Y89020D01*
X39075Y89021D01*
X39090Y89017D01*
X39197Y89025D01*
X39304Y89029D01*
X39319Y89035D01*
X39335Y89036D01*
X39434Y89078D01*
X39535Y89116D01*
X39547Y89126D01*
X39562Y89132D01*
X39693Y89237D01*
X48495Y98040D01*
X48537Y98098D01*
X48586Y98150D01*
X48608Y98197D01*
X48639Y98239D01*
X48660Y98308D01*
X48690Y98373D01*
X48696Y98425D01*
X48711Y98475D01*
X48709Y98546D01*
X48717Y98617D01*
X48706Y98668D01*
X48705Y98720D01*
X48680Y98788D01*
X48665Y98858D01*
X48638Y98902D01*
X48620Y98951D01*
X48575Y99007D01*
X48539Y99069D01*
X48499Y99103D01*
X48466Y99143D01*
X48406Y99182D01*
X48352Y99229D01*
X48303Y99248D01*
X48260Y99276D01*
X48190Y99294D01*
X48123Y99321D01*
X48052Y99329D01*
X48021Y99337D01*
X47998Y99335D01*
X47957Y99339D01*
X47158Y99339D01*
X46689Y99465D01*
X40123Y101224D01*
X33816Y104866D01*
X28666Y110016D01*
X25024Y116323D01*
X23758Y121048D01*
X23139Y123358D01*
X23139Y130642D01*
X23611Y132400D01*
X25024Y137677D01*
X28666Y143984D01*
X33816Y149134D01*
X40123Y152776D01*
X45400Y154189D01*
X47158Y154661D01*
X54442Y154661D01*
X56138Y154206D01*
X58965Y153449D01*
X58966Y153449D01*
X61477Y152776D01*
X67784Y149134D01*
X72934Y143984D01*
X76576Y137677D01*
X78461Y130642D01*
X78461Y129843D01*
X78472Y129773D01*
X78474Y129701D01*
X78492Y129652D01*
X78500Y129600D01*
X78534Y129537D01*
X78559Y129470D01*
X78591Y129429D01*
X78616Y129383D01*
X78668Y129334D01*
X78712Y129278D01*
X78756Y129250D01*
X78794Y129214D01*
X78859Y129184D01*
X78919Y129145D01*
X78970Y129132D01*
X79017Y129110D01*
X79088Y129102D01*
X79158Y129085D01*
X79210Y129089D01*
X79261Y129083D01*
X79332Y129098D01*
X79403Y129104D01*
X79451Y129124D01*
X79502Y129135D01*
X79563Y129172D01*
X79629Y129200D01*
X79685Y129245D01*
X79713Y129261D01*
X79728Y129279D01*
X79760Y129305D01*
X94772Y144317D01*
X94825Y144391D01*
X94885Y144460D01*
X94897Y144491D01*
X94916Y144517D01*
X94943Y144604D01*
X94977Y144689D01*
X94981Y144730D01*
X94988Y144752D01*
X94987Y144784D01*
X94995Y144855D01*
X94995Y231423D01*
X94987Y231475D01*
X94988Y231528D01*
X94960Y231638D01*
X94956Y231666D01*
X94951Y231675D01*
X94947Y231690D01*
X94923Y231753D01*
X94995Y233865D01*
X94994Y233875D01*
X94995Y233891D01*
X94995Y236004D01*
X95021Y236066D01*
X95033Y236118D01*
X95054Y236166D01*
X95071Y236278D01*
X95077Y236306D01*
X95076Y236316D01*
X95079Y236332D01*
X95081Y236399D01*
X95955Y238323D01*
X95958Y238333D01*
X95966Y238347D01*
X96774Y240299D01*
X96822Y240346D01*
X96852Y240389D01*
X96891Y240426D01*
X96949Y240523D01*
X96965Y240546D01*
X96968Y240556D01*
X96977Y240570D01*
X97004Y240631D01*
X98548Y242074D01*
X98555Y242082D01*
X98567Y242092D01*
X100061Y243586D01*
X100123Y243612D01*
X100168Y243639D01*
X100217Y243658D01*
X100308Y243726D01*
X100332Y243741D01*
X100339Y243749D01*
X100352Y243759D01*
X100401Y243805D01*
X102379Y244546D01*
X102388Y244552D01*
X102403Y244556D01*
X104356Y245365D01*
X104423Y245365D01*
X104475Y245373D01*
X104528Y245372D01*
X104638Y245400D01*
X104666Y245404D01*
X104675Y245409D01*
X104690Y245413D01*
X107747Y246559D01*
X107837Y246611D01*
X107930Y246658D01*
X107943Y246672D01*
X107960Y246682D01*
X108029Y246760D01*
X108102Y246834D01*
X108113Y246855D01*
X108123Y246866D01*
X108136Y246895D01*
X108183Y246981D01*
X110419Y252379D01*
X111501Y253462D01*
X111513Y253478D01*
X111529Y253490D01*
X111565Y253547D01*
X111591Y253574D01*
X111606Y253607D01*
X111645Y253661D01*
X111651Y253680D01*
X111662Y253697D01*
X111678Y253762D01*
X111694Y253797D01*
X111699Y253835D01*
X111717Y253897D01*
X111717Y253916D01*
X111722Y253936D01*
X111717Y254000D01*
X111721Y254041D01*
X111713Y254082D01*
X111711Y254142D01*
X111704Y254161D01*
X111703Y254181D01*
X111679Y254236D01*
X111669Y254282D01*
X111646Y254321D01*
X111627Y254373D01*
X111614Y254389D01*
X111606Y254407D01*
X111558Y254467D01*
X111543Y254493D01*
X111526Y254507D01*
X111502Y254538D01*
X111248Y254792D01*
X111173Y254845D01*
X111104Y254905D01*
X111074Y254917D01*
X111048Y254936D01*
X110961Y254963D01*
X110876Y254997D01*
X110835Y255001D01*
X110813Y255008D01*
X110780Y255007D01*
X110709Y255015D01*
X86435Y255015D01*
X86345Y255001D01*
X86254Y254993D01*
X86225Y254981D01*
X86193Y254976D01*
X86112Y254933D01*
X86028Y254897D01*
X85996Y254871D01*
X85975Y254860D01*
X85953Y254837D01*
X85897Y254792D01*
X84480Y253375D01*
X84468Y253359D01*
X84453Y253346D01*
X84396Y253259D01*
X84336Y253175D01*
X84330Y253156D01*
X84320Y253140D01*
X84294Y253039D01*
X84264Y252940D01*
X84264Y252920D01*
X84259Y252901D01*
X84268Y252798D01*
X84270Y252694D01*
X84277Y252676D01*
X84279Y252656D01*
X84319Y252561D01*
X84355Y252463D01*
X84367Y252448D01*
X84375Y252429D01*
X84480Y252298D01*
X89987Y246791D01*
X92965Y239602D01*
X92965Y231822D01*
X89987Y224633D01*
X85314Y219959D01*
X85261Y219886D01*
X85201Y219816D01*
X85189Y219786D01*
X85170Y219760D01*
X85143Y219673D01*
X85109Y219588D01*
X85105Y219547D01*
X85098Y219525D01*
X85099Y219492D01*
X85091Y219421D01*
X85091Y214982D01*
X83312Y210687D01*
X76363Y203738D01*
X76351Y203722D01*
X76336Y203710D01*
X76280Y203622D01*
X76219Y203539D01*
X76214Y203520D01*
X76203Y203503D01*
X76177Y203402D01*
X76147Y203303D01*
X76148Y203284D01*
X76143Y203264D01*
X76151Y203161D01*
X76153Y203058D01*
X76160Y203039D01*
X76162Y203019D01*
X76202Y202924D01*
X76238Y202827D01*
X76250Y202811D01*
X76258Y202793D01*
X76363Y202662D01*
X83312Y195713D01*
X85091Y191418D01*
X85091Y186979D01*
X85105Y186889D01*
X85113Y186798D01*
X85125Y186768D01*
X85130Y186736D01*
X85173Y186655D01*
X85209Y186572D01*
X85235Y186539D01*
X85246Y186519D01*
X85269Y186497D01*
X85314Y186441D01*
X89987Y181767D01*
X92965Y174578D01*
X92965Y166798D01*
X89987Y159609D01*
X84485Y154107D01*
X77296Y151129D01*
X69516Y151129D01*
X62327Y154107D01*
X60437Y155997D01*
X56825Y159609D01*
X53847Y166798D01*
X53847Y174578D01*
X56825Y181767D01*
X59978Y184920D01*
X59990Y184937D01*
X60005Y184949D01*
X60062Y185036D01*
X60122Y185120D01*
X60128Y185139D01*
X60138Y185156D01*
X60164Y185256D01*
X60194Y185355D01*
X60194Y185375D01*
X60199Y185395D01*
X60190Y185498D01*
X60188Y185601D01*
X60181Y185620D01*
X60179Y185640D01*
X60139Y185735D01*
X60103Y185832D01*
X60091Y185848D01*
X60083Y185866D01*
X59978Y185997D01*
X58659Y187316D01*
X58585Y187369D01*
X58516Y187429D01*
X58486Y187441D01*
X58459Y187460D01*
X58372Y187487D01*
X58287Y187521D01*
X58247Y187525D01*
X58224Y187532D01*
X58192Y187531D01*
X58121Y187539D01*
X52279Y187539D01*
X51091Y188031D01*
X51003Y188052D01*
X50916Y188080D01*
X50883Y188080D01*
X50852Y188087D01*
X50761Y188079D01*
X50670Y188078D01*
X50630Y188066D01*
X50607Y188064D01*
X50578Y188051D01*
X50509Y188031D01*
X49321Y187539D01*
X35279Y187539D01*
X31544Y189086D01*
X28686Y191944D01*
X27139Y195679D01*
X27139Y210721D01*
X28686Y214456D01*
X30392Y216162D01*
X30436Y216223D01*
X30484Y216273D01*
X30491Y216289D01*
X30505Y216305D01*
X30517Y216335D01*
X30536Y216362D01*
X30558Y216432D01*
X30587Y216496D01*
X30589Y216515D01*
X30597Y216533D01*
X30601Y216574D01*
X30608Y216597D01*
X30607Y216629D01*
X30615Y216700D01*
X30615Y230044D01*
X30617Y230049D01*
X30618Y230051D01*
X30619Y230053D01*
X30667Y230223D01*
X30713Y230384D01*
X30713Y230386D01*
X30714Y230388D01*
X30733Y230632D01*
X30733Y234696D01*
X30730Y234722D01*
X30732Y234748D01*
X30710Y234895D01*
X30693Y235042D01*
X30685Y235067D01*
X30681Y235093D01*
X30626Y235230D01*
X30576Y235370D01*
X30562Y235392D01*
X30552Y235417D01*
X30467Y235538D01*
X30387Y235663D01*
X30368Y235681D01*
X30353Y235703D01*
X30337Y235717D01*
X30419Y235802D01*
X30433Y235825D01*
X30450Y235844D01*
X30522Y235974D01*
X30598Y236101D01*
X30606Y236126D01*
X30619Y236149D01*
X30659Y236292D01*
X30704Y236433D01*
X30706Y236459D01*
X30714Y236484D01*
X30733Y236728D01*
X30733Y247397D01*
X30990Y247357D01*
X32777Y246776D01*
X34451Y245923D01*
X35972Y244818D01*
X37300Y243490D01*
X38405Y241969D01*
X38476Y241830D01*
X38485Y241817D01*
X38491Y241802D01*
X38558Y241718D01*
X38622Y241632D01*
X38635Y241623D01*
X38645Y241610D01*
X38735Y241552D01*
X38823Y241490D01*
X38838Y241486D01*
X38851Y241477D01*
X38956Y241451D01*
X39059Y241420D01*
X39075Y241421D01*
X39090Y241417D01*
X39197Y241425D01*
X39304Y241429D01*
X39319Y241435D01*
X39335Y241436D01*
X39434Y241478D01*
X39535Y241516D01*
X39547Y241526D01*
X39562Y241532D01*
X39693Y241637D01*
X74661Y276606D01*
X75444Y276930D01*
X76783Y277485D01*
X78956Y278385D01*
X110709Y278385D01*
X110799Y278399D01*
X110890Y278407D01*
X110920Y278419D01*
X110952Y278424D01*
X111033Y278467D01*
X111117Y278503D01*
X111149Y278529D01*
X111169Y278540D01*
X111192Y278563D01*
X111247Y278608D01*
X111501Y278862D01*
X111513Y278878D01*
X111529Y278890D01*
X111585Y278978D01*
X111645Y279061D01*
X111651Y279080D01*
X111662Y279097D01*
X111687Y279198D01*
X111717Y279297D01*
X111717Y279316D01*
X111722Y279336D01*
X111714Y279439D01*
X111711Y279542D01*
X111704Y279561D01*
X111703Y279581D01*
X111662Y279676D01*
X111627Y279773D01*
X111614Y279789D01*
X111606Y279807D01*
X111502Y279938D01*
X111248Y280192D01*
X111173Y280245D01*
X111104Y280305D01*
X111074Y280317D01*
X111048Y280336D01*
X110961Y280363D01*
X110876Y280397D01*
X110835Y280401D01*
X110813Y280408D01*
X110780Y280407D01*
X110709Y280415D01*
X61176Y280415D01*
X56881Y282194D01*
X32394Y306681D01*
X30916Y310249D01*
X30916Y310250D01*
X30686Y310804D01*
X30658Y310850D01*
X30648Y310875D01*
X30617Y310971D01*
X30615Y310976D01*
X30615Y322072D01*
X30612Y322098D01*
X30614Y322124D01*
X30592Y322271D01*
X30575Y322418D01*
X30567Y322443D01*
X30563Y322469D01*
X30508Y322606D01*
X30458Y322746D01*
X30444Y322768D01*
X30434Y322793D01*
X30349Y322914D01*
X30269Y323039D01*
X30250Y323057D01*
X30235Y323079D01*
X30219Y323093D01*
X30301Y323178D01*
X30315Y323201D01*
X30332Y323220D01*
X30404Y323350D01*
X30480Y323477D01*
X30488Y323502D01*
X30501Y323525D01*
X30541Y323668D01*
X30586Y323809D01*
X30588Y323835D01*
X30596Y323860D01*
X30615Y324104D01*
X30615Y342100D01*
X30601Y342190D01*
X30593Y342281D01*
X30581Y342311D01*
X30576Y342343D01*
X30533Y342423D01*
X30497Y342507D01*
X30471Y342539D01*
X30460Y342560D01*
X30437Y342582D01*
X30392Y342638D01*
X30169Y342861D01*
X28686Y344344D01*
X27139Y348079D01*
X27139Y363121D01*
X28686Y366856D01*
X31544Y369714D01*
X35279Y371261D01*
X49321Y371261D01*
X50509Y370769D01*
X50598Y370748D01*
X50684Y370720D01*
X50717Y370720D01*
X50748Y370713D01*
X50839Y370721D01*
X50930Y370722D01*
X50970Y370734D01*
X50993Y370736D01*
X51022Y370749D01*
X51091Y370769D01*
X52279Y371261D01*
X58121Y371261D01*
X58211Y371275D01*
X58302Y371283D01*
X58331Y371295D01*
X58363Y371300D01*
X58444Y371343D01*
X58528Y371379D01*
X58560Y371405D01*
X58581Y371416D01*
X58603Y371439D01*
X58659Y371484D01*
X59978Y372803D01*
X59990Y372819D01*
X60005Y372832D01*
X60062Y372919D01*
X60122Y373003D01*
X60128Y373022D01*
X60138Y373038D01*
X60164Y373139D01*
X60194Y373238D01*
X60194Y373258D01*
X60199Y373277D01*
X60190Y373380D01*
X60188Y373484D01*
X60181Y373502D01*
X60179Y373522D01*
X60139Y373617D01*
X60103Y373715D01*
X60091Y373730D01*
X60083Y373749D01*
X59978Y373880D01*
X59439Y374418D01*
X56825Y377033D01*
X53847Y384222D01*
X53847Y392002D01*
X56825Y399191D01*
X60437Y402803D01*
X62327Y404693D01*
X69516Y407671D01*
X77296Y407671D01*
X84485Y404693D01*
X89987Y399191D01*
X92965Y392002D01*
X92965Y384222D01*
X89987Y377033D01*
X85314Y372359D01*
X85261Y372285D01*
X85201Y372216D01*
X85189Y372186D01*
X85170Y372160D01*
X85143Y372073D01*
X85109Y371988D01*
X85105Y371947D01*
X85098Y371925D01*
X85099Y371892D01*
X85091Y371821D01*
X85091Y367382D01*
X83312Y363087D01*
X76363Y356138D01*
X76351Y356122D01*
X76336Y356110D01*
X76280Y356022D01*
X76219Y355939D01*
X76214Y355920D01*
X76203Y355903D01*
X76177Y355802D01*
X76147Y355703D01*
X76148Y355684D01*
X76143Y355664D01*
X76151Y355561D01*
X76153Y355458D01*
X76160Y355439D01*
X76162Y355419D01*
X76202Y355324D01*
X76238Y355227D01*
X76250Y355211D01*
X76258Y355193D01*
X76363Y355062D01*
X83312Y348113D01*
X85091Y343818D01*
X85091Y339379D01*
X85105Y339289D01*
X85113Y339198D01*
X85125Y339168D01*
X85130Y339136D01*
X85173Y339055D01*
X85209Y338972D01*
X85235Y338939D01*
X85246Y338919D01*
X85269Y338897D01*
X85314Y338841D01*
X89987Y334167D01*
X92965Y326978D01*
X92965Y319198D01*
X89987Y312009D01*
X84485Y306507D01*
X81449Y305249D01*
X81366Y305198D01*
X81280Y305152D01*
X81262Y305134D01*
X81240Y305120D01*
X81178Y305044D01*
X81111Y304974D01*
X81100Y304950D01*
X81083Y304930D01*
X81048Y304839D01*
X81007Y304751D01*
X81004Y304725D01*
X80995Y304701D01*
X80991Y304603D01*
X80980Y304507D01*
X80986Y304481D01*
X80984Y304455D01*
X81012Y304361D01*
X81032Y304266D01*
X81046Y304244D01*
X81053Y304219D01*
X81108Y304139D01*
X81158Y304055D01*
X81178Y304038D01*
X81193Y304017D01*
X81271Y303958D01*
X81345Y303895D01*
X81370Y303885D01*
X81391Y303870D01*
X81483Y303840D01*
X81574Y303803D01*
X81606Y303800D01*
X81624Y303794D01*
X81658Y303794D01*
X81740Y303785D01*
X110709Y303785D01*
X110799Y303799D01*
X110890Y303807D01*
X110920Y303819D01*
X110952Y303824D01*
X111033Y303867D01*
X111117Y303903D01*
X111149Y303929D01*
X111169Y303940D01*
X111192Y303963D01*
X111247Y304008D01*
X111501Y304262D01*
X111513Y304278D01*
X111529Y304290D01*
X111585Y304378D01*
X111645Y304461D01*
X111651Y304480D01*
X111662Y304497D01*
X111687Y304598D01*
X111717Y304697D01*
X111717Y304716D01*
X111722Y304736D01*
X111714Y304839D01*
X111711Y304942D01*
X111704Y304961D01*
X111703Y304981D01*
X111662Y305076D01*
X111627Y305173D01*
X111614Y305189D01*
X111606Y305207D01*
X111501Y305338D01*
X110419Y306421D01*
X107441Y313610D01*
X107441Y321390D01*
X110419Y328579D01*
X115092Y333253D01*
X115145Y333327D01*
X115205Y333396D01*
X115217Y333426D01*
X115236Y333452D01*
X115263Y333539D01*
X115297Y333624D01*
X115301Y333665D01*
X115308Y333687D01*
X115307Y333720D01*
X115315Y333791D01*
X115315Y393625D01*
X115301Y393715D01*
X115293Y393806D01*
X115281Y393835D01*
X115276Y393867D01*
X115233Y393948D01*
X115197Y394032D01*
X115171Y394064D01*
X115160Y394085D01*
X115137Y394107D01*
X115092Y394163D01*
X79760Y429495D01*
X79702Y429537D01*
X79650Y429586D01*
X79603Y429608D01*
X79561Y429639D01*
X79492Y429660D01*
X79427Y429690D01*
X79375Y429696D01*
X79325Y429711D01*
X79254Y429709D01*
X79183Y429717D01*
X79132Y429706D01*
X79080Y429705D01*
X79012Y429680D01*
X78942Y429665D01*
X78897Y429638D01*
X78849Y429620D01*
X78793Y429575D01*
X78731Y429539D01*
X78697Y429499D01*
X78657Y429466D01*
X78618Y429406D01*
X78571Y429352D01*
X78552Y429303D01*
X78524Y429260D01*
X78506Y429190D01*
X78479Y429123D01*
X78471Y429052D01*
X78463Y429021D01*
X78465Y428998D01*
X78461Y428957D01*
X78461Y428158D01*
X76576Y421123D01*
X72934Y414816D01*
X67784Y409666D01*
X61477Y406024D01*
X58966Y405351D01*
X58965Y405351D01*
X55898Y404530D01*
X54442Y404139D01*
X47158Y404139D01*
X45702Y404530D01*
X40123Y406024D01*
X33816Y409666D01*
X28666Y414816D01*
X25024Y421123D01*
X23611Y426400D01*
X23290Y427594D01*
X23139Y428158D01*
X23139Y435442D01*
X25024Y442477D01*
X28666Y448784D01*
X33816Y453934D01*
X40123Y457576D01*
X46689Y459335D01*
X47158Y459461D01*
X47957Y459461D01*
X48027Y459472D01*
X48099Y459474D01*
X48148Y459492D01*
X48200Y459500D01*
X48263Y459534D01*
X48330Y459559D01*
X48371Y459591D01*
X48417Y459616D01*
X48466Y459667D01*
X48522Y459712D01*
X48550Y459756D01*
X48586Y459794D01*
X48616Y459859D01*
X48655Y459919D01*
X48668Y459970D01*
X48690Y460017D01*
X48698Y460088D01*
X48715Y460158D01*
X48711Y460210D01*
X48717Y460261D01*
X48702Y460332D01*
X48696Y460403D01*
X48676Y460451D01*
X48665Y460502D01*
X48628Y460563D01*
X48600Y460629D01*
X48555Y460685D01*
X48539Y460713D01*
X48521Y460728D01*
X48495Y460760D01*
X39693Y469563D01*
X39680Y469572D01*
X39670Y469585D01*
X39580Y469644D01*
X39493Y469706D01*
X39478Y469711D01*
X39464Y469720D01*
X39360Y469747D01*
X39258Y469779D01*
X39242Y469778D01*
X39226Y469782D01*
X39119Y469775D01*
X39012Y469772D01*
X38997Y469767D01*
X38981Y469766D01*
X38882Y469725D01*
X38781Y469688D01*
X38768Y469678D01*
X38754Y469672D01*
X38673Y469601D01*
X38589Y469534D01*
X38580Y469521D01*
X38568Y469510D01*
X38476Y469370D01*
X38405Y469231D01*
X38038Y468726D01*
X37300Y467710D01*
X35972Y466382D01*
X34451Y465277D01*
X34313Y465207D01*
X32777Y464424D01*
X30990Y463843D01*
X30733Y463803D01*
X30733Y474472D01*
X30730Y474498D01*
X30732Y474524D01*
X30710Y474671D01*
X30693Y474818D01*
X30685Y474843D01*
X30681Y474869D01*
X30626Y475006D01*
X30576Y475146D01*
X30562Y475168D01*
X30552Y475193D01*
X30467Y475314D01*
X30387Y475439D01*
X30368Y475457D01*
X30353Y475479D01*
X30337Y475493D01*
X30419Y475578D01*
X30433Y475601D01*
X30450Y475620D01*
X30522Y475750D01*
X30598Y475877D01*
X30606Y475902D01*
X30619Y475925D01*
X30659Y476068D01*
X30704Y476209D01*
X30706Y476235D01*
X30714Y476260D01*
X30733Y476504D01*
X30733Y480568D01*
X30733Y480570D01*
X30733Y480572D01*
X30713Y480743D01*
X30693Y480914D01*
X30693Y480916D01*
X30692Y480918D01*
X30617Y481151D01*
X30615Y481156D01*
X30615Y494500D01*
X30601Y494590D01*
X30593Y494681D01*
X30581Y494711D01*
X30576Y494743D01*
X30533Y494823D01*
X30497Y494907D01*
X30471Y494939D01*
X30460Y494960D01*
X30437Y494982D01*
X30392Y495038D01*
X30169Y495261D01*
X28686Y496744D01*
X27139Y500479D01*
X27139Y515521D01*
X28686Y519256D01*
X31544Y522114D01*
X35279Y523661D01*
X49321Y523661D01*
X50509Y523169D01*
X50597Y523148D01*
X50684Y523120D01*
X50717Y523120D01*
X50748Y523113D01*
X50839Y523121D01*
X50930Y523122D01*
X50970Y523134D01*
X50993Y523136D01*
X51022Y523149D01*
X51091Y523169D01*
X52279Y523661D01*
X58121Y523661D01*
X58211Y523675D01*
X58302Y523683D01*
X58331Y523695D01*
X58363Y523700D01*
X58444Y523743D01*
X58528Y523779D01*
X58560Y523805D01*
X58581Y523816D01*
X58603Y523839D01*
X58659Y523884D01*
X59978Y525203D01*
X59990Y525219D01*
X60005Y525232D01*
X60062Y525319D01*
X60122Y525403D01*
X60128Y525422D01*
X60138Y525438D01*
X60164Y525539D01*
X60194Y525638D01*
X60194Y525658D01*
X60199Y525677D01*
X60190Y525780D01*
X60188Y525884D01*
X60181Y525902D01*
X60179Y525922D01*
X60139Y526017D01*
X60103Y526115D01*
X60091Y526130D01*
X60083Y526149D01*
X59995Y526258D01*
X59995Y526259D01*
X59994Y526260D01*
X59978Y526280D01*
X59439Y526818D01*
X56825Y529433D01*
X53847Y536622D01*
X53847Y544402D01*
X56825Y551591D01*
X62327Y557093D01*
X65503Y558409D01*
X69042Y559875D01*
X69125Y559926D01*
X69211Y559972D01*
X69229Y559991D01*
X69251Y560004D01*
X69314Y560079D01*
X69381Y560150D01*
X69392Y560174D01*
X69408Y560194D01*
X69443Y560285D01*
X69484Y560373D01*
X69487Y560399D01*
X69496Y560423D01*
X69501Y560521D01*
X69511Y560617D01*
X69506Y560643D01*
X69507Y560669D01*
X69480Y560763D01*
X69459Y560858D01*
X69446Y560880D01*
X69438Y560905D01*
X69383Y560985D01*
X69333Y561069D01*
X69313Y561086D01*
X69298Y561107D01*
X69220Y561166D01*
X69146Y561229D01*
X69122Y561239D01*
X69101Y561254D01*
X69008Y561284D01*
X68918Y561321D01*
X68885Y561324D01*
X68867Y561330D01*
X68834Y561330D01*
X68751Y561339D01*
X21824Y561339D01*
X21734Y561325D01*
X21643Y561317D01*
X21613Y561305D01*
X21581Y561300D01*
X21501Y561257D01*
X21417Y561221D01*
X21385Y561195D01*
X21364Y561184D01*
X21342Y561161D01*
X21286Y561116D01*
X-2316Y537514D01*
X-2369Y537440D01*
X-2429Y537371D01*
X-2441Y537341D01*
X-2460Y537314D01*
X-2487Y537228D01*
X-2521Y537143D01*
X-2525Y537102D01*
X-2532Y537079D01*
X-2531Y537047D01*
X-2539Y536976D01*
X-2539Y314698D01*
X-2532Y314655D01*
X-2534Y314611D01*
X-2512Y314534D01*
X-2500Y314455D01*
X-2479Y314417D01*
X-2467Y314374D01*
X-2422Y314308D01*
X-2384Y314238D01*
X-2353Y314208D01*
X-2328Y314171D01*
X-2264Y314123D01*
X-2206Y314068D01*
X-2166Y314050D01*
X-2131Y314024D01*
X-1995Y313971D01*
X-1983Y313965D01*
X-1980Y313964D01*
X-1975Y313963D01*
X-1410Y313811D01*
X1257Y313096D01*
X9503Y308336D01*
X16236Y301603D01*
X20996Y293357D01*
X23461Y284161D01*
X23461Y274639D01*
X20996Y265443D01*
X16236Y257197D01*
X9503Y250464D01*
X1257Y245704D01*
X-1410Y244989D01*
X-1413Y244988D01*
X-1975Y244837D01*
X-1992Y244830D01*
X-2007Y244827D01*
X-2027Y244817D01*
X-2058Y244810D01*
X-2126Y244769D01*
X-2199Y244736D01*
X-2231Y244706D01*
X-2269Y244684D01*
X-2321Y244623D01*
X-2379Y244569D01*
X-2400Y244530D01*
X-2429Y244497D01*
X-2459Y244423D01*
X-2497Y244353D01*
X-2504Y244309D01*
X-2521Y244269D01*
X-2537Y244124D01*
X-2539Y244110D01*
X-2539Y244107D01*
X-2539Y244102D01*
X-2539Y21824D01*
X-2534Y21791D01*
X-2535Y21781D01*
X-2524Y21733D01*
X-2517Y21643D01*
X-2505Y21613D01*
X-2500Y21581D01*
X-2486Y21556D01*
X-2483Y21541D01*
X-2452Y21490D01*
X-2421Y21417D01*
X-2395Y21385D01*
X-2384Y21364D01*
X-2367Y21347D01*
X-2357Y21330D01*
X-2341Y21316D01*
X-2316Y21286D01*
X21286Y-2316D01*
X21360Y-2369D01*
X21429Y-2429D01*
X21459Y-2441D01*
X21485Y-2460D01*
X21572Y-2487D01*
X21657Y-2521D01*
X21698Y-2525D01*
X21721Y-2532D01*
X21753Y-2531D01*
X21824Y-2539D01*
X68751Y-2539D01*
X68847Y-2524D01*
X68944Y-2514D01*
X68968Y-2504D01*
X68994Y-2500D01*
X69080Y-2454D01*
X69169Y-2414D01*
X69188Y-2397D01*
X69211Y-2384D01*
X69278Y-2314D01*
X69350Y-2248D01*
X69362Y-2225D01*
X69381Y-2206D01*
X69422Y-2118D01*
X69468Y-2032D01*
X69473Y-2007D01*
X69484Y-1983D01*
X69495Y-1886D01*
X69512Y-1790D01*
X69508Y-1764D01*
X69511Y-1739D01*
X69491Y-1643D01*
X69476Y-1547D01*
X69465Y-1524D01*
X69459Y-1498D01*
X69409Y-1415D01*
X69365Y-1328D01*
X69346Y-1309D01*
X69333Y-1287D01*
X69259Y-1224D01*
X69189Y-1156D01*
X69161Y-1140D01*
X69146Y-1127D01*
X69115Y-1115D01*
X69042Y-1075D01*
X65503Y391D01*
X62327Y1707D01*
X56825Y7209D01*
X53847Y14398D01*
X53847Y22178D01*
X56465Y28499D01*
X56825Y29367D01*
X59978Y32520D01*
X59990Y32537D01*
X60005Y32549D01*
X60062Y32636D01*
X60122Y32720D01*
X60128Y32739D01*
X60138Y32756D01*
X60164Y32856D01*
X60194Y32955D01*
X60194Y32975D01*
X60199Y32995D01*
X60190Y33098D01*
X60188Y33201D01*
X60181Y33220D01*
X60179Y33240D01*
X60139Y33335D01*
X60103Y33432D01*
X60091Y33448D01*
X60083Y33466D01*
X59978Y33597D01*
X58659Y34916D01*
X58585Y34969D01*
X58516Y35029D01*
X58486Y35041D01*
X58459Y35060D01*
X58372Y35087D01*
X58287Y35121D01*
X58247Y35125D01*
X58224Y35132D01*
X58192Y35131D01*
X58121Y35139D01*
X52279Y35139D01*
X51091Y35631D01*
X51003Y35652D01*
X50916Y35680D01*
X50883Y35680D01*
X50852Y35687D01*
X50761Y35679D01*
X50670Y35678D01*
X50630Y35666D01*
X50607Y35664D01*
X50578Y35651D01*
X50509Y35631D01*
X49321Y35139D01*
X35279Y35139D01*
X31544Y36686D01*
X28686Y39544D01*
X27139Y43279D01*
X27139Y58321D01*
X28686Y62056D01*
X30392Y63762D01*
X30445Y63836D01*
X30505Y63905D01*
X30517Y63935D01*
X30536Y63962D01*
X30563Y64048D01*
X30597Y64133D01*
X30601Y64174D01*
X30608Y64197D01*
X30607Y64229D01*
X30615Y64300D01*
X30615Y77644D01*
X30617Y77649D01*
G37*
G36*
X465835Y79422D02*
X465835Y79422D01*
X465835Y87202D01*
X468813Y94391D01*
X474320Y99898D01*
X474332Y99915D01*
X474347Y99927D01*
X474404Y100014D01*
X474464Y100098D01*
X474470Y100117D01*
X474480Y100134D01*
X474506Y100234D01*
X474536Y100333D01*
X474536Y100353D01*
X474541Y100373D01*
X474532Y100476D01*
X474530Y100579D01*
X474523Y100598D01*
X474521Y100618D01*
X474481Y100713D01*
X474445Y100810D01*
X474433Y100826D01*
X474425Y100844D01*
X474320Y100975D01*
X460203Y115092D01*
X460129Y115145D01*
X460060Y115205D01*
X460029Y115217D01*
X460003Y115236D01*
X459916Y115263D01*
X459831Y115297D01*
X459790Y115301D01*
X459768Y115308D01*
X459736Y115307D01*
X459665Y115315D01*
X347547Y115315D01*
X347477Y115304D01*
X347405Y115302D01*
X347356Y115284D01*
X347304Y115276D01*
X347241Y115242D01*
X347174Y115217D01*
X347133Y115185D01*
X347087Y115160D01*
X347038Y115109D01*
X346982Y115064D01*
X346954Y115020D01*
X346918Y114982D01*
X346888Y114917D01*
X346849Y114857D01*
X346836Y114806D01*
X346814Y114759D01*
X346806Y114688D01*
X346789Y114618D01*
X346793Y114566D01*
X346787Y114515D01*
X346802Y114444D01*
X346808Y114373D01*
X346828Y114325D01*
X346839Y114274D01*
X346876Y114213D01*
X346904Y114147D01*
X346949Y114091D01*
X346965Y114063D01*
X346983Y114048D01*
X347009Y114016D01*
X368979Y92046D01*
X368995Y92034D01*
X369008Y92018D01*
X369095Y91962D01*
X369179Y91902D01*
X369198Y91896D01*
X369215Y91885D01*
X369315Y91860D01*
X369414Y91830D01*
X369434Y91830D01*
X369453Y91825D01*
X369556Y91833D01*
X369660Y91836D01*
X369679Y91843D01*
X369698Y91844D01*
X369793Y91885D01*
X369891Y91920D01*
X369906Y91933D01*
X369925Y91941D01*
X370056Y92046D01*
X370428Y92418D01*
X371949Y93523D01*
X373623Y94376D01*
X375410Y94957D01*
X375556Y94980D01*
X375667Y94997D01*
X375667Y84328D01*
X375670Y84302D01*
X375668Y84276D01*
X375690Y84129D01*
X375707Y83982D01*
X375715Y83957D01*
X375719Y83931D01*
X375774Y83794D01*
X375824Y83654D01*
X375838Y83632D01*
X375848Y83607D01*
X375933Y83486D01*
X376013Y83361D01*
X376032Y83343D01*
X376047Y83321D01*
X376126Y83250D01*
X376099Y83222D01*
X376085Y83199D01*
X376068Y83180D01*
X375996Y83050D01*
X375920Y82923D01*
X375912Y82898D01*
X375899Y82875D01*
X375859Y82732D01*
X375814Y82591D01*
X375812Y82565D01*
X375804Y82540D01*
X375785Y82296D01*
X375785Y64300D01*
X375799Y64210D01*
X375807Y64119D01*
X375819Y64089D01*
X375824Y64057D01*
X375867Y63977D01*
X375903Y63893D01*
X375929Y63861D01*
X375940Y63840D01*
X375963Y63818D01*
X376008Y63762D01*
X377714Y62056D01*
X379261Y58321D01*
X379261Y43279D01*
X377714Y39544D01*
X374856Y36686D01*
X371121Y35139D01*
X357079Y35139D01*
X355891Y35631D01*
X355803Y35652D01*
X355716Y35680D01*
X355683Y35680D01*
X355652Y35687D01*
X355561Y35679D01*
X355470Y35678D01*
X355430Y35666D01*
X355407Y35664D01*
X355378Y35651D01*
X355309Y35631D01*
X354121Y35139D01*
X348279Y35139D01*
X348189Y35125D01*
X348098Y35117D01*
X348068Y35105D01*
X348037Y35100D01*
X347956Y35057D01*
X347872Y35021D01*
X347840Y34995D01*
X347819Y34984D01*
X347797Y34961D01*
X347741Y34916D01*
X346422Y33597D01*
X346410Y33581D01*
X346395Y33568D01*
X346338Y33481D01*
X346278Y33397D01*
X346272Y33378D01*
X346262Y33362D01*
X346236Y33261D01*
X346206Y33162D01*
X346206Y33142D01*
X346201Y33123D01*
X346210Y33020D01*
X346212Y32916D01*
X346219Y32898D01*
X346221Y32878D01*
X346261Y32783D01*
X346297Y32685D01*
X346309Y32670D01*
X346317Y32651D01*
X346422Y32520D01*
X349575Y29367D01*
X352553Y22178D01*
X352553Y14398D01*
X349575Y7209D01*
X344073Y1707D01*
X340897Y391D01*
X337358Y-1075D01*
X337275Y-1126D01*
X337189Y-1172D01*
X337171Y-1190D01*
X337149Y-1204D01*
X337086Y-1280D01*
X337019Y-1350D01*
X337008Y-1374D01*
X336992Y-1394D01*
X336957Y-1485D01*
X336916Y-1573D01*
X336913Y-1599D01*
X336904Y-1623D01*
X336899Y-1721D01*
X336889Y-1817D01*
X336894Y-1843D01*
X336893Y-1869D01*
X336920Y-1963D01*
X336941Y-2058D01*
X336954Y-2080D01*
X336962Y-2105D01*
X337017Y-2185D01*
X337067Y-2269D01*
X337087Y-2286D01*
X337102Y-2307D01*
X337180Y-2366D01*
X337254Y-2429D01*
X337278Y-2439D01*
X337299Y-2454D01*
X337392Y-2484D01*
X337482Y-2521D01*
X337515Y-2524D01*
X337533Y-2530D01*
X337566Y-2530D01*
X337649Y-2539D01*
X480739Y-2539D01*
X480835Y-2524D01*
X480932Y-2514D01*
X480956Y-2504D01*
X480982Y-2500D01*
X481068Y-2454D01*
X481157Y-2414D01*
X481176Y-2397D01*
X481199Y-2384D01*
X481266Y-2314D01*
X481338Y-2248D01*
X481350Y-2225D01*
X481369Y-2206D01*
X481410Y-2118D01*
X481456Y-2032D01*
X481461Y-2007D01*
X481472Y-1983D01*
X481483Y-1886D01*
X481500Y-1790D01*
X481496Y-1764D01*
X481499Y-1739D01*
X481479Y-1643D01*
X481464Y-1547D01*
X481453Y-1524D01*
X481447Y-1498D01*
X481397Y-1415D01*
X481353Y-1328D01*
X481334Y-1309D01*
X481321Y-1287D01*
X481247Y-1224D01*
X481177Y-1156D01*
X481149Y-1140D01*
X481134Y-1127D01*
X481103Y-1115D01*
X481030Y-1075D01*
X477491Y391D01*
X474315Y1707D01*
X468813Y7209D01*
X465835Y14398D01*
X465835Y22178D01*
X468813Y29367D01*
X473486Y34041D01*
X473539Y34114D01*
X473599Y34184D01*
X473611Y34214D01*
X473630Y34240D01*
X473657Y34327D01*
X473691Y34412D01*
X473695Y34453D01*
X473702Y34475D01*
X473701Y34508D01*
X473709Y34579D01*
X473709Y39018D01*
X475488Y43313D01*
X482437Y50262D01*
X482449Y50278D01*
X482464Y50290D01*
X482520Y50378D01*
X482581Y50461D01*
X482586Y50480D01*
X482597Y50497D01*
X482623Y50598D01*
X482653Y50697D01*
X482652Y50716D01*
X482657Y50736D01*
X482649Y50839D01*
X482647Y50942D01*
X482640Y50961D01*
X482638Y50981D01*
X482598Y51076D01*
X482562Y51173D01*
X482550Y51189D01*
X482542Y51207D01*
X482437Y51338D01*
X475488Y58287D01*
X473709Y62582D01*
X473709Y67021D01*
X473695Y67111D01*
X473687Y67202D01*
X473675Y67232D01*
X473670Y67264D01*
X473627Y67345D01*
X473591Y67428D01*
X473565Y67461D01*
X473554Y67481D01*
X473531Y67503D01*
X473486Y67559D01*
X468813Y72233D01*
X465835Y79422D01*
G37*
G36*
X465835Y536622D02*
X465835Y536622D01*
X465835Y544402D01*
X468813Y551591D01*
X474315Y557093D01*
X477491Y558409D01*
X481030Y559875D01*
X481113Y559926D01*
X481199Y559972D01*
X481217Y559991D01*
X481239Y560004D01*
X481302Y560079D01*
X481369Y560150D01*
X481380Y560174D01*
X481396Y560194D01*
X481431Y560285D01*
X481472Y560373D01*
X481475Y560399D01*
X481484Y560423D01*
X481489Y560521D01*
X481499Y560617D01*
X481494Y560643D01*
X481495Y560669D01*
X481468Y560763D01*
X481447Y560858D01*
X481434Y560880D01*
X481426Y560905D01*
X481371Y560985D01*
X481321Y561069D01*
X481301Y561086D01*
X481286Y561107D01*
X481208Y561166D01*
X481134Y561229D01*
X481110Y561239D01*
X481089Y561254D01*
X480996Y561284D01*
X480906Y561321D01*
X480873Y561324D01*
X480855Y561330D01*
X480822Y561330D01*
X480739Y561339D01*
X337649Y561339D01*
X337553Y561324D01*
X337456Y561314D01*
X337432Y561304D01*
X337406Y561300D01*
X337320Y561254D01*
X337231Y561214D01*
X337212Y561197D01*
X337189Y561184D01*
X337122Y561114D01*
X337050Y561048D01*
X337037Y561025D01*
X337019Y561006D01*
X336979Y560918D01*
X336932Y560832D01*
X336927Y560807D01*
X336916Y560783D01*
X336905Y560686D01*
X336888Y560590D01*
X336892Y560564D01*
X336889Y560539D01*
X336909Y560443D01*
X336924Y560347D01*
X336935Y560324D01*
X336941Y560298D01*
X336991Y560215D01*
X337035Y560128D01*
X337054Y560109D01*
X337067Y560087D01*
X337141Y560024D01*
X337211Y559956D01*
X337239Y559940D01*
X337254Y559927D01*
X337285Y559915D01*
X337358Y559875D01*
X340897Y558409D01*
X344073Y557093D01*
X349575Y551591D01*
X352553Y544402D01*
X352553Y536622D01*
X349575Y529433D01*
X346961Y526818D01*
X346422Y526280D01*
X346410Y526263D01*
X346395Y526251D01*
X346364Y526203D01*
X346358Y526196D01*
X346353Y526186D01*
X346338Y526164D01*
X346278Y526080D01*
X346272Y526061D01*
X346262Y526044D01*
X346236Y525944D01*
X346206Y525845D01*
X346206Y525825D01*
X346201Y525805D01*
X346210Y525702D01*
X346212Y525599D01*
X346219Y525580D01*
X346221Y525560D01*
X346261Y525465D01*
X346297Y525368D01*
X346309Y525352D01*
X346317Y525334D01*
X346422Y525203D01*
X347741Y523884D01*
X347815Y523831D01*
X347884Y523771D01*
X347914Y523759D01*
X347941Y523740D01*
X348028Y523713D01*
X348113Y523679D01*
X348153Y523675D01*
X348176Y523668D01*
X348208Y523669D01*
X348279Y523661D01*
X354121Y523661D01*
X355309Y523169D01*
X355398Y523148D01*
X355484Y523120D01*
X355517Y523120D01*
X355548Y523113D01*
X355639Y523121D01*
X355730Y523122D01*
X355770Y523134D01*
X355793Y523136D01*
X355822Y523149D01*
X355891Y523169D01*
X357079Y523661D01*
X371121Y523661D01*
X374856Y522114D01*
X377714Y519256D01*
X379261Y515521D01*
X379261Y500479D01*
X377714Y496744D01*
X376008Y495038D01*
X375955Y494964D01*
X375895Y494895D01*
X375883Y494865D01*
X375864Y494838D01*
X375837Y494752D01*
X375803Y494667D01*
X375799Y494626D01*
X375792Y494603D01*
X375793Y494571D01*
X375785Y494500D01*
X375785Y476504D01*
X375788Y476478D01*
X375786Y476452D01*
X375808Y476305D01*
X375825Y476158D01*
X375833Y476133D01*
X375837Y476107D01*
X375892Y475970D01*
X375942Y475830D01*
X375956Y475808D01*
X375966Y475783D01*
X376051Y475662D01*
X376124Y475549D01*
X376084Y475505D01*
X375981Y475398D01*
X375967Y475375D01*
X375950Y475356D01*
X375878Y475226D01*
X375802Y475099D01*
X375794Y475074D01*
X375781Y475051D01*
X375741Y474908D01*
X375696Y474767D01*
X375693Y474741D01*
X375686Y474716D01*
X375667Y474472D01*
X375667Y463803D01*
X375556Y463820D01*
X375410Y463843D01*
X373623Y464424D01*
X372087Y465207D01*
X371949Y465277D01*
X370428Y466382D01*
X370056Y466754D01*
X370040Y466766D01*
X370027Y466782D01*
X369940Y466838D01*
X369856Y466898D01*
X369837Y466904D01*
X369820Y466915D01*
X369720Y466940D01*
X369621Y466970D01*
X369601Y466970D01*
X369582Y466975D01*
X369479Y466967D01*
X369375Y466964D01*
X369356Y466957D01*
X369336Y466956D01*
X369241Y466915D01*
X369144Y466880D01*
X369128Y466867D01*
X369110Y466859D01*
X368979Y466754D01*
X354629Y452404D01*
X354587Y452346D01*
X354538Y452294D01*
X354516Y452247D01*
X354485Y452205D01*
X354464Y452136D01*
X354434Y452071D01*
X354428Y452019D01*
X354413Y451969D01*
X354415Y451898D01*
X354407Y451827D01*
X354418Y451776D01*
X354419Y451724D01*
X354444Y451656D01*
X354459Y451586D01*
X354486Y451542D01*
X354504Y451493D01*
X354549Y451437D01*
X354585Y451375D01*
X354625Y451341D01*
X354658Y451301D01*
X354718Y451262D01*
X354772Y451215D01*
X354821Y451196D01*
X354864Y451168D01*
X354934Y451150D01*
X355001Y451123D01*
X355072Y451115D01*
X355103Y451107D01*
X355126Y451109D01*
X355167Y451105D01*
X467285Y451105D01*
X467375Y451119D01*
X467466Y451127D01*
X467495Y451139D01*
X467527Y451144D01*
X467608Y451187D01*
X467692Y451223D01*
X467724Y451249D01*
X467745Y451260D01*
X467767Y451283D01*
X467823Y451328D01*
X474320Y457825D01*
X474332Y457841D01*
X474347Y457854D01*
X474404Y457941D01*
X474464Y458025D01*
X474470Y458044D01*
X474480Y458060D01*
X474506Y458161D01*
X474536Y458260D01*
X474536Y458280D01*
X474541Y458299D01*
X474532Y458402D01*
X474530Y458506D01*
X474523Y458524D01*
X474521Y458544D01*
X474481Y458639D01*
X474445Y458737D01*
X474433Y458752D01*
X474425Y458771D01*
X474320Y458902D01*
X471534Y461688D01*
X468813Y464409D01*
X465835Y471598D01*
X465835Y479378D01*
X468813Y486567D01*
X473486Y491241D01*
X473539Y491314D01*
X473599Y491384D01*
X473611Y491414D01*
X473630Y491440D01*
X473657Y491527D01*
X473691Y491612D01*
X473695Y491653D01*
X473702Y491675D01*
X473701Y491708D01*
X473709Y491779D01*
X473709Y496218D01*
X475488Y500513D01*
X482437Y507462D01*
X482449Y507478D01*
X482464Y507490D01*
X482520Y507578D01*
X482581Y507661D01*
X482586Y507680D01*
X482597Y507697D01*
X482623Y507798D01*
X482653Y507897D01*
X482652Y507916D01*
X482657Y507936D01*
X482649Y508039D01*
X482647Y508142D01*
X482640Y508161D01*
X482638Y508181D01*
X482598Y508276D01*
X482562Y508373D01*
X482550Y508389D01*
X482542Y508407D01*
X482437Y508538D01*
X475488Y515487D01*
X473709Y519782D01*
X473709Y524221D01*
X473695Y524311D01*
X473687Y524402D01*
X473675Y524432D01*
X473670Y524464D01*
X473627Y524545D01*
X473591Y524628D01*
X473565Y524661D01*
X473554Y524681D01*
X473531Y524703D01*
X473507Y524733D01*
X473505Y524737D01*
X473503Y524739D01*
X473486Y524759D01*
X468813Y529433D01*
X465835Y536622D01*
G37*
G36*
X85261Y67485D02*
X85261Y67485D01*
X85201Y67416D01*
X85189Y67386D01*
X85170Y67360D01*
X85143Y67273D01*
X85109Y67188D01*
X85105Y67147D01*
X85098Y67125D01*
X85099Y67092D01*
X85091Y67021D01*
X85091Y62582D01*
X83312Y58287D01*
X76363Y51338D01*
X76351Y51322D01*
X76336Y51310D01*
X76280Y51222D01*
X76219Y51139D01*
X76214Y51120D01*
X76203Y51103D01*
X76178Y51002D01*
X76147Y50903D01*
X76148Y50884D01*
X76143Y50864D01*
X76151Y50761D01*
X76153Y50658D01*
X76160Y50639D01*
X76162Y50619D01*
X76202Y50524D01*
X76238Y50427D01*
X76250Y50411D01*
X76258Y50393D01*
X76363Y50262D01*
X83312Y43313D01*
X85091Y39018D01*
X85091Y34579D01*
X85105Y34489D01*
X85113Y34398D01*
X85125Y34368D01*
X85130Y34336D01*
X85173Y34255D01*
X85209Y34171D01*
X85235Y34139D01*
X85246Y34119D01*
X85269Y34096D01*
X85314Y34041D01*
X89987Y29367D01*
X90347Y28499D01*
X92965Y22178D01*
X92965Y14398D01*
X89987Y7209D01*
X84485Y1707D01*
X81309Y391D01*
X77770Y-1075D01*
X77687Y-1126D01*
X77601Y-1172D01*
X77583Y-1190D01*
X77561Y-1204D01*
X77498Y-1280D01*
X77431Y-1350D01*
X77420Y-1374D01*
X77404Y-1394D01*
X77369Y-1485D01*
X77328Y-1573D01*
X77325Y-1599D01*
X77316Y-1623D01*
X77311Y-1721D01*
X77301Y-1817D01*
X77306Y-1843D01*
X77305Y-1869D01*
X77332Y-1963D01*
X77353Y-2058D01*
X77366Y-2080D01*
X77374Y-2105D01*
X77429Y-2185D01*
X77479Y-2269D01*
X77499Y-2286D01*
X77514Y-2307D01*
X77592Y-2366D01*
X77666Y-2429D01*
X77690Y-2439D01*
X77711Y-2454D01*
X77804Y-2484D01*
X77894Y-2521D01*
X77927Y-2524D01*
X77945Y-2530D01*
X77978Y-2530D01*
X78061Y-2539D01*
X221151Y-2539D01*
X221247Y-2524D01*
X221344Y-2514D01*
X221368Y-2504D01*
X221394Y-2500D01*
X221480Y-2454D01*
X221569Y-2414D01*
X221588Y-2397D01*
X221611Y-2384D01*
X221678Y-2314D01*
X221750Y-2248D01*
X221762Y-2225D01*
X221781Y-2206D01*
X221822Y-2118D01*
X221868Y-2032D01*
X221873Y-2007D01*
X221884Y-1983D01*
X221895Y-1886D01*
X221912Y-1790D01*
X221908Y-1764D01*
X221911Y-1739D01*
X221891Y-1643D01*
X221876Y-1547D01*
X221865Y-1524D01*
X221859Y-1498D01*
X221809Y-1415D01*
X221765Y-1328D01*
X221746Y-1309D01*
X221733Y-1287D01*
X221659Y-1224D01*
X221589Y-1156D01*
X221561Y-1140D01*
X221546Y-1127D01*
X221515Y-1115D01*
X221442Y-1075D01*
X217903Y391D01*
X214727Y1707D01*
X209225Y7209D01*
X206247Y14398D01*
X206247Y22178D01*
X209225Y29367D01*
X212378Y32520D01*
X212390Y32537D01*
X212405Y32549D01*
X212462Y32636D01*
X212522Y32720D01*
X212528Y32739D01*
X212538Y32756D01*
X212564Y32856D01*
X212594Y32955D01*
X212594Y32975D01*
X212599Y32995D01*
X212590Y33098D01*
X212588Y33201D01*
X212581Y33220D01*
X212579Y33240D01*
X212539Y33335D01*
X212503Y33432D01*
X212491Y33448D01*
X212483Y33466D01*
X212378Y33597D01*
X211059Y34916D01*
X210985Y34969D01*
X210916Y35029D01*
X210886Y35041D01*
X210859Y35060D01*
X210772Y35087D01*
X210687Y35121D01*
X210647Y35125D01*
X210624Y35132D01*
X210592Y35131D01*
X210521Y35139D01*
X204679Y35139D01*
X203491Y35631D01*
X203403Y35652D01*
X203316Y35680D01*
X203283Y35680D01*
X203252Y35687D01*
X203161Y35679D01*
X203070Y35678D01*
X203030Y35666D01*
X203007Y35664D01*
X202978Y35651D01*
X202909Y35631D01*
X201721Y35139D01*
X187679Y35139D01*
X183944Y36686D01*
X181086Y39544D01*
X179539Y43279D01*
X179539Y49121D01*
X179525Y49211D01*
X179517Y49302D01*
X179505Y49332D01*
X179500Y49363D01*
X179457Y49444D01*
X179421Y49528D01*
X179395Y49560D01*
X179384Y49581D01*
X179361Y49603D01*
X179316Y49659D01*
X145888Y83087D01*
X142494Y86481D01*
X142401Y86707D01*
X141885Y87953D01*
X140715Y90776D01*
X140715Y121845D01*
X140701Y121935D01*
X140693Y122026D01*
X140681Y122056D01*
X140676Y122087D01*
X140633Y122168D01*
X140597Y122252D01*
X140571Y122284D01*
X140560Y122305D01*
X140537Y122327D01*
X140492Y122383D01*
X139456Y123419D01*
X139440Y123431D01*
X139427Y123446D01*
X139340Y123502D01*
X139256Y123563D01*
X139237Y123569D01*
X139220Y123579D01*
X139120Y123605D01*
X139021Y123635D01*
X139001Y123635D01*
X138982Y123640D01*
X138879Y123631D01*
X138775Y123629D01*
X138757Y123622D01*
X138737Y123620D01*
X138642Y123580D01*
X138544Y123544D01*
X138529Y123532D01*
X138510Y123524D01*
X138379Y123419D01*
X138079Y123119D01*
X136873Y122619D01*
X136780Y122562D01*
X136686Y122508D01*
X136676Y122497D01*
X136664Y122490D01*
X136594Y122406D01*
X136522Y122324D01*
X136517Y122311D01*
X136507Y122300D01*
X136468Y122199D01*
X136425Y122098D01*
X136424Y122084D01*
X136419Y122071D01*
X136415Y121962D01*
X136406Y121853D01*
X136409Y121839D01*
X136409Y121825D01*
X136439Y121720D01*
X136466Y121614D01*
X136474Y121599D01*
X136477Y121589D01*
X136494Y121565D01*
X136549Y121469D01*
X137211Y120557D01*
X138064Y118883D01*
X138645Y117096D01*
X138846Y115823D01*
X127762Y115823D01*
X127742Y115820D01*
X127723Y115822D01*
X127621Y115800D01*
X127519Y115783D01*
X127502Y115774D01*
X127482Y115770D01*
X127441Y115746D01*
X127400Y115851D01*
X127350Y115990D01*
X127335Y116012D01*
X127326Y116037D01*
X127241Y116158D01*
X127161Y116283D01*
X127142Y116301D01*
X127127Y116323D01*
X127017Y116422D01*
X126910Y116525D01*
X126887Y116539D01*
X126868Y116556D01*
X126738Y116628D01*
X126611Y116704D01*
X126586Y116712D01*
X126563Y116725D01*
X126420Y116765D01*
X126279Y116810D01*
X126253Y116812D01*
X126228Y116820D01*
X125984Y116839D01*
X115315Y116839D01*
X115355Y117096D01*
X115711Y118190D01*
X115936Y118883D01*
X116789Y120557D01*
X116883Y120687D01*
X117451Y121469D01*
X117500Y121566D01*
X117553Y121662D01*
X117555Y121676D01*
X117562Y121688D01*
X117577Y121796D01*
X117597Y121904D01*
X117594Y121918D01*
X117596Y121932D01*
X117577Y122039D01*
X117561Y122147D01*
X117554Y122160D01*
X117552Y122174D01*
X117499Y122269D01*
X117449Y122366D01*
X117439Y122376D01*
X117432Y122389D01*
X117352Y122462D01*
X117274Y122539D01*
X117258Y122547D01*
X117250Y122554D01*
X117224Y122566D01*
X117127Y122619D01*
X115921Y123119D01*
X111811Y127229D01*
X111794Y127241D01*
X111782Y127256D01*
X111695Y127313D01*
X111611Y127373D01*
X111592Y127379D01*
X111575Y127389D01*
X111475Y127415D01*
X111376Y127445D01*
X111356Y127445D01*
X111336Y127450D01*
X111233Y127441D01*
X111130Y127439D01*
X111111Y127432D01*
X111091Y127430D01*
X110996Y127390D01*
X110899Y127354D01*
X110883Y127342D01*
X110865Y127334D01*
X110734Y127229D01*
X84480Y100975D01*
X84468Y100959D01*
X84453Y100946D01*
X84396Y100859D01*
X84336Y100775D01*
X84330Y100756D01*
X84320Y100740D01*
X84294Y100639D01*
X84264Y100540D01*
X84264Y100520D01*
X84259Y100501D01*
X84268Y100398D01*
X84270Y100294D01*
X84277Y100276D01*
X84279Y100256D01*
X84319Y100161D01*
X84355Y100063D01*
X84367Y100048D01*
X84375Y100029D01*
X84480Y99898D01*
X89987Y94391D01*
X92965Y87202D01*
X92965Y79422D01*
X89987Y72233D01*
X85537Y67783D01*
X85314Y67559D01*
X85261Y67485D01*
G37*
G36*
X181290Y519699D02*
X181290Y519699D01*
X181381Y519707D01*
X181411Y519719D01*
X181443Y519724D01*
X181523Y519767D01*
X181607Y519803D01*
X181639Y519829D01*
X181660Y519840D01*
X181682Y519863D01*
X181738Y519908D01*
X183944Y522114D01*
X187679Y523661D01*
X201721Y523661D01*
X202909Y523169D01*
X202998Y523148D01*
X203084Y523120D01*
X203117Y523120D01*
X203148Y523113D01*
X203239Y523121D01*
X203330Y523122D01*
X203370Y523134D01*
X203393Y523136D01*
X203422Y523149D01*
X203491Y523169D01*
X204679Y523661D01*
X210521Y523661D01*
X210611Y523675D01*
X210702Y523683D01*
X210732Y523695D01*
X210763Y523700D01*
X210844Y523743D01*
X210928Y523779D01*
X210960Y523805D01*
X210981Y523816D01*
X211003Y523839D01*
X211059Y523884D01*
X212378Y525203D01*
X212390Y525219D01*
X212405Y525232D01*
X212462Y525319D01*
X212522Y525403D01*
X212528Y525422D01*
X212538Y525438D01*
X212564Y525539D01*
X212594Y525638D01*
X212594Y525658D01*
X212599Y525677D01*
X212590Y525780D01*
X212588Y525884D01*
X212581Y525902D01*
X212579Y525922D01*
X212539Y526017D01*
X212503Y526115D01*
X212491Y526130D01*
X212483Y526149D01*
X212395Y526258D01*
X212395Y526259D01*
X212394Y526260D01*
X212378Y526280D01*
X209992Y528666D01*
X209225Y529433D01*
X206247Y536622D01*
X206247Y544402D01*
X209225Y551591D01*
X214727Y557093D01*
X217903Y558409D01*
X221442Y559875D01*
X221525Y559926D01*
X221611Y559972D01*
X221629Y559991D01*
X221651Y560004D01*
X221714Y560079D01*
X221781Y560150D01*
X221792Y560174D01*
X221808Y560194D01*
X221843Y560285D01*
X221884Y560373D01*
X221887Y560399D01*
X221896Y560423D01*
X221901Y560521D01*
X221911Y560617D01*
X221906Y560643D01*
X221907Y560669D01*
X221880Y560763D01*
X221859Y560858D01*
X221846Y560880D01*
X221838Y560905D01*
X221783Y560985D01*
X221733Y561069D01*
X221713Y561086D01*
X221698Y561107D01*
X221620Y561166D01*
X221546Y561229D01*
X221522Y561239D01*
X221501Y561254D01*
X221408Y561284D01*
X221318Y561321D01*
X221285Y561324D01*
X221267Y561330D01*
X221234Y561330D01*
X221151Y561339D01*
X78061Y561339D01*
X77965Y561324D01*
X77868Y561314D01*
X77844Y561304D01*
X77818Y561300D01*
X77732Y561254D01*
X77643Y561214D01*
X77624Y561197D01*
X77601Y561184D01*
X77534Y561114D01*
X77462Y561048D01*
X77449Y561025D01*
X77431Y561006D01*
X77391Y560918D01*
X77344Y560832D01*
X77339Y560807D01*
X77328Y560783D01*
X77317Y560686D01*
X77300Y560590D01*
X77304Y560564D01*
X77301Y560539D01*
X77321Y560443D01*
X77336Y560347D01*
X77347Y560324D01*
X77353Y560298D01*
X77403Y560215D01*
X77447Y560128D01*
X77466Y560109D01*
X77479Y560087D01*
X77553Y560024D01*
X77623Y559956D01*
X77651Y559940D01*
X77666Y559927D01*
X77697Y559915D01*
X77770Y559875D01*
X81309Y558409D01*
X84485Y557093D01*
X89987Y551591D01*
X92965Y544402D01*
X92965Y536622D01*
X89987Y529433D01*
X85537Y524983D01*
X85314Y524759D01*
X85268Y524696D01*
X85247Y524674D01*
X85243Y524665D01*
X85201Y524616D01*
X85189Y524586D01*
X85170Y524560D01*
X85143Y524473D01*
X85109Y524388D01*
X85105Y524347D01*
X85098Y524325D01*
X85099Y524292D01*
X85091Y524221D01*
X85091Y519782D01*
X83312Y515487D01*
X79918Y512093D01*
X76363Y508538D01*
X76351Y508522D01*
X76336Y508510D01*
X76280Y508422D01*
X76219Y508339D01*
X76214Y508320D01*
X76203Y508303D01*
X76178Y508202D01*
X76147Y508103D01*
X76148Y508084D01*
X76143Y508064D01*
X76151Y507961D01*
X76153Y507858D01*
X76160Y507839D01*
X76162Y507819D01*
X76202Y507724D01*
X76238Y507627D01*
X76250Y507611D01*
X76258Y507593D01*
X76363Y507462D01*
X83312Y500513D01*
X85091Y496218D01*
X85091Y491779D01*
X85105Y491689D01*
X85113Y491598D01*
X85125Y491568D01*
X85130Y491536D01*
X85173Y491455D01*
X85209Y491371D01*
X85235Y491339D01*
X85246Y491319D01*
X85269Y491296D01*
X85314Y491241D01*
X89987Y486567D01*
X90347Y485699D01*
X92965Y479378D01*
X92965Y471598D01*
X89987Y464409D01*
X85019Y459440D01*
X84480Y458902D01*
X84468Y458885D01*
X84453Y458873D01*
X84396Y458786D01*
X84336Y458702D01*
X84330Y458683D01*
X84320Y458666D01*
X84294Y458566D01*
X84264Y458467D01*
X84264Y458447D01*
X84259Y458427D01*
X84268Y458324D01*
X84270Y458221D01*
X84277Y458202D01*
X84279Y458182D01*
X84319Y458087D01*
X84355Y457990D01*
X84367Y457974D01*
X84375Y457956D01*
X84480Y457825D01*
X133512Y408793D01*
X136876Y405429D01*
X136934Y405387D01*
X136986Y405338D01*
X137033Y405316D01*
X137075Y405285D01*
X137144Y405264D01*
X137209Y405234D01*
X137261Y405228D01*
X137311Y405213D01*
X137382Y405215D01*
X137453Y405207D01*
X137504Y405218D01*
X137556Y405219D01*
X137624Y405244D01*
X137694Y405259D01*
X137739Y405286D01*
X137787Y405304D01*
X137843Y405349D01*
X137905Y405385D01*
X137939Y405425D01*
X137979Y405458D01*
X138018Y405518D01*
X138065Y405572D01*
X138084Y405621D01*
X138112Y405664D01*
X138130Y405734D01*
X138157Y405801D01*
X138165Y405872D01*
X138173Y405903D01*
X138171Y405926D01*
X138175Y405967D01*
X138175Y482384D01*
X139954Y486679D01*
X171181Y517906D01*
X174440Y519256D01*
X175476Y519685D01*
X181200Y519685D01*
X181290Y519699D01*
G37*
%LPC*%
G36*
X107441Y59610D02*
X107441Y59610D01*
X107441Y67390D01*
X110419Y74579D01*
X115921Y80081D01*
X117127Y80581D01*
X117220Y80638D01*
X117314Y80692D01*
X117324Y80703D01*
X117336Y80710D01*
X117406Y80794D01*
X117478Y80876D01*
X117483Y80889D01*
X117493Y80900D01*
X117532Y81001D01*
X117575Y81102D01*
X117576Y81116D01*
X117581Y81129D01*
X117585Y81238D01*
X117594Y81347D01*
X117591Y81361D01*
X117591Y81375D01*
X117561Y81480D01*
X117534Y81586D01*
X117526Y81601D01*
X117523Y81611D01*
X117506Y81635D01*
X117451Y81731D01*
X116883Y82513D01*
X116789Y82643D01*
X115936Y84317D01*
X115355Y86104D01*
X115315Y86361D01*
X125984Y86361D01*
X126010Y86364D01*
X126036Y86362D01*
X126183Y86384D01*
X126330Y86401D01*
X126355Y86409D01*
X126381Y86413D01*
X126518Y86468D01*
X126658Y86518D01*
X126680Y86532D01*
X126705Y86542D01*
X126826Y86627D01*
X126951Y86707D01*
X126969Y86726D01*
X126991Y86741D01*
X127090Y86851D01*
X127193Y86958D01*
X127207Y86980D01*
X127224Y87000D01*
X127296Y87130D01*
X127372Y87257D01*
X127380Y87282D01*
X127393Y87305D01*
X127433Y87447D01*
X127437Y87459D01*
X127463Y87448D01*
X127557Y87405D01*
X127577Y87403D01*
X127595Y87395D01*
X127762Y87377D01*
X138846Y87377D01*
X138645Y86104D01*
X138064Y84317D01*
X137211Y82643D01*
X137117Y82513D01*
X136549Y81731D01*
X136500Y81634D01*
X136447Y81538D01*
X136445Y81524D01*
X136438Y81512D01*
X136423Y81404D01*
X136403Y81296D01*
X136406Y81282D01*
X136404Y81268D01*
X136423Y81161D01*
X136439Y81053D01*
X136446Y81040D01*
X136448Y81026D01*
X136501Y80931D01*
X136551Y80834D01*
X136561Y80824D01*
X136568Y80811D01*
X136648Y80738D01*
X136726Y80661D01*
X136742Y80653D01*
X136750Y80646D01*
X136776Y80634D01*
X136873Y80581D01*
X138079Y80081D01*
X143581Y74579D01*
X146559Y67390D01*
X146559Y59610D01*
X143581Y52421D01*
X142499Y51338D01*
X142487Y51322D01*
X142471Y51310D01*
X142415Y51222D01*
X142355Y51139D01*
X142349Y51120D01*
X142338Y51103D01*
X142313Y51002D01*
X142283Y50903D01*
X142283Y50884D01*
X142278Y50864D01*
X142286Y50761D01*
X142289Y50658D01*
X142296Y50639D01*
X142297Y50619D01*
X142338Y50524D01*
X142373Y50427D01*
X142386Y50411D01*
X142394Y50393D01*
X142499Y50262D01*
X143037Y49723D01*
X143581Y49179D01*
X146559Y41990D01*
X146559Y34210D01*
X143581Y27021D01*
X138079Y21519D01*
X130890Y18541D01*
X123110Y18541D01*
X115921Y21519D01*
X110419Y27021D01*
X107441Y34210D01*
X107441Y41990D01*
X110419Y49179D01*
X110963Y49723D01*
X111501Y50262D01*
X111513Y50278D01*
X111529Y50290D01*
X111585Y50378D01*
X111645Y50461D01*
X111651Y50480D01*
X111662Y50497D01*
X111687Y50598D01*
X111717Y50697D01*
X111717Y50716D01*
X111722Y50736D01*
X111714Y50839D01*
X111711Y50942D01*
X111704Y50961D01*
X111703Y50981D01*
X111662Y51076D01*
X111627Y51173D01*
X111614Y51189D01*
X111606Y51207D01*
X111501Y51338D01*
X110419Y52421D01*
X107441Y59610D01*
G37*
%LPD*%
%LPC*%
G36*
X129539Y90423D02*
X129539Y90423D01*
X129539Y100585D01*
X129796Y100545D01*
X131583Y99964D01*
X133257Y99111D01*
X134778Y98006D01*
X136106Y96678D01*
X137211Y95157D01*
X138064Y93483D01*
X138645Y91696D01*
X138846Y90423D01*
X129539Y90423D01*
G37*
%LPD*%
%LPC*%
G36*
X129539Y112777D02*
X129539Y112777D01*
X138846Y112777D01*
X138645Y111504D01*
X138064Y109717D01*
X137211Y108043D01*
X136106Y106522D01*
X134778Y105194D01*
X133257Y104089D01*
X131583Y103236D01*
X129796Y102655D01*
X129539Y102615D01*
X129539Y112777D01*
G37*
%LPD*%
%LPC*%
G36*
X30733Y543051D02*
X30733Y543051D01*
X30733Y552197D01*
X30990Y552157D01*
X32777Y551576D01*
X34451Y550723D01*
X35972Y549618D01*
X37300Y548290D01*
X38405Y546769D01*
X38475Y546631D01*
X39258Y545095D01*
X39483Y544402D01*
X39839Y543308D01*
X39879Y543051D01*
X30733Y543051D01*
G37*
%LPD*%
%LPC*%
G36*
X183133Y543051D02*
X183133Y543051D01*
X183133Y552197D01*
X183390Y552157D01*
X185177Y551576D01*
X186851Y550723D01*
X188372Y549618D01*
X189700Y548290D01*
X190805Y546769D01*
X190875Y546631D01*
X191658Y545095D01*
X191883Y544402D01*
X192239Y543308D01*
X192279Y543051D01*
X183133Y543051D01*
G37*
%LPD*%
%LPC*%
G36*
X380745Y543051D02*
X380745Y543051D01*
X380745Y552197D01*
X381002Y552157D01*
X382789Y551576D01*
X384463Y550723D01*
X385984Y549618D01*
X387312Y548290D01*
X388417Y546769D01*
X388487Y546631D01*
X389270Y545095D01*
X389495Y544402D01*
X389851Y543308D01*
X389891Y543051D01*
X380745Y543051D01*
G37*
%LPD*%
%LPC*%
G36*
X533145Y543051D02*
X533145Y543051D01*
X533145Y552197D01*
X533402Y552157D01*
X535189Y551576D01*
X536863Y550723D01*
X538384Y549618D01*
X539712Y548290D01*
X540817Y546769D01*
X540887Y546631D01*
X541670Y545095D01*
X541895Y544402D01*
X542251Y543308D01*
X542291Y543051D01*
X533145Y543051D01*
G37*
%LPD*%
%LPC*%
G36*
X533145Y173227D02*
X533145Y173227D01*
X533145Y182373D01*
X533402Y182333D01*
X535189Y181752D01*
X536863Y180899D01*
X538384Y179794D01*
X539712Y178466D01*
X540817Y176945D01*
X540930Y176723D01*
X541670Y175271D01*
X541895Y174578D01*
X542251Y173484D01*
X542291Y173227D01*
X533145Y173227D01*
G37*
%LPD*%
%LPC*%
G36*
X380745Y173227D02*
X380745Y173227D01*
X380745Y182373D01*
X381002Y182333D01*
X382789Y181752D01*
X384463Y180899D01*
X385984Y179794D01*
X387312Y178466D01*
X388417Y176945D01*
X388530Y176723D01*
X389270Y175271D01*
X389495Y174578D01*
X389851Y173484D01*
X389891Y173227D01*
X380745Y173227D01*
G37*
%LPD*%
%LPC*%
G36*
X183133Y173227D02*
X183133Y173227D01*
X183133Y182373D01*
X183390Y182333D01*
X185177Y181752D01*
X186851Y180899D01*
X188372Y179794D01*
X189700Y178466D01*
X190805Y176945D01*
X190918Y176723D01*
X191658Y175271D01*
X191883Y174578D01*
X192239Y173484D01*
X192279Y173227D01*
X183133Y173227D01*
G37*
%LPD*%
%LPC*%
G36*
X30733Y173227D02*
X30733Y173227D01*
X30733Y182373D01*
X30990Y182333D01*
X32777Y181752D01*
X34451Y180899D01*
X35972Y179794D01*
X37300Y178466D01*
X38405Y176945D01*
X38518Y176723D01*
X39258Y175271D01*
X39483Y174578D01*
X39839Y173484D01*
X39879Y173227D01*
X30733Y173227D01*
G37*
%LPD*%
%LPC*%
G36*
X380745Y478027D02*
X380745Y478027D01*
X380745Y487173D01*
X381002Y487133D01*
X382789Y486552D01*
X384463Y485699D01*
X385984Y484594D01*
X387312Y483266D01*
X388417Y481745D01*
X388487Y481607D01*
X389270Y480071D01*
X389614Y479012D01*
X389851Y478284D01*
X389891Y478027D01*
X380745Y478027D01*
G37*
%LPD*%
%LPC*%
G36*
X183133Y478027D02*
X183133Y478027D01*
X183133Y487173D01*
X183390Y487133D01*
X185177Y486552D01*
X186851Y485699D01*
X188372Y484594D01*
X189700Y483266D01*
X190805Y481745D01*
X190875Y481607D01*
X191658Y480071D01*
X192002Y479012D01*
X192239Y478284D01*
X192279Y478027D01*
X183133Y478027D01*
G37*
%LPD*%
%LPC*%
G36*
X533145Y478027D02*
X533145Y478027D01*
X533145Y487173D01*
X533402Y487133D01*
X535189Y486552D01*
X536863Y485699D01*
X538384Y484594D01*
X539712Y483266D01*
X540817Y481745D01*
X540887Y481607D01*
X541670Y480071D01*
X542014Y479012D01*
X542251Y478284D01*
X542291Y478027D01*
X533145Y478027D01*
G37*
%LPD*%
%LPC*%
G36*
X380745Y325627D02*
X380745Y325627D01*
X380745Y334773D01*
X381002Y334733D01*
X382789Y334152D01*
X384463Y333299D01*
X385984Y332194D01*
X387312Y330866D01*
X388417Y329345D01*
X388807Y328579D01*
X389270Y327671D01*
X389495Y326978D01*
X389851Y325884D01*
X389891Y325627D01*
X380745Y325627D01*
G37*
%LPD*%
%LPC*%
G36*
X533145Y325627D02*
X533145Y325627D01*
X533145Y334773D01*
X533402Y334733D01*
X535189Y334152D01*
X536863Y333299D01*
X538384Y332194D01*
X539712Y330866D01*
X540817Y329345D01*
X541207Y328579D01*
X541670Y327671D01*
X541895Y326978D01*
X542251Y325884D01*
X542291Y325627D01*
X533145Y325627D01*
G37*
%LPD*%
%LPC*%
G36*
X30733Y390651D02*
X30733Y390651D01*
X30733Y399797D01*
X30990Y399757D01*
X32777Y399176D01*
X34451Y398323D01*
X35972Y397218D01*
X37300Y395890D01*
X38405Y394369D01*
X38661Y393867D01*
X39258Y392695D01*
X39483Y392002D01*
X39839Y390908D01*
X39879Y390651D01*
X30733Y390651D01*
G37*
%LPD*%
%LPC*%
G36*
X183133Y390651D02*
X183133Y390651D01*
X183133Y399797D01*
X183390Y399757D01*
X185177Y399176D01*
X186851Y398323D01*
X188372Y397218D01*
X189700Y395890D01*
X190805Y394369D01*
X191061Y393867D01*
X191658Y392695D01*
X191883Y392002D01*
X192239Y390908D01*
X192279Y390651D01*
X183133Y390651D01*
G37*
%LPD*%
%LPC*%
G36*
X380745Y390651D02*
X380745Y390651D01*
X380745Y399797D01*
X381002Y399757D01*
X382789Y399176D01*
X384463Y398323D01*
X385984Y397218D01*
X387312Y395890D01*
X388417Y394369D01*
X388673Y393867D01*
X389270Y392695D01*
X389495Y392002D01*
X389851Y390908D01*
X389891Y390651D01*
X380745Y390651D01*
G37*
%LPD*%
%LPC*%
G36*
X533145Y390651D02*
X533145Y390651D01*
X533145Y399797D01*
X533402Y399757D01*
X535189Y399176D01*
X536863Y398323D01*
X538384Y397218D01*
X539712Y395890D01*
X540817Y394369D01*
X541073Y393867D01*
X541670Y392695D01*
X541895Y392002D01*
X542251Y390908D01*
X542291Y390651D01*
X533145Y390651D01*
G37*
%LPD*%
%LPC*%
G36*
X183133Y20827D02*
X183133Y20827D01*
X183133Y29973D01*
X183390Y29933D01*
X185177Y29352D01*
X186851Y28499D01*
X188372Y27394D01*
X189700Y26066D01*
X190805Y24545D01*
X191307Y23559D01*
X191658Y22871D01*
X191729Y22652D01*
X192239Y21084D01*
X192279Y20827D01*
X183133Y20827D01*
G37*
%LPD*%
%LPC*%
G36*
X30733Y20827D02*
X30733Y20827D01*
X30733Y29973D01*
X30990Y29933D01*
X32777Y29352D01*
X34451Y28499D01*
X35972Y27394D01*
X37300Y26066D01*
X38405Y24545D01*
X38907Y23559D01*
X39258Y22871D01*
X39329Y22652D01*
X39839Y21084D01*
X39879Y20827D01*
X30733Y20827D01*
G37*
%LPD*%
%LPC*%
G36*
X380745Y20827D02*
X380745Y20827D01*
X380745Y29973D01*
X381002Y29933D01*
X382789Y29352D01*
X384463Y28499D01*
X385984Y27394D01*
X387312Y26066D01*
X388417Y24545D01*
X388919Y23559D01*
X389270Y22871D01*
X389341Y22652D01*
X389851Y21084D01*
X389891Y20827D01*
X380745Y20827D01*
G37*
%LPD*%
%LPC*%
G36*
X533145Y20827D02*
X533145Y20827D01*
X533145Y29973D01*
X533402Y29933D01*
X535189Y29352D01*
X536863Y28499D01*
X538384Y27394D01*
X539712Y26066D01*
X540817Y24545D01*
X541319Y23559D01*
X541670Y22871D01*
X541741Y22652D01*
X542251Y21084D01*
X542291Y20827D01*
X533145Y20827D01*
G37*
%LPD*%
%LPC*%
G36*
X533145Y238251D02*
X533145Y238251D01*
X533145Y247397D01*
X533402Y247357D01*
X535189Y246776D01*
X536863Y245923D01*
X538384Y244818D01*
X539712Y243490D01*
X540817Y241969D01*
X540945Y241718D01*
X541670Y240295D01*
X541895Y239602D01*
X542251Y238508D01*
X542291Y238251D01*
X533145Y238251D01*
G37*
%LPD*%
%LPC*%
G36*
X380745Y238251D02*
X380745Y238251D01*
X380745Y247397D01*
X381002Y247357D01*
X382789Y246776D01*
X384463Y245923D01*
X385984Y244818D01*
X387312Y243490D01*
X388417Y241969D01*
X388545Y241718D01*
X389270Y240295D01*
X389495Y239602D01*
X389851Y238508D01*
X389891Y238251D01*
X380745Y238251D01*
G37*
%LPD*%
%LPC*%
G36*
X183133Y238251D02*
X183133Y238251D01*
X183133Y247397D01*
X183390Y247357D01*
X185177Y246776D01*
X186851Y245923D01*
X188372Y244818D01*
X189700Y243490D01*
X190805Y241969D01*
X190933Y241718D01*
X191658Y240295D01*
X191883Y239602D01*
X192239Y238508D01*
X192279Y238251D01*
X183133Y238251D01*
G37*
%LPD*%
%LPC*%
G36*
X533145Y85851D02*
X533145Y85851D01*
X533145Y94997D01*
X533402Y94957D01*
X535189Y94376D01*
X536863Y93523D01*
X538384Y92418D01*
X539712Y91090D01*
X540817Y89569D01*
X540935Y89337D01*
X541670Y87895D01*
X541691Y87831D01*
X542251Y86108D01*
X542291Y85851D01*
X533145Y85851D01*
G37*
%LPD*%
%LPC*%
G36*
X380745Y85851D02*
X380745Y85851D01*
X380745Y94997D01*
X381002Y94957D01*
X382789Y94376D01*
X384463Y93523D01*
X385984Y92418D01*
X387312Y91090D01*
X388417Y89569D01*
X388535Y89337D01*
X389270Y87895D01*
X389291Y87831D01*
X389851Y86108D01*
X389891Y85851D01*
X380745Y85851D01*
G37*
%LPD*%
%LPC*%
G36*
X183133Y85851D02*
X183133Y85851D01*
X183133Y94997D01*
X183390Y94957D01*
X185177Y94376D01*
X186851Y93523D01*
X188372Y92418D01*
X189700Y91090D01*
X190805Y89569D01*
X190923Y89337D01*
X191658Y87895D01*
X191679Y87831D01*
X192239Y86108D01*
X192279Y85851D01*
X183133Y85851D01*
G37*
%LPD*%
%LPC*%
G36*
X380745Y233173D02*
X380745Y233173D01*
X389891Y233173D01*
X389851Y232916D01*
X389270Y231129D01*
X388449Y229517D01*
X388417Y229455D01*
X387312Y227934D01*
X385984Y226606D01*
X384463Y225501D01*
X384325Y225431D01*
X382789Y224648D01*
X381002Y224067D01*
X380745Y224027D01*
X380745Y233173D01*
G37*
%LPD*%
%LPC*%
G36*
X533145Y233173D02*
X533145Y233173D01*
X542291Y233173D01*
X542251Y232916D01*
X541670Y231129D01*
X540849Y229517D01*
X540817Y229455D01*
X539712Y227934D01*
X538384Y226606D01*
X536863Y225501D01*
X536725Y225431D01*
X535189Y224648D01*
X533402Y224067D01*
X533145Y224027D01*
X533145Y233173D01*
G37*
%LPD*%
%LPC*%
G36*
X183133Y233173D02*
X183133Y233173D01*
X192279Y233173D01*
X192239Y232916D01*
X191658Y231129D01*
X190837Y229517D01*
X190805Y229455D01*
X189700Y227934D01*
X188372Y226606D01*
X186851Y225501D01*
X186713Y225431D01*
X185177Y224648D01*
X183390Y224067D01*
X183133Y224027D01*
X183133Y233173D01*
G37*
%LPD*%
%LPC*%
G36*
X183133Y472949D02*
X183133Y472949D01*
X192279Y472949D01*
X192239Y472692D01*
X191658Y470905D01*
X190835Y469289D01*
X190805Y469231D01*
X189700Y467710D01*
X188372Y466382D01*
X186851Y465277D01*
X186713Y465207D01*
X185177Y464424D01*
X183390Y463843D01*
X183133Y463803D01*
X183133Y472949D01*
G37*
%LPD*%
%LPC*%
G36*
X380745Y472949D02*
X380745Y472949D01*
X389891Y472949D01*
X389851Y472692D01*
X389270Y470905D01*
X388447Y469289D01*
X388417Y469231D01*
X387312Y467710D01*
X385984Y466382D01*
X384463Y465277D01*
X384325Y465207D01*
X382789Y464424D01*
X381002Y463843D01*
X380745Y463803D01*
X380745Y472949D01*
G37*
%LPD*%
%LPC*%
G36*
X533145Y472949D02*
X533145Y472949D01*
X542291Y472949D01*
X542251Y472692D01*
X541670Y470905D01*
X540847Y469289D01*
X540817Y469231D01*
X539712Y467710D01*
X538384Y466382D01*
X536863Y465277D01*
X536725Y465207D01*
X535189Y464424D01*
X533402Y463843D01*
X533145Y463803D01*
X533145Y472949D01*
G37*
%LPD*%
%LPC*%
G36*
X16509Y543051D02*
X16509Y543051D01*
X16549Y543308D01*
X16905Y544402D01*
X17130Y545095D01*
X17913Y546631D01*
X17983Y546769D01*
X19088Y548290D01*
X20416Y549618D01*
X21937Y550723D01*
X23611Y551576D01*
X25398Y552157D01*
X25544Y552180D01*
X25655Y552197D01*
X25655Y543051D01*
X16509Y543051D01*
G37*
%LPD*%
%LPC*%
G36*
X366521Y543051D02*
X366521Y543051D01*
X366561Y543308D01*
X366917Y544402D01*
X367142Y545095D01*
X367925Y546631D01*
X367995Y546769D01*
X369100Y548290D01*
X370428Y549618D01*
X371949Y550723D01*
X373623Y551576D01*
X375410Y552157D01*
X375556Y552180D01*
X375667Y552197D01*
X375667Y543051D01*
X366521Y543051D01*
G37*
%LPD*%
%LPC*%
G36*
X168909Y543051D02*
X168909Y543051D01*
X168949Y543308D01*
X169305Y544402D01*
X169530Y545095D01*
X170313Y546631D01*
X170383Y546769D01*
X171488Y548290D01*
X172816Y549618D01*
X174337Y550723D01*
X176011Y551576D01*
X177798Y552157D01*
X177944Y552180D01*
X178055Y552197D01*
X178055Y543051D01*
X168909Y543051D01*
G37*
%LPD*%
%LPC*%
G36*
X518921Y543051D02*
X518921Y543051D01*
X518961Y543308D01*
X519317Y544402D01*
X519542Y545095D01*
X520325Y546631D01*
X520395Y546769D01*
X521500Y548290D01*
X522828Y549618D01*
X524349Y550723D01*
X526023Y551576D01*
X527810Y552157D01*
X527956Y552180D01*
X528067Y552197D01*
X528067Y543051D01*
X518921Y543051D01*
G37*
%LPD*%
%LPC*%
G36*
X115315Y91439D02*
X115315Y91439D01*
X115355Y91696D01*
X115640Y92572D01*
X115936Y93483D01*
X116687Y94957D01*
X116789Y95157D01*
X117894Y96678D01*
X119222Y98006D01*
X120743Y99111D01*
X122417Y99964D01*
X122993Y100151D01*
X122994Y100151D01*
X124204Y100545D01*
X124461Y100585D01*
X124461Y91439D01*
X115315Y91439D01*
G37*
%LPD*%
%LPC*%
G36*
X518921Y173227D02*
X518921Y173227D01*
X518961Y173484D01*
X519317Y174578D01*
X519542Y175271D01*
X520282Y176723D01*
X520395Y176945D01*
X521500Y178466D01*
X522828Y179794D01*
X524349Y180899D01*
X526023Y181752D01*
X527810Y182333D01*
X527956Y182356D01*
X528067Y182373D01*
X528067Y173227D01*
X518921Y173227D01*
G37*
%LPD*%
%LPC*%
G36*
X168909Y173227D02*
X168909Y173227D01*
X168949Y173484D01*
X169305Y174578D01*
X169530Y175271D01*
X170270Y176723D01*
X170383Y176945D01*
X171488Y178466D01*
X172816Y179794D01*
X174337Y180899D01*
X176011Y181752D01*
X177798Y182333D01*
X177944Y182356D01*
X178055Y182373D01*
X178055Y173227D01*
X168909Y173227D01*
G37*
%LPD*%
%LPC*%
G36*
X16509Y173227D02*
X16509Y173227D01*
X16549Y173484D01*
X16905Y174578D01*
X17130Y175271D01*
X17870Y176723D01*
X17983Y176945D01*
X19088Y178466D01*
X20416Y179794D01*
X21937Y180899D01*
X23611Y181752D01*
X25398Y182333D01*
X25544Y182356D01*
X25655Y182373D01*
X25655Y173227D01*
X16509Y173227D01*
G37*
%LPD*%
%LPC*%
G36*
X380745Y537973D02*
X380745Y537973D01*
X389891Y537973D01*
X389851Y537716D01*
X389270Y535929D01*
X388417Y534255D01*
X387312Y532734D01*
X385984Y531406D01*
X384463Y530301D01*
X384325Y530231D01*
X382789Y529448D01*
X381002Y528867D01*
X380745Y528827D01*
X380745Y537973D01*
G37*
%LPD*%
%LPC*%
G36*
X183133Y537973D02*
X183133Y537973D01*
X192279Y537973D01*
X192239Y537716D01*
X191658Y535929D01*
X190805Y534255D01*
X189700Y532734D01*
X188372Y531406D01*
X186851Y530301D01*
X186713Y530231D01*
X185177Y529448D01*
X183390Y528867D01*
X183133Y528827D01*
X183133Y537973D01*
G37*
%LPD*%
%LPC*%
G36*
X30733Y537973D02*
X30733Y537973D01*
X39879Y537973D01*
X39839Y537716D01*
X39258Y535929D01*
X38405Y534255D01*
X37300Y532734D01*
X35972Y531406D01*
X34451Y530301D01*
X34313Y530231D01*
X32777Y529448D01*
X30990Y528867D01*
X30733Y528827D01*
X30733Y537973D01*
G37*
%LPD*%
%LPC*%
G36*
X30733Y15749D02*
X30733Y15749D01*
X39879Y15749D01*
X39839Y15492D01*
X39258Y13705D01*
X38405Y12031D01*
X37300Y10510D01*
X35972Y9182D01*
X34451Y8077D01*
X34313Y8007D01*
X32777Y7224D01*
X30990Y6643D01*
X30733Y6603D01*
X30733Y15749D01*
G37*
%LPD*%
%LPC*%
G36*
X183133Y168149D02*
X183133Y168149D01*
X192279Y168149D01*
X192239Y167892D01*
X191658Y166105D01*
X190805Y164431D01*
X189700Y162910D01*
X188372Y161582D01*
X186851Y160477D01*
X186713Y160407D01*
X185177Y159624D01*
X183390Y159043D01*
X183133Y159003D01*
X183133Y168149D01*
G37*
%LPD*%
%LPC*%
G36*
X380745Y168149D02*
X380745Y168149D01*
X389891Y168149D01*
X389851Y167892D01*
X389270Y166105D01*
X388417Y164431D01*
X387312Y162910D01*
X385984Y161582D01*
X384463Y160477D01*
X384325Y160407D01*
X382789Y159624D01*
X381002Y159043D01*
X380745Y159003D01*
X380745Y168149D01*
G37*
%LPD*%
%LPC*%
G36*
X533145Y537973D02*
X533145Y537973D01*
X542291Y537973D01*
X542251Y537716D01*
X541670Y535929D01*
X540817Y534255D01*
X539712Y532734D01*
X538384Y531406D01*
X536863Y530301D01*
X536725Y530231D01*
X535189Y529448D01*
X533402Y528867D01*
X533145Y528827D01*
X533145Y537973D01*
G37*
%LPD*%
%LPC*%
G36*
X533145Y15749D02*
X533145Y15749D01*
X542291Y15749D01*
X542251Y15492D01*
X541670Y13705D01*
X540817Y12031D01*
X539712Y10510D01*
X538384Y9182D01*
X536863Y8077D01*
X536725Y8007D01*
X535189Y7224D01*
X533402Y6643D01*
X533145Y6603D01*
X533145Y15749D01*
G37*
%LPD*%
%LPC*%
G36*
X380745Y15749D02*
X380745Y15749D01*
X389891Y15749D01*
X389851Y15492D01*
X389270Y13705D01*
X388417Y12031D01*
X387312Y10510D01*
X385984Y9182D01*
X384463Y8077D01*
X384325Y8007D01*
X382789Y7224D01*
X381002Y6643D01*
X380745Y6603D01*
X380745Y15749D01*
G37*
%LPD*%
%LPC*%
G36*
X183133Y15749D02*
X183133Y15749D01*
X192279Y15749D01*
X192239Y15492D01*
X191658Y13705D01*
X190805Y12031D01*
X189700Y10510D01*
X188372Y9182D01*
X186851Y8077D01*
X186713Y8007D01*
X185177Y7224D01*
X183390Y6643D01*
X183133Y6603D01*
X183133Y15749D01*
G37*
%LPD*%
%LPC*%
G36*
X183133Y385573D02*
X183133Y385573D01*
X192279Y385573D01*
X192239Y385316D01*
X191658Y383529D01*
X190805Y381855D01*
X189700Y380334D01*
X188372Y379006D01*
X186851Y377901D01*
X186713Y377831D01*
X185177Y377048D01*
X183390Y376467D01*
X183133Y376427D01*
X183133Y385573D01*
G37*
%LPD*%
%LPC*%
G36*
X380745Y385573D02*
X380745Y385573D01*
X389891Y385573D01*
X389851Y385316D01*
X389270Y383529D01*
X388417Y381855D01*
X387312Y380334D01*
X385984Y379006D01*
X384463Y377901D01*
X384325Y377831D01*
X382789Y377048D01*
X381002Y376467D01*
X380745Y376427D01*
X380745Y385573D01*
G37*
%LPD*%
%LPC*%
G36*
X533145Y385573D02*
X533145Y385573D01*
X542291Y385573D01*
X542251Y385316D01*
X541670Y383529D01*
X540817Y381855D01*
X539712Y380334D01*
X538384Y379006D01*
X536863Y377901D01*
X536725Y377831D01*
X535189Y377048D01*
X533402Y376467D01*
X533145Y376427D01*
X533145Y385573D01*
G37*
%LPD*%
%LPC*%
G36*
X30733Y385573D02*
X30733Y385573D01*
X39879Y385573D01*
X39839Y385316D01*
X39258Y383529D01*
X38405Y381855D01*
X37300Y380334D01*
X35972Y379006D01*
X34451Y377901D01*
X34313Y377831D01*
X32777Y377048D01*
X30990Y376467D01*
X30733Y376427D01*
X30733Y385573D01*
G37*
%LPD*%
%LPC*%
G36*
X533145Y168149D02*
X533145Y168149D01*
X542291Y168149D01*
X542251Y167892D01*
X541670Y166105D01*
X540817Y164431D01*
X539712Y162910D01*
X538384Y161582D01*
X536863Y160477D01*
X536725Y160407D01*
X535189Y159624D01*
X533402Y159043D01*
X533145Y159003D01*
X533145Y168149D01*
G37*
%LPD*%
%LPC*%
G36*
X30733Y168149D02*
X30733Y168149D01*
X39879Y168149D01*
X39839Y167892D01*
X39258Y166105D01*
X38405Y164431D01*
X37300Y162910D01*
X35972Y161582D01*
X34451Y160477D01*
X34313Y160407D01*
X32777Y159624D01*
X30990Y159043D01*
X30733Y159003D01*
X30733Y168149D01*
G37*
%LPD*%
%LPC*%
G36*
X16509Y478027D02*
X16509Y478027D01*
X16549Y478284D01*
X16786Y479012D01*
X17130Y480071D01*
X17913Y481607D01*
X17983Y481745D01*
X19088Y483266D01*
X20416Y484594D01*
X21937Y485699D01*
X23611Y486552D01*
X25398Y487133D01*
X25544Y487156D01*
X25655Y487173D01*
X25655Y478027D01*
X16509Y478027D01*
G37*
%LPD*%
%LPC*%
G36*
X168909Y325627D02*
X168909Y325627D01*
X168949Y325884D01*
X169305Y326978D01*
X169530Y327671D01*
X169993Y328579D01*
X170383Y329345D01*
X171488Y330866D01*
X172816Y332194D01*
X174337Y333299D01*
X176011Y334152D01*
X177798Y334733D01*
X177944Y334756D01*
X178055Y334773D01*
X178055Y325627D01*
X168909Y325627D01*
G37*
%LPD*%
%LPC*%
G36*
X16509Y325627D02*
X16509Y325627D01*
X16549Y325884D01*
X16905Y326978D01*
X17130Y327671D01*
X17593Y328579D01*
X17983Y329345D01*
X19088Y330866D01*
X20416Y332194D01*
X21937Y333299D01*
X23611Y334152D01*
X25398Y334733D01*
X25544Y334756D01*
X25655Y334773D01*
X25655Y325627D01*
X16509Y325627D01*
G37*
%LPD*%
%LPC*%
G36*
X380745Y80773D02*
X380745Y80773D01*
X389891Y80773D01*
X389886Y80738D01*
X389861Y80583D01*
X389851Y80516D01*
X389270Y78729D01*
X388417Y77055D01*
X387312Y75534D01*
X385984Y74206D01*
X384463Y73101D01*
X383975Y72852D01*
X382789Y72248D01*
X381002Y71667D01*
X380745Y71627D01*
X380745Y80773D01*
G37*
%LPD*%
%LPC*%
G36*
X533145Y80773D02*
X533145Y80773D01*
X542291Y80773D01*
X542286Y80738D01*
X542261Y80583D01*
X542251Y80516D01*
X541670Y78729D01*
X540817Y77055D01*
X539712Y75534D01*
X538384Y74206D01*
X536863Y73101D01*
X536375Y72852D01*
X535189Y72248D01*
X533402Y71667D01*
X533145Y71627D01*
X533145Y80773D01*
G37*
%LPD*%
%LPC*%
G36*
X168909Y390651D02*
X168909Y390651D01*
X168949Y390908D01*
X169305Y392002D01*
X169530Y392695D01*
X170127Y393867D01*
X170383Y394369D01*
X171488Y395890D01*
X172816Y397218D01*
X174337Y398323D01*
X176011Y399176D01*
X177798Y399757D01*
X177944Y399780D01*
X178055Y399797D01*
X178055Y390651D01*
X168909Y390651D01*
G37*
%LPD*%
%LPC*%
G36*
X16509Y390651D02*
X16509Y390651D01*
X16549Y390908D01*
X16905Y392002D01*
X17130Y392695D01*
X17727Y393867D01*
X17983Y394369D01*
X19088Y395890D01*
X20416Y397218D01*
X21937Y398323D01*
X23611Y399176D01*
X25398Y399757D01*
X25544Y399780D01*
X25655Y399797D01*
X25655Y390651D01*
X16509Y390651D01*
G37*
%LPD*%
%LPC*%
G36*
X366521Y390651D02*
X366521Y390651D01*
X366561Y390908D01*
X366917Y392002D01*
X367142Y392695D01*
X367739Y393867D01*
X367995Y394369D01*
X369100Y395890D01*
X370428Y397218D01*
X371949Y398323D01*
X373623Y399176D01*
X375410Y399757D01*
X375556Y399780D01*
X375667Y399797D01*
X375667Y390651D01*
X366521Y390651D01*
G37*
%LPD*%
%LPC*%
G36*
X518921Y390651D02*
X518921Y390651D01*
X518961Y390908D01*
X519317Y392002D01*
X519542Y392695D01*
X520139Y393867D01*
X520395Y394369D01*
X521500Y395890D01*
X522828Y397218D01*
X524349Y398323D01*
X526023Y399176D01*
X527810Y399757D01*
X527956Y399780D01*
X528067Y399797D01*
X528067Y390651D01*
X518921Y390651D01*
G37*
%LPD*%
%LPC*%
G36*
X380745Y320549D02*
X380745Y320549D01*
X389891Y320549D01*
X389851Y320292D01*
X389270Y318505D01*
X388417Y316831D01*
X387312Y315310D01*
X385984Y313982D01*
X384463Y312877D01*
X384175Y312730D01*
X382789Y312024D01*
X381002Y311443D01*
X380745Y311403D01*
X380745Y320549D01*
G37*
%LPD*%
%LPC*%
G36*
X533145Y320549D02*
X533145Y320549D01*
X542291Y320549D01*
X542251Y320292D01*
X541670Y318505D01*
X540817Y316831D01*
X539712Y315310D01*
X538384Y313982D01*
X536863Y312877D01*
X536575Y312730D01*
X535189Y312024D01*
X533402Y311443D01*
X533145Y311403D01*
X533145Y320549D01*
G37*
%LPD*%
%LPC*%
G36*
X168909Y20827D02*
X168909Y20827D01*
X168949Y21084D01*
X169459Y22652D01*
X169530Y22871D01*
X169881Y23559D01*
X170383Y24545D01*
X171488Y26066D01*
X172816Y27394D01*
X174337Y28499D01*
X176011Y29352D01*
X177798Y29933D01*
X177944Y29956D01*
X178055Y29973D01*
X178055Y20827D01*
X168909Y20827D01*
G37*
%LPD*%
%LPC*%
G36*
X16509Y20827D02*
X16509Y20827D01*
X16549Y21084D01*
X17059Y22652D01*
X17130Y22871D01*
X17481Y23559D01*
X17983Y24545D01*
X19088Y26066D01*
X20416Y27394D01*
X21937Y28499D01*
X23611Y29352D01*
X25398Y29933D01*
X25544Y29956D01*
X25655Y29973D01*
X25655Y20827D01*
X16509Y20827D01*
G37*
%LPD*%
%LPC*%
G36*
X518921Y20827D02*
X518921Y20827D01*
X518961Y21084D01*
X519471Y22652D01*
X519542Y22871D01*
X519893Y23559D01*
X520395Y24545D01*
X521500Y26066D01*
X522828Y27394D01*
X524349Y28499D01*
X526023Y29352D01*
X527810Y29933D01*
X527956Y29956D01*
X528067Y29973D01*
X528067Y20827D01*
X518921Y20827D01*
G37*
%LPD*%
%LPC*%
G36*
X366521Y20827D02*
X366521Y20827D01*
X366561Y21084D01*
X367071Y22652D01*
X367142Y22871D01*
X367493Y23559D01*
X367995Y24545D01*
X369100Y26066D01*
X370428Y27394D01*
X371949Y28499D01*
X373623Y29352D01*
X375410Y29933D01*
X375556Y29956D01*
X375667Y29973D01*
X375667Y20827D01*
X366521Y20827D01*
G37*
%LPD*%
%LPC*%
G36*
X16509Y238251D02*
X16509Y238251D01*
X16549Y238508D01*
X16905Y239602D01*
X17130Y240295D01*
X17855Y241718D01*
X17983Y241969D01*
X19088Y243490D01*
X20416Y244818D01*
X21937Y245923D01*
X23611Y246776D01*
X25398Y247357D01*
X25544Y247380D01*
X25655Y247397D01*
X25655Y238251D01*
X16509Y238251D01*
G37*
%LPD*%
%LPC*%
G36*
X366521Y238251D02*
X366521Y238251D01*
X366561Y238508D01*
X366917Y239602D01*
X367142Y240295D01*
X367867Y241718D01*
X367995Y241969D01*
X369100Y243490D01*
X370428Y244818D01*
X371949Y245923D01*
X373623Y246776D01*
X375410Y247357D01*
X375556Y247380D01*
X375667Y247397D01*
X375667Y238251D01*
X366521Y238251D01*
G37*
%LPD*%
%LPC*%
G36*
X16509Y85851D02*
X16509Y85851D01*
X16549Y86108D01*
X17109Y87831D01*
X17130Y87895D01*
X17865Y89337D01*
X17983Y89569D01*
X19088Y91090D01*
X20416Y92418D01*
X21937Y93523D01*
X23611Y94376D01*
X25398Y94957D01*
X25544Y94980D01*
X25655Y94997D01*
X25655Y85851D01*
X16509Y85851D01*
G37*
%LPD*%
%LPC*%
G36*
X375556Y224044D02*
X375556Y224044D01*
X375410Y224067D01*
X373623Y224648D01*
X372087Y225431D01*
X371949Y225501D01*
X370428Y226606D01*
X369100Y227934D01*
X367995Y229455D01*
X367963Y229517D01*
X367142Y231129D01*
X366561Y232916D01*
X366521Y233173D01*
X375667Y233173D01*
X375667Y224027D01*
X375556Y224044D01*
G37*
%LPD*%
%LPC*%
G36*
X25544Y224044D02*
X25544Y224044D01*
X25398Y224067D01*
X23611Y224648D01*
X22075Y225431D01*
X21937Y225501D01*
X20416Y226606D01*
X19088Y227934D01*
X17983Y229455D01*
X17951Y229517D01*
X17130Y231129D01*
X16549Y232916D01*
X16509Y233173D01*
X25655Y233173D01*
X25655Y224027D01*
X25544Y224044D01*
G37*
%LPD*%
%LPC*%
G36*
X25544Y463820D02*
X25544Y463820D01*
X25398Y463843D01*
X23611Y464424D01*
X22075Y465207D01*
X21937Y465277D01*
X20416Y466382D01*
X19088Y467710D01*
X17983Y469231D01*
X17953Y469289D01*
X17130Y470905D01*
X16549Y472692D01*
X16509Y472949D01*
X25655Y472949D01*
X25655Y463803D01*
X25544Y463820D01*
G37*
%LPD*%
%LPC*%
G36*
X177944Y463820D02*
X177944Y463820D01*
X177798Y463843D01*
X176011Y464424D01*
X174475Y465207D01*
X174337Y465277D01*
X172816Y466382D01*
X171488Y467710D01*
X170383Y469231D01*
X170353Y469289D01*
X169530Y470905D01*
X168949Y472692D01*
X168909Y472949D01*
X178055Y472949D01*
X178055Y463803D01*
X177944Y463820D01*
G37*
%LPD*%
%LPC*%
G36*
X25544Y376444D02*
X25544Y376444D01*
X25398Y376467D01*
X23611Y377048D01*
X22075Y377831D01*
X21937Y377901D01*
X20416Y379006D01*
X19088Y380334D01*
X17983Y381855D01*
X17130Y383529D01*
X16549Y385316D01*
X16509Y385573D01*
X25655Y385573D01*
X25655Y376427D01*
X25544Y376444D01*
G37*
%LPD*%
%LPC*%
G36*
X177944Y528844D02*
X177944Y528844D01*
X177798Y528867D01*
X176011Y529448D01*
X174475Y530231D01*
X174337Y530301D01*
X172816Y531406D01*
X171488Y532734D01*
X170383Y534255D01*
X169530Y535929D01*
X168949Y537716D01*
X168909Y537973D01*
X178055Y537973D01*
X178055Y528827D01*
X177944Y528844D01*
G37*
%LPD*%
%LPC*%
G36*
X375556Y528844D02*
X375556Y528844D01*
X375410Y528867D01*
X373623Y529448D01*
X372087Y530231D01*
X371949Y530301D01*
X370428Y531406D01*
X369100Y532734D01*
X367995Y534255D01*
X367142Y535929D01*
X366561Y537716D01*
X366521Y537973D01*
X375667Y537973D01*
X375667Y528827D01*
X375556Y528844D01*
G37*
%LPD*%
%LPC*%
G36*
X25544Y528844D02*
X25544Y528844D01*
X25398Y528867D01*
X23611Y529448D01*
X22075Y530231D01*
X21937Y530301D01*
X20416Y531406D01*
X19088Y532734D01*
X17983Y534255D01*
X17130Y535929D01*
X16549Y537716D01*
X16509Y537973D01*
X25655Y537973D01*
X25655Y528827D01*
X25544Y528844D01*
G37*
%LPD*%
%LPC*%
G36*
X177944Y6620D02*
X177944Y6620D01*
X177798Y6643D01*
X176011Y7224D01*
X174475Y8007D01*
X174337Y8077D01*
X172816Y9182D01*
X171488Y10510D01*
X170383Y12031D01*
X169530Y13705D01*
X168949Y15492D01*
X168909Y15749D01*
X178055Y15749D01*
X178055Y6603D01*
X177944Y6620D01*
G37*
%LPD*%
%LPC*%
G36*
X527956Y159020D02*
X527956Y159020D01*
X527810Y159043D01*
X526023Y159624D01*
X524487Y160407D01*
X524349Y160477D01*
X522828Y161582D01*
X521500Y162910D01*
X520395Y164431D01*
X519542Y166105D01*
X518961Y167892D01*
X518921Y168149D01*
X528067Y168149D01*
X528067Y159003D01*
X527956Y159020D01*
G37*
%LPD*%
%LPC*%
G36*
X25544Y159020D02*
X25544Y159020D01*
X25398Y159043D01*
X23611Y159624D01*
X22075Y160407D01*
X21937Y160477D01*
X20416Y161582D01*
X19088Y162910D01*
X17983Y164431D01*
X17130Y166105D01*
X16549Y167892D01*
X16509Y168149D01*
X25655Y168149D01*
X25655Y159003D01*
X25544Y159020D01*
G37*
%LPD*%
%LPC*%
G36*
X527956Y376444D02*
X527956Y376444D01*
X527810Y376467D01*
X526023Y377048D01*
X524487Y377831D01*
X524349Y377901D01*
X522828Y379006D01*
X521500Y380334D01*
X520395Y381855D01*
X519542Y383529D01*
X518961Y385316D01*
X518921Y385573D01*
X528067Y385573D01*
X528067Y376427D01*
X527956Y376444D01*
G37*
%LPD*%
%LPC*%
G36*
X177944Y159020D02*
X177944Y159020D01*
X177798Y159043D01*
X176011Y159624D01*
X174475Y160407D01*
X174337Y160477D01*
X172816Y161582D01*
X171488Y162910D01*
X170383Y164431D01*
X169530Y166105D01*
X168949Y167892D01*
X168909Y168149D01*
X178055Y168149D01*
X178055Y159003D01*
X177944Y159020D01*
G37*
%LPD*%
%LPC*%
G36*
X527956Y528844D02*
X527956Y528844D01*
X527810Y528867D01*
X526023Y529448D01*
X524487Y530231D01*
X524349Y530301D01*
X522828Y531406D01*
X521500Y532734D01*
X520395Y534255D01*
X519542Y535929D01*
X518961Y537716D01*
X518921Y537973D01*
X528067Y537973D01*
X528067Y528827D01*
X527956Y528844D01*
G37*
%LPD*%
%LPC*%
G36*
X25544Y6620D02*
X25544Y6620D01*
X25398Y6643D01*
X23611Y7224D01*
X22075Y8007D01*
X21937Y8077D01*
X20416Y9182D01*
X19088Y10510D01*
X17983Y12031D01*
X17130Y13705D01*
X16549Y15492D01*
X16509Y15749D01*
X25655Y15749D01*
X25655Y6603D01*
X25544Y6620D01*
G37*
%LPD*%
%LPC*%
G36*
X375556Y376444D02*
X375556Y376444D01*
X375410Y376467D01*
X373623Y377048D01*
X372087Y377831D01*
X371949Y377901D01*
X370428Y379006D01*
X369100Y380334D01*
X367995Y381855D01*
X367142Y383529D01*
X366561Y385316D01*
X366521Y385573D01*
X375667Y385573D01*
X375667Y376427D01*
X375556Y376444D01*
G37*
%LPD*%
%LPC*%
G36*
X527956Y6620D02*
X527956Y6620D01*
X527810Y6643D01*
X526023Y7224D01*
X524487Y8007D01*
X524349Y8077D01*
X522828Y9182D01*
X521500Y10510D01*
X520395Y12031D01*
X519542Y13705D01*
X518961Y15492D01*
X518921Y15749D01*
X528067Y15749D01*
X528067Y6603D01*
X527956Y6620D01*
G37*
%LPD*%
%LPC*%
G36*
X375556Y6620D02*
X375556Y6620D01*
X375410Y6643D01*
X373623Y7224D01*
X372087Y8007D01*
X371949Y8077D01*
X370428Y9182D01*
X369100Y10510D01*
X367995Y12031D01*
X367142Y13705D01*
X366561Y15492D01*
X366521Y15749D01*
X375667Y15749D01*
X375667Y6603D01*
X375556Y6620D01*
G37*
%LPD*%
%LPC*%
G36*
X177944Y376444D02*
X177944Y376444D01*
X177798Y376467D01*
X176011Y377048D01*
X174475Y377831D01*
X174337Y377901D01*
X172816Y379006D01*
X171488Y380334D01*
X170383Y381855D01*
X169530Y383529D01*
X168949Y385316D01*
X168909Y385573D01*
X178055Y385573D01*
X178055Y376427D01*
X177944Y376444D01*
G37*
%LPD*%
%LPC*%
G36*
X25544Y71644D02*
X25544Y71644D01*
X25398Y71667D01*
X23611Y72248D01*
X22425Y72852D01*
X21937Y73101D01*
X20416Y74206D01*
X19088Y75534D01*
X17983Y77055D01*
X17130Y78729D01*
X16549Y80516D01*
X16539Y80583D01*
X16509Y80773D01*
X25655Y80773D01*
X25655Y71627D01*
X25544Y71644D01*
G37*
%LPD*%
%LPC*%
G36*
X177944Y311420D02*
X177944Y311420D01*
X177798Y311443D01*
X176011Y312024D01*
X174625Y312730D01*
X174337Y312877D01*
X172816Y313982D01*
X171488Y315310D01*
X170383Y316831D01*
X169530Y318505D01*
X168949Y320292D01*
X168909Y320549D01*
X178055Y320549D01*
X178055Y311403D01*
X177944Y311420D01*
G37*
%LPD*%
%LPC*%
G36*
X25544Y311420D02*
X25544Y311420D01*
X25398Y311443D01*
X23611Y312024D01*
X22225Y312730D01*
X21937Y312877D01*
X20416Y313982D01*
X19088Y315310D01*
X17983Y316831D01*
X17130Y318505D01*
X16549Y320292D01*
X16509Y320549D01*
X25655Y320549D01*
X25655Y311403D01*
X25544Y311420D01*
G37*
%LPD*%
%LPC*%
G36*
X124204Y102655D02*
X124204Y102655D01*
X122758Y103125D01*
X122417Y103236D01*
X120883Y104018D01*
X120743Y104089D01*
X119222Y105194D01*
X117894Y106522D01*
X116789Y108043D01*
X115936Y109717D01*
X115355Y111504D01*
X115315Y111761D01*
X124461Y111761D01*
X124461Y102615D01*
X124204Y102655D01*
G37*
%LPD*%
D10*
X485394Y475488D03*
X485394Y540512D03*
X530606Y475488D03*
X530606Y540512D03*
X225806Y540512D03*
X225806Y475488D03*
X180594Y540512D03*
X180594Y475488D03*
X225806Y388112D03*
X225806Y323088D03*
X180594Y388112D03*
X180594Y323088D03*
X225806Y235712D03*
X225806Y170688D03*
X180594Y235712D03*
X180594Y170688D03*
X225806Y83312D03*
X225806Y18288D03*
X180594Y83312D03*
X180594Y18288D03*
X73406Y540512D03*
X73406Y475488D03*
X28194Y540512D03*
X28194Y475488D03*
X73406Y388112D03*
X73406Y323088D03*
X28194Y388112D03*
X28194Y323088D03*
X73406Y235712D03*
X73406Y170688D03*
X28194Y235712D03*
X28194Y170688D03*
X73406Y83312D03*
X73406Y18288D03*
X28194Y83312D03*
X28194Y18288D03*
X332994Y18288D03*
X332994Y83312D03*
X378206Y18288D03*
X378206Y83312D03*
X332994Y170688D03*
X332994Y235712D03*
X378206Y170688D03*
X378206Y235712D03*
X332994Y323088D03*
X332994Y388112D03*
X378206Y323088D03*
X378206Y388112D03*
X332994Y475488D03*
X332994Y540512D03*
X378206Y475488D03*
X378206Y540512D03*
X485394Y18288D03*
X485394Y83312D03*
X530606Y18288D03*
X530606Y83312D03*
X485394Y170688D03*
X485394Y235712D03*
X530606Y170688D03*
X530606Y235712D03*
X485394Y323088D03*
X485394Y388112D03*
X530606Y323088D03*
X530606Y388112D03*
D11*
X211700Y508000D03*
X194700Y508000D03*
X211700Y355600D03*
X194700Y355600D03*
X211700Y203200D03*
X194700Y203200D03*
X211700Y50800D03*
X194700Y50800D03*
X59300Y508000D03*
X42300Y508000D03*
X59300Y355600D03*
X42300Y355600D03*
X59300Y203200D03*
X42300Y203200D03*
X59300Y50800D03*
X42300Y50800D03*
X516500Y508000D03*
X499500Y508000D03*
X516500Y355600D03*
X499500Y355600D03*
X516500Y203200D03*
X499500Y203200D03*
X516500Y50800D03*
X499500Y50800D03*
X364100Y508000D03*
X347100Y508000D03*
X364100Y355600D03*
X347100Y355600D03*
X364100Y203200D03*
X347100Y203200D03*
X364100Y50800D03*
X347100Y50800D03*
D10*
X127000Y38100D03*
X127000Y63500D03*
X127000Y88900D03*
X127000Y114300D03*
X127000Y139700D03*
X127000Y165100D03*
X127000Y190500D03*
X127000Y215900D03*
X127000Y241300D03*
X127000Y266700D03*
X127000Y292100D03*
X127000Y317500D03*
X279400Y317500D03*
X279400Y292100D03*
X279400Y266700D03*
X279400Y241300D03*
X279400Y215900D03*
X279400Y190500D03*
X279400Y165100D03*
X279400Y139700D03*
X279400Y114300D03*
X279400Y88900D03*
X279400Y63500D03*
X279400Y38100D03*
D12*
X194700Y50800D02*
X152400Y93100D01*
X152400Y127000D02*
X139700Y139700D01*
X127000Y139700D01*
X152400Y127000D02*
X152400Y93100D01*
X165100Y203200D02*
X194700Y203200D01*
X165100Y203200D02*
X127000Y165100D01*
X127000Y190500D02*
X144780Y190500D01*
X157480Y203200D01*
X157480Y246380D01*
X194700Y283600D02*
X194700Y355600D01*
X194700Y283600D02*
X157480Y246380D01*
X149860Y238760D02*
X127000Y215900D01*
X149860Y480060D02*
X177800Y508000D01*
X194700Y508000D01*
X149860Y480060D02*
X149860Y238760D01*
X42300Y75320D02*
X42300Y50800D01*
X42300Y75320D02*
X106680Y139700D01*
X106680Y233680D01*
X127000Y241300D01*
X42300Y227720D02*
X42300Y203200D01*
X81280Y266700D02*
X127000Y266700D01*
X81280Y266700D02*
X42300Y227720D01*
X42300Y313300D02*
X42300Y355600D01*
X42300Y313300D02*
X63500Y292100D01*
X127000Y292100D01*
X42300Y483480D02*
X42300Y508000D01*
X42300Y483480D02*
X127000Y398780D01*
X127000Y317500D01*
X364100Y80400D02*
X364100Y50800D01*
X304800Y139700D02*
X279400Y139700D01*
X304800Y139700D02*
X364100Y80400D01*
X304800Y165100D02*
X279400Y165100D01*
X304800Y165100D02*
X342900Y127000D01*
X464820Y127000D01*
X516500Y75320D02*
X516500Y50800D01*
X516500Y75320D02*
X464820Y127000D01*
X364100Y173600D02*
X364100Y203200D01*
X364100Y173600D02*
X342900Y152400D01*
X330200Y152400D01*
X292100Y190500D01*
X279400Y190500D01*
X516500Y203200D02*
X516500Y232800D01*
X482600Y266700D01*
X330200Y266700D01*
X279400Y215900D01*
X516500Y313300D02*
X516500Y355600D01*
X516500Y313300D02*
X495300Y292100D01*
X342900Y292100D01*
X292100Y241300D01*
X279400Y241300D01*
X364100Y326000D02*
X364100Y355600D01*
X364100Y326000D02*
X304800Y266700D01*
X279400Y266700D01*
X516500Y483480D02*
X516500Y508000D01*
X516500Y483480D02*
X472440Y439420D01*
X350520Y439420D01*
X304800Y393700D01*
X304800Y317500D01*
X279400Y292100D01*
X364100Y478400D02*
X364100Y508000D01*
X279400Y393700D02*
X279400Y317500D01*
X279400Y393700D02*
X364100Y478400D01*
X225806Y522106D02*
X225806Y540512D01*
X225806Y522106D02*
X211700Y508000D01*
X225806Y493894D02*
X225806Y475488D01*
X225806Y493894D02*
X211700Y508000D01*
X225806Y341494D02*
X225806Y323088D01*
X225806Y341494D02*
X211700Y355600D01*
X225806Y369706D02*
X225806Y388112D01*
X225806Y369706D02*
X211700Y355600D01*
X225806Y189094D02*
X225806Y170688D01*
X225806Y189094D02*
X213800Y201100D01*
X211700Y203200D01*
X225806Y213106D02*
X225806Y235712D01*
X225806Y213106D02*
X213800Y201100D01*
X225806Y36694D02*
X225806Y18288D01*
X225806Y36694D02*
X211700Y50800D01*
X225806Y64906D02*
X225806Y83312D01*
X225806Y64906D02*
X211700Y50800D01*
X59300Y508000D02*
X73406Y522106D01*
X73406Y540512D01*
X73406Y493894D02*
X73406Y475488D01*
X73406Y493894D02*
X59300Y508000D01*
X73406Y388112D02*
X73406Y369706D01*
X59300Y355600D01*
X73406Y341494D02*
X73406Y323088D01*
X73406Y341494D02*
X59300Y355600D01*
X73406Y189094D02*
X73406Y170688D01*
X73406Y189094D02*
X59300Y203200D01*
X73406Y217306D02*
X73406Y235712D01*
X73406Y217306D02*
X59300Y203200D01*
X73406Y83312D02*
X73406Y64906D01*
X59300Y50800D01*
X73406Y36694D02*
X73406Y18288D01*
X73406Y36694D02*
X59300Y50800D01*
X332994Y36694D02*
X332994Y18288D01*
X332994Y36694D02*
X347100Y50800D01*
X332994Y64906D02*
X332994Y83312D01*
X332994Y64906D02*
X347100Y50800D01*
X332994Y217306D02*
X332994Y235712D01*
X332994Y217306D02*
X347100Y203200D01*
X332994Y189094D02*
X332994Y170688D01*
X332994Y189094D02*
X347100Y203200D01*
X332994Y369706D02*
X332994Y388112D01*
X332994Y369706D02*
X347100Y355600D01*
X332994Y341494D02*
X332994Y323088D01*
X332994Y341494D02*
X347100Y355600D01*
X332994Y475488D02*
X332994Y493894D01*
X347100Y508000D01*
X332994Y522106D02*
X332994Y540512D01*
X332994Y522106D02*
X347100Y508000D01*
X485394Y83312D02*
X485394Y64906D01*
X499500Y50800D01*
X485394Y36694D02*
X485394Y18288D01*
X485394Y36694D02*
X499500Y50800D01*
X485394Y170688D02*
X485394Y189094D01*
X499500Y203200D01*
X485394Y217306D02*
X485394Y235712D01*
X485394Y217306D02*
X499500Y203200D01*
X499500Y355600D02*
X485394Y369706D01*
X485394Y388112D01*
X499500Y355600D02*
X485394Y341494D01*
X485394Y323088D01*
X485394Y522106D02*
X485394Y540512D01*
X485394Y522106D02*
X499500Y508000D01*
X485394Y493894D01*
X485394Y475488D01*
M02*
