M48
;GenerationSoftware,Autodesk,EAGLE,9.0.1*%
;CreationDate,2018-05-25T15:16:34Z*%
FMAT,2
ICI,OFF
METRIC,TZ,0000.0000
T3C1.0160
T2C3.5000
T1C5.2000
%
G90
M71
T1
X279400Y571500
X571500Y279400
X-12700Y279400
X279400Y-12700
T2
X50800Y431800
X508000Y431800
X50800Y127000
X508000Y127000
T3
X485394Y475488
X485394Y540512
X530606Y475488
X530606Y540512
X225806Y540512
X225806Y475488
X180594Y540512
X180594Y475488
X225806Y388112
X225806Y323088
X180594Y388112
X180594Y323088
X225806Y235712
X225806Y170688
X180594Y235712
X180594Y170688
X225806Y83312
X225806Y18288
X180594Y83312
X180594Y18288
X73406Y540512
X73406Y475488
X28194Y540512
X28194Y475488
X73406Y388112
X73406Y323088
X28194Y388112
X28194Y323088
X73406Y235712
X73406Y170688
X28194Y235712
X28194Y170688
X73406Y83312
X73406Y18288
X28194Y83312
X28194Y18288
X332994Y18288
X332994Y83312
X378206Y18288
X378206Y83312
X332994Y170688
X332994Y235712
X378206Y170688
X378206Y235712
X332994Y323088
X332994Y388112
X378206Y323088
X378206Y388112
X332994Y475488
X332994Y540512
X378206Y475488
X378206Y540512
X485394Y18288
X485394Y83312
X530606Y18288
X530606Y83312
X485394Y170688
X485394Y235712
X530606Y170688
X530606Y235712
X485394Y323088
X485394Y388112
X530606Y323088
X530606Y388112
X127000Y38100
X127000Y63500
X127000Y88900
X127000Y114300
X127000Y139700
X127000Y165100
X127000Y190500
X127000Y215900
X127000Y241300
X127000Y266700
X127000Y292100
X127000Y317500
X279400Y317500
X279400Y292100
X279400Y266700
X279400Y241300
X279400Y215900
X279400Y190500
X279400Y165100
X279400Y139700
X279400Y114300
X279400Y88900
X279400Y63500
X279400Y38100
M30